SplineFontDB: 3.0
FontName: Neuton-Italic
FullName: Neuton Italic
FamilyName: Neuton
Weight: Italic
Copyright: Copyright (c) 2010, 2011 Brian M Zick (http://21326.info/), \nwith Reserved Font Name 'Neuton'.\n\nThis Font Software is licensed under the SIL Open Font License, Version 1.1.\nThis license is available with a FAQ at: http://scripts.sil.org/OFL\n   WITHOUT WARRANTIES OR CONDITIONS OF ANY KIND, either express or implied.\n   See the License for the specific language governing permissions and\n   limitations under the License.
UComments: "2011-7-27: Created." 
Version: 1.46
ItalicAngle: 0
UnderlinePosition: -361
UnderlineWidth: 0
Ascent: 1638
Descent: 410
LayerCount: 3
Layer: 0 1 "Back"  1
Layer: 1 1 "Fore"  0
Layer: 2 1 "Compare"  0
XUID: [1021 467 2011608612 16041572]
FSType: 1
OS2Version: 1
OS2_WeightWidthSlopeOnly: 0
OS2_UseTypoMetrics: 0
CreationTime: 1311747327
ModificationTime: 1333038474
PfmFamily: 17
TTFWeight: 500
TTFWidth: 5
LineGap: 0
VLineGap: 0
OS2TypoAscent: 2106
OS2TypoAOffset: 0
OS2TypoDescent: -485
OS2TypoDOffset: 0
OS2TypoLinegap: 0
OS2WinAscent: 2106
OS2WinAOffset: 0
OS2WinDescent: 485
OS2WinDOffset: 0
HheadAscent: 2106
HheadAOffset: 0
HheadDescent: -485
HheadDOffset: 0
OS2SubXSize: 1095
OS2SubYSize: 1179
OS2SubXOff: 0
OS2SubYOff: 235
OS2SupXSize: 1095
OS2SupYSize: 1179
OS2SupXOff: 0
OS2SupYOff: 809
OS2StrikeYSize: 84
OS2StrikeYPos: 436
OS2Vendor: 'PfEd'
Lookup: 1 0 0 "'onum' Oldstyle Figures lookup 1"  {"'onum' Oldstyle Figures lookup 1-1" ("osf" ) } ['onum' ('DFLT' <'dflt' > 'hebr' <'dflt' > 'latn' <'dflt' > ) ]
Lookup: 3 0 0 "Neuton-Regular-'salt' Stylistic Alternates"  {"Neuton-Regular-Alternate Substitution in Latin lookup 0-1"  } ['salt' ('DFLT' <'dflt' > 'latn' <'dflt' > ) ]
MarkAttachClasses: 1
DEI: 91125
TtTable: prep
PUSHW_1
 511
SCANCTRL
PUSHB_1
 4
SCANTYPE
EndTTInstrs
LangName: 1033 
GaspTable: 1 65535 3 0
Encoding: Custom
UnicodeInterp: none
NameList: Adobe Glyph List
DisplaySize: -36
AntiAlias: 1
FitToEm: 1

StartChar: exclam
Encoding: 1 33 0
Width: 494
VWidth: 0
Flags: MW
LayerCount: 3
Back
SplineSet
83 92 m 0,0,1
 83 142 83 142 119.5 176 c 0
 156 210 156 210 206 210 c 0,2,3
 257 210 257 210 294 175 c 0
 331 140 331 140 331 90 c 0,4,5
 331 37 331 37 294.5 0.5 c 0
 258 -36 258 -36 206 -36 c 0,6,7
 154 -36 154 -36 118.5 1.5 c 0
 83 39 83 39 83 92 c 0,0,1
109 1245 m 0,8,9
 109 1270 109 1270 152 1281 c 0
 195 1292 195 1292 240 1292 c 0,10,11
 304 1292 304 1292 304 1253 c 0,12,13
 304 1086 304 1086 249 357 c 1,14,-1
 162 376 l 1,15,16
 157 483 157 483 133 815 c 0
 109 1147 109 1147 109 1245 c 0,8,9
EndSplineSet
Fore
SplineSet
254 1245 m 0,0,1
 258 1270 258 1270 295 1281 c 128,-1,2
 332 1292 332 1292 373 1292 c 0,3,4
 399 1292 399 1292 425 1284 c 128,-1,5
 451 1276 451 1276 451 1259 c 0,6,7
 451 1218 451 1218 376.5 868.5 c 128,-1,8
 302 519 302 519 254 357 c 1,9,-1
 170 376 l 1,10,11
 181 481 181 481 210 814 c 128,-1,12
 239 1147 239 1147 254 1245 c 0,0,1
187 210 m 0,13,14
 232 210 232 210 263.5 176 c 128,-1,15
 295 142 295 142 295 98 c 0,16,17
 295 39 295 39 250 1.5 c 128,-1,18
 205 -36 205 -36 148 -36 c 0,19,20
 102 -36 102 -36 73 -1 c 128,-1,21
 44 34 44 34 44 81 c 0,22,23
 44 139 44 139 87 174.5 c 128,-1,24
 130 210 130 210 187 210 c 0,13,14
EndSplineSet
Colour: ffffff
EndChar

StartChar: quotedbl
Encoding: 2 34 1
Width: 523
VWidth: 0
Flags: MW
LayerCount: 3
Back
SplineSet
50 1302 m 1,0,-1
 233 1286 l 1,1,-1
 197 903 l 1,2,-1
 104 892 l 1,3,-1
 50 1302 l 1,0,-1
258 1302 m 1,4,-1
 442 1286 l 1,5,-1
 406 903 l 1,6,-1
 311 892 l 1,7,-1
 258 1302 l 1,4,-1
EndSplineSet
Fore
SplineSet
83 1303 m 1,0,-1
 263 1286 l 1,1,-1
 167 903 l 1,2,-1
 71 892 l 1,3,-1
 83 1303 l 1,0,-1
291 1303 m 1,4,-1
 471 1286 l 1,5,-1
 375 903 l 1,6,-1
 280 892 l 1,7,-1
 291 1303 l 1,4,-1
EndSplineSet
Colour: ffffff
EndChar

StartChar: numbersign
Encoding: 3 35 2
Width: 1099
VWidth: 0
Flags: MW
LayerCount: 3
Back
SplineSet
182 -26 m 9,0,-1
 359 1149 l 1,1,-1
 475 1159 l 1,2,-1
 299 -19 l 1,3,-1
 182 -26 l 9,0,-1
49 711 m 17,4,-1
 83 836 l 1,5,-1
 992 836 l 1,6,-1
 961 711 l 1,7,-1
 49 711 l 17,4,-1
-22 326 m 1,8,-1
 11 451 l 1,9,-1
 917 451 l 1,10,-1
 886 326 l 1,11,-1
 -22 326 l 1,8,-1
487 -26 m 9,12,-1
 663 1149 l 1,13,-1
 781 1158 l 1,14,-1
 604 -19 l 1,15,-1
 487 -26 l 9,12,-1
EndSplineSet
Fore
SplineSet
42 326 m 1,0,-1
 75 451 l 1,1,-1
 318 451 l 1,2,-1
 357 711 l 1,3,-1
 113 711 l 1,4,-1
 147 836 l 1,5,-1
 376 836 l 1,6,-1
 423 1149 l 1,7,-1
 539 1159 l 1,8,-1
 491 836 l 1,9,-1
 680 836 l 1,10,-1
 727 1149 l 1,11,-1
 845 1158 l 1,12,-1
 797 836 l 1,13,-1
 1056 836 l 1,14,-1
 1025 711 l 1,15,-1
 778 711 l 1,16,-1
 739 451 l 1,17,-1
 981 451 l 1,18,-1
 950 326 l 1,19,-1
 720 326 l 1,20,-1
 668 -19 l 1,21,-1
 551 -26 l 1,22,-1
 604 326 l 1,23,-1
 415 326 l 1,24,-1
 363 -19 l 1,25,-1
 246 -26 l 1,26,-1
 299 326 l 1,27,-1
 42 326 l 1,0,-1
622 451 m 1,28,-1
 661 711 l 1,29,-1
 472 711 l 1,30,-1
 433 451 l 1,31,-1
 622 451 l 1,28,-1
EndSplineSet
Colour: ffffff
EndChar

StartChar: dollar
Encoding: 4 36 3
Width: 938
VWidth: 0
Flags: MW
LayerCount: 3
Back
SplineSet
66 122 m 1,0,-1
 79 389 l 1,1,-1
 181 375 l 1,2,-1
 220 187 l 1,3,4
 249 141 249 141 304.5 109 c 0
 360 77 360 77 426 77 c 0,5,6
 483 77 483 77 534.5 97.5 c 0
 586 118 586 118 624.5 167.5 c 0
 663 217 663 217 663 287 c 0,7,8
 663 339 663 339 631.5 383.5 c 0
 600 428 600 428 549.5 461 c 0
 499 494 499 494 437.5 526 c 0
 376 558 376 558 315 594.5 c 0
 254 631 254 631 203.5 673.5 c 0
 153 716 153 716 121.5 778.5 c 0
 90 841 90 841 90 916 c 0,9,10
 90 1025 90 1025 147 1107 c 0
 204 1189 204 1189 291 1229 c 0
 378 1269 378 1269 479 1269 c 0,11,12
 641 1269 641 1269 761 1169 c 1,13,14
 739 887 l 1,15,-1
 640 899 l 1,16,-1
 615 1090 l 1,17,18
 599 1122 599 1122 549.5 1153.5 c 0
 500 1185 500 1185 445 1185 c 0,19,20
 365 1185 365 1185 314 1137 c 0
 263 1089 263 1089 263 995 c 0,21,22
 263 937 263 937 295 889.5 c 0
 327 842 327 842 378.5 807.5 c 0
 430 773 430 773 492.5 741 c 0
 555 709 555 709 617.5 673 c 0
 680 637 680 637 731.5 595.5 c 0
 783 554 783 554 815 492 c 0
 847 430 847 430 847 354 c 0,23,24
 847 243 847 243 783 155 c 0
 719 67 719 67 618 21.5 c 0
 517 -24 517 -24 402 -24 c 0,25,26
 298 -24 298 -24 207.5 17.5 c 0
 117 59 117 59 66 122 c 1,0,-1
367 -179 m 1,27,-1
 379 9 l 1,28,-1
 416 54 l 1,29,-1
 416 631 l 1,30,-1
 421 700 l 1,31,-1
 421 1207 l 1,32,-1
 385 1242 l 1,33,-1
 370 1394 l 1,34,-1
 535 1409 l 1,35,-1
 518 1242 l 1,36,-1
 483 1202 l 1,37,-1
 483 666 l 1,38,-1
 486 582 l 1,39,-1
 486 54 l 1,40,-1
 527 20 l 1,41,-1
 540 -164 l 1,42,-1
 367 -179 l 1,27,-1
EndSplineSet
Fore
SplineSet
832 887 m 1,0,-1
 735 898 l 1,1,-1
 738 1090 l 1,2,3
 732 1112 732 1112 697 1142 c 128,-1,4
 662 1172 662 1172 616 1181 c 1,5,-1
 548 751 l 1,6,7
 563 742 563 742 595 723 c 128,-1,8
 627 704 627 704 644.5 693.5 c 128,-1,9
 662 683 662 683 691 664 c 128,-1,10
 720 645 720 645 737 631 c 128,-1,11
 754 617 754 617 776.5 596 c 128,-1,12
 799 575 799 575 812 555 c 128,-1,13
 825 535 825 535 838 510.5 c 128,-1,14
 851 486 851 486 856.5 458 c 128,-1,15
 862 430 862 430 862 400 c 0,16,17
 862 323 862 323 830.5 253 c 128,-1,18
 799 183 799 183 745 131 c 128,-1,19
 691 79 691 79 621 42 c 128,-1,20
 551 5 551 5 473 -12 c 1,21,-1
 460 -164 l 1,22,-1
 285 -179 l 1,23,-1
 319 -24 l 1,24,25
 223 -17 223 -17 145.5 24 c 128,-1,26
 68 65 68 65 39 122 c 1,27,-1
 96 390 l 1,28,-1
 195 375 l 1,29,-1
 201 187 l 1,30,31
 222 140 222 140 266.5 111 c 128,-1,32
 311 82 311 82 375 78 c 1,33,-1
 448 541 l 1,34,35
 414 561 414 561 393 574.5 c 128,-1,36
 372 588 372 588 341 610 c 128,-1,37
 310 632 310 632 291 650 c 128,-1,38
 272 668 272 668 250 694 c 128,-1,39
 228 720 228 720 215.5 745.5 c 128,-1,40
 203 771 203 771 194.5 803 c 128,-1,41
 186 835 186 835 186 870 c 0,42,43
 186 949 186 949 214 1017 c 128,-1,44
 242 1085 242 1085 290 1133 c 128,-1,45
 338 1181 338 1181 399 1213 c 128,-1,46
 460 1245 460 1245 529 1260 c 1,47,-1
 537 1394 l 1,48,-1
 704 1409 l 1,49,-1
 668 1269 l 1,50,51
 823 1258 823 1258 898 1169 c 1,52,-1
 832 887 l 1,0,-1
511 502 m 1,53,-1
 446 83 l 1,54,55
 487 90 487 90 524.5 107.5 c 128,-1,56
 562 125 562 125 594.5 152 c 128,-1,57
 627 179 627 179 646 220.5 c 128,-1,58
 665 262 665 262 665 312 c 0,59,60
 665 368 665 368 625.5 411.5 c 128,-1,61
 586 455 586 455 511 502 c 1,53,-1
492 787 m 1,62,-1
 554 1182 l 1,63,64
 474 1173 474 1173 422.5 1118 c 128,-1,65
 371 1063 371 1063 371 968 c 0,66,67
 371 913 371 913 402.5 870 c 128,-1,68
 434 827 434 827 492 787 c 1,62,-1
EndSplineSet
Colour: ffffff
EndChar

StartChar: percent
Encoding: 5 37 4
Width: 1241
VWidth: 0
Flags: MW
LayerCount: 3
Back
SplineSet
29 898 m 0,0,1
 29 1020 29 1020 117 1115.5 c 0
 205 1211 205 1211 301 1211 c 0,2,3
 321 1211 321 1211 330 1208 c 1,4,-1
 340 1142 l 1,5,6
 310 1154 310 1154 295 1154 c 0,7,8
 258 1154 258 1154 234 1112 c 0
 210 1070 210 1070 202 1016 c 0
 194 962 194 962 194 898 c 0,9,10
 194 798 194 798 220 723.5 c 0
 246 649 246 649 297 649 c 0,11,12
 402 649 402 649 402 898 c 0,13,14
 402 1082 402 1082 364 1198 c 1,15,-1
 921 1210 l 1,16,-1
 931 1121 l 1,17,-1
 491 1137 l 1,18,19
 525 1102 525 1102 545.5 1024 c 0
 566 946 566 946 566 898 c 0,20,21
 566 775 566 775 478 679 c 0
 390 583 390 583 297 583 c 0,22,23
 195 583 195 583 112 672 c 0
 29 761 29 761 29 898 c 0,0,1
123 -10 m 1,24,-1
 530 588 l 1,25,-1
 921 1210 l 1,26,-1
 1087 1207 l 1,27,-1
 1085 1178 l 1,28,-1
 684 591 l 1,29,-1
 313 -32 l 1,30,-1
 123 -10 l 1,24,-1
647 277 m 0,31,32
 647 399 647 399 734 494.5 c 0
 821 590 821 590 917 590 c 0,33,34
 1025 590 1025 590 1103 498.5 c 0
 1181 407 1181 407 1181 274 c 0,35,36
 1181 152 1181 152 1096.5 58 c 0
 1012 -36 1012 -36 920 -36 c 0,37,38
 818 -36 818 -36 732.5 53 c 0
 647 142 647 142 647 277 c 0,31,32
812 277 m 0,39,40
 812 180 812 180 840 106 c 0
 868 32 868 32 920 32 c 0,41,42
 1021 32 1021 32 1021 279 c 0,43,44
 1021 344 1021 344 1011.5 399 c 0
 1002 454 1002 454 977.5 494 c 0
 953 534 953 534 917 534 c 0,45,46
 887 534 887 534 865 510.5 c 0
 843 487 843 487 832 447.5 c 0
 821 408 821 408 816.5 366 c 0
 812 324 812 324 812 277 c 0,39,40
EndSplineSet
Fore
SplineSet
769 187 m 0,0,1
 769 119 769 119 788 75.5 c 128,-1,2
 807 32 807 32 846 32 c 0,3,4
 883 32 883 32 912.5 66.5 c 128,-1,5
 942 101 942 101 959.5 155.5 c 128,-1,6
 977 210 977 210 986 270 c 128,-1,7
 995 330 995 330 995 386 c 0,8,9
 995 534 995 534 922 534 c 0,10,11
 886 534 886 534 856 499.5 c 128,-1,12
 826 465 826 465 807.5 411.5 c 128,-1,13
 789 358 789 358 779 299 c 128,-1,14
 769 240 769 240 769 187 c 0,0,1
931 590 m 0,15,16
 1026 590 1026 590 1088 517.5 c 128,-1,17
 1150 445 1150 445 1150 334 c 0,18,19
 1150 261 1150 261 1119.5 191 c 128,-1,20
 1089 121 1089 121 1042 72.5 c 128,-1,21
 995 24 995 24 939.5 -6 c 128,-1,22
 884 -36 884 -36 835 -36 c 0,23,24
 745 -36 745 -36 676 35.5 c 128,-1,25
 607 107 607 107 607 221 c 0,26,27
 607 293 607 293 638.5 363 c 128,-1,28
 670 433 670 433 718 481.5 c 128,-1,29
 766 530 766 530 823.5 560 c 128,-1,30
 881 590 881 590 931 590 c 0,15,16
42 -10 m 1,31,-1
 544 588 l 1,32,-1
 965 1123 l 1,33,-1
 592 1137 l 1,34,35
 632 1088 632 1088 632 953 c 0,36,37
 632 880 632 880 600 809.5 c 128,-1,38
 568 739 568 739 520 690.5 c 128,-1,39
 472 642 472 642 415.5 612.5 c 128,-1,40
 359 583 359 583 310 583 c 0,41,42
 220 583 220 583 153.5 654.5 c 128,-1,43
 87 726 87 726 87 840 c 0,44,45
 87 913 87 913 118.5 983 c 128,-1,46
 150 1053 150 1053 198.5 1102 c 128,-1,47
 247 1151 247 1151 304.5 1181 c 128,-1,48
 362 1211 362 1211 413 1211 c 0,49,50
 433 1211 433 1211 442 1208 c 1,51,-1
 441 1142 l 1,52,53
 413 1154 413 1154 398 1154 c 0,54,55
 363 1154 363 1154 333.5 1118 c 128,-1,56
 304 1082 304 1082 286 1026.5 c 128,-1,57
 268 971 268 971 258 910.5 c 128,-1,58
 248 850 248 850 248 797 c 0,59,60
 248 649 248 649 320 649 c 0,61,62
 364 649 364 649 398 696.5 c 128,-1,63
 432 744 432 744 449 817 c 128,-1,64
 466 890 466 890 474 960.5 c 128,-1,65
 482 1031 482 1031 482 1094 c 0,66,67
 482 1155 482 1155 474 1198 c 1,68,-1
 1033 1210 l 1,69,-1
 1199 1207 l 1,70,-1
 1192 1178 l 1,71,-1
 698 591 l 1,72,-1
 229 -32 l 1,73,-1
 42 -10 l 1,31,-1
EndSplineSet
Colour: ffffff
EndChar

StartChar: ampersand
Encoding: 6 38 5
Width: 1454
VWidth: 0
Flags: MW
LayerCount: 3
Back
SplineSet
33 313 m 0,0,1
 33 544 33 544 310 701 c 1,2,3
 256 746 256 746 217 820 c 0
 178 894 178 894 178 974 c 0,4,5
 178 1090 178 1090 275.5 1180.5 c 0
 373 1271 373 1271 494 1271 c 0,6,7
 634 1271 634 1271 710 1207 c 0
 786 1143 786 1143 786 1011 c 0,8,9
 786 856 786 856 556 716 c 1,10,-1
 556 705 l 1,11,-1
 787 449 l 1,12,-1
 964 719 l 1,13,-1
 813 761 l 1,14,-1
 823 837 l 1,15,-1
 1255 837 l 1,16,-1
 1245 761 l 1,17,-1
 1075 722 l 1,18,-1
 859 380 l 1,19,20
 1113 106 1113 106 1202 79 c 1,21,-1
 1235 70 l 1,22,-1
 1220 0 l 1,23,24
 1166 -19 1166 -19 1100 -19 c 0,25,26
 1061 -19 1061 -19 1023 -6 c 0
 985 7 985 7 951 32.5 c 0
 917 58 917 58 895 78 c 0
 873 98 873 98 844 128 c 2,27,-1
 756 218 l 1,28,29
 717 161 717 161 684 123 c 0
 651 85 651 85 605.5 50 c 0
 560 15 560 15 504 -2 c 0
 448 -19 448 -19 380 -19 c 0,30,31
 225 -19 225 -19 129 72 c 0
 33 163 33 163 33 313 c 0,0,1
221 393 m 0,32,33
 221 270 221 270 276.5 187.5 c 0
 332 105 332 105 439 105 c 0,34,35
 519 105 519 105 584.5 159 c 0
 650 213 650 213 685 282 c 1,36,-1
 372 629 l 1,37,-1
 355 632 l 1,38,39
 297 592 297 592 259 531 c 0
 221 470 221 470 221 393 c 0,32,33
338 1024 m 0,40,41
 338 956 338 956 385 886 c 0
 432 816 432 816 488 773 c 1,42,43
 533 803 533 803 557.5 827 c 0
 582 851 582 851 599 891.5 c 0
 616 932 616 932 616 988 c 0,44,45
 616 1078 616 1078 582 1133 c 0
 548 1188 548 1188 474 1188 c 0,46,47
 413 1188 413 1188 375.5 1139 c 0
 338 1090 338 1090 338 1024 c 0,40,41
EndSplineSet
Fore
SplineSet
594 773 m 1,0,1
 686 829 686 829 727 884 c 128,-1,2
 768 939 768 939 768 1029 c 0,3,4
 768 1098 768 1098 731.5 1142.5 c 128,-1,5
 695 1187 695 1187 628 1187 c 0,6,7
 560 1187 560 1187 512.5 1129.5 c 128,-1,8
 465 1072 465 1072 465 1002 c 0,9,10
 465 943 465 943 504.5 881.5 c 128,-1,11
 544 820 544 820 594 773 c 1,0,1
453 629 m 1,12,-1
 438 631 l 1,13,14
 246 512 246 512 246 338 c 0,15,16
 246 240 246 240 295.5 173 c 128,-1,17
 345 106 345 106 438 106 c 0,18,19
 490 106 490 106 544.5 127.5 c 128,-1,20
 599 149 599 149 639.5 180.5 c 128,-1,21
 680 212 680 212 707 238 c 128,-1,22
 734 264 734 264 746 282 c 1,23,-1
 453 629 l 1,12,-1
1213 723 m 1,24,-1
 947 353 l 1,25,26
 1137 108 1137 108 1231 79 c 2,27,-1
 1263 69 l 1,28,-1
 1236 0 l 1,29,30
 1176 -20 1176 -20 1112 -20 c 0,31,32
 1036 -20 1036 -20 965 42 c 128,-1,33
 894 104 894 104 807 218 c 1,34,35
 768 173 768 173 732.5 140 c 128,-1,36
 697 107 697 107 639.5 66 c 128,-1,37
 582 25 582 25 510 2.5 c 128,-1,38
 438 -20 438 -20 359 -20 c 0,39,40
 214 -20 214 -20 129.5 60.5 c 128,-1,41
 45 141 45 141 45 262 c 0,42,43
 45 328 45 328 69 389.5 c 128,-1,44
 93 451 93 451 128 495.5 c 128,-1,45
 163 540 163 540 214 582 c 128,-1,46
 265 624 265 624 307 650 c 128,-1,47
 349 676 349 676 400 702 c 1,48,49
 359 742 359 742 327 804 c 128,-1,50
 295 866 295 866 295 935 c 0,51,52
 295 1021 295 1021 349 1100 c 128,-1,53
 403 1179 403 1179 488 1225.5 c 128,-1,54
 573 1272 573 1272 661 1272 c 0,55,56
 739 1272 739 1272 799.5 1253.5 c 128,-1,57
 860 1235 860 1235 901.5 1186 c 128,-1,58
 943 1137 943 1137 943 1061 c 0,59,60
 943 1011 943 1011 924.5 965.5 c 128,-1,61
 906 920 906 920 880 887 c 128,-1,62
 854 854 854 854 811.5 820 c 128,-1,63
 769 786 769 786 735.5 765 c 128,-1,64
 702 744 702 744 653 717 c 1,65,-1
 651 705 l 1,66,-1
 888 423 l 1,67,-1
 1102 720 l 1,68,-1
 941 761 l 1,69,-1
 962 837 l 1,70,-1
 1411 837 l 1,71,-1
 1390 761 l 1,72,-1
 1213 723 l 1,24,-1
EndSplineSet
Colour: ffffff
EndChar

StartChar: quotesingle
Encoding: 7 39 6
Width: 315
VWidth: 0
Flags: MW
LayerCount: 3
Back
SplineSet
50 1302 m 1,0,-1
 233 1286 l 1,1,-1
 197 903 l 1,2,-1
 104 892 l 1,3,-1
 50 1302 l 1,0,-1
EndSplineSet
Fore
SplineSet
83 1303 m 1,0,-1
 263 1286 l 1,1,-1
 167 903 l 1,2,-1
 71 892 l 1,3,-1
 83 1303 l 1,0,-1
EndSplineSet
Colour: ffffff
EndChar

StartChar: parenleft
Encoding: 8 40 7
Width: 611
VWidth: 0
Flags: MW
LayerCount: 3
Back
SplineSet
49 445 m 0,0,1
 49 553 49 553 65 652.5 c 0
 81 752 81 752 103.5 825 c 0
 126 898 126 898 161.5 967 c 0
 197 1036 197 1036 225 1078 c 0
 253 1120 253 1120 291 1162 c 0
 329 1204 329 1204 346 1219.5 c 0
 363 1235 363 1235 386 1255 c 1,2,-1
 436 1189 l 1,3,4
 405 1148 405 1148 380.5 1109.5 c 0
 356 1071 356 1071 325.5 1004 c 0
 295 937 295 937 275 864 c 0
 255 791 255 791 241 684 c 0
 227 577 227 577 227 455 c 0,5,6
 227 51 227 51 449 -317 c 1,7,-1
 381 -375 l 1,8,9
 360 -355 360 -355 346 -341 c 0
 332 -327 332 -327 294 -282 c 0
 256 -237 256 -237 228.5 -194 c 0
 201 -151 201 -151 165 -79.5 c 0
 129 -8 129 -8 105.5 66 c 0
 82 140 82 140 65.5 239.5 c 0
 49 339 49 339 49 445 c 0,0,1
EndSplineSet
Fore
SplineSet
347 -317 m 1,0,-1
 268 -375 l 1,1,2
 250 -355 250 -355 230.5 -329.5 c 128,-1,3
 211 -304 211 -304 176 -243 c 128,-1,4
 141 -182 141 -182 115.5 -115 c 128,-1,5
 90 -48 90 -48 70 53 c 128,-1,6
 50 154 50 154 50 261 c 0,7,8
 50 378 50 378 72.5 492 c 128,-1,9
 95 606 95 606 130.5 696.5 c 128,-1,10
 166 787 166 787 213.5 872 c 128,-1,11
 261 957 261 957 306.5 1017 c 128,-1,12
 352 1077 352 1077 400 1130 c 128,-1,13
 448 1183 448 1183 478 1210.5 c 128,-1,14
 508 1238 508 1238 531 1255 c 1,15,-1
 570 1189 l 1,16,17
 533 1150 533 1150 492 1091.5 c 128,-1,18
 451 1033 451 1033 403 941 c 128,-1,19
 355 849 355 849 317.5 747 c 128,-1,20
 280 645 280 645 254.5 513 c 128,-1,21
 229 381 229 381 229 249 c 0,22,23
 229 147 229 147 243 49 c 128,-1,24
 257 -49 257 -49 279 -124.5 c 128,-1,25
 301 -200 301 -200 316.5 -241.5 c 128,-1,26
 332 -283 332 -283 347 -317 c 1,0,-1
EndSplineSet
Colour: ffffff
EndChar

StartChar: parenright
Encoding: 9 41 8
Width: 634
VWidth: 0
Flags: MW
LayerCount: 3
Back
SplineSet
44 1189 m 1,0,-1
 93 1255 l 1,1,2
 116 1235 116 1235 133 1219.5 c 0
 150 1204 150 1204 188 1162 c 0
 226 1120 226 1120 254.5 1078 c 0
 283 1036 283 1036 318 967 c 0
 353 898 353 898 376 825 c 0
 399 752 399 752 415 652.5 c 0
 431 553 431 553 431 445 c 0,3,4
 431 339 431 339 414.5 239.5 c 0
 398 140 398 140 374.5 66 c 0
 351 -8 351 -8 315 -79.5 c 0
 279 -151 279 -151 251.5 -194 c 0
 224 -237 224 -237 186 -282 c 0
 148 -327 148 -327 134 -341 c 0
 120 -355 120 -355 99 -375 c 1,5,-1
 30 -317 l 1,6,7
 253 53 253 53 253 455 c 0,8,9
 253 577 253 577 239 684 c 0
 225 791 225 791 205 864 c 0
 185 937 185 937 154.5 1004 c 0
 124 1071 124 1071 99.5 1109.5 c 0
 75 1148 75 1148 44 1189 c 1,0,-1
EndSplineSet
Fore
SplineSet
40 -317 m 1,0,1
 129 -200 129 -200 172 -131 c 0,2,3
 409 252 409 252 409 702 c 0,4,5
 409 998 409 998 293 1189 c 1,6,-1
 352 1255 l 1,7,8
 373 1235 373 1235 395.5 1207.5 c 128,-1,9
 418 1180 418 1180 453 1121.5 c 128,-1,10
 488 1063 488 1063 514.5 997.5 c 128,-1,11
 541 932 541 932 560.5 833.5 c 128,-1,12
 580 735 580 735 580 629 c 0,13,14
 580 503 580 503 556 382 c 128,-1,15
 532 261 532 261 498.5 171 c 128,-1,16
 465 81 465 81 413 -7 c 128,-1,17
 361 -95 361 -95 320.5 -149 c 128,-1,18
 280 -203 280 -203 225.5 -258.5 c 128,-1,19
 171 -314 171 -314 150 -332.5 c 128,-1,20
 129 -351 129 -351 100 -375 c 1,21,-1
 40 -317 l 1,0,1
EndSplineSet
Colour: ffffff
EndChar

StartChar: asterisk
Encoding: 10 42 9
Width: 807
VWidth: 0
Flags: MW
LayerCount: 3
Back
SplineSet
328 1292 m 1,0,-1
 464 1279 l 1,1,-1
 438 988 l 1,2,-1
 727 1119 l 1,3,-1
 756 989 l 1,4,-1
 471 921 l 1,5,-1
 690 692 l 1,6,-1
 572 623 l 1,7,-1
 419 870 l 1,8,-1
 264 593 l 1,9,-1
 162 685 l 1,10,-1
 355 904 l 1,11,-1
 43 964 l 1,12,-1
 98 1091 l 1,13,-1
 365 977 l 1,14,-1
 328 1292 l 1,0,-1
EndSplineSet
Fore
SplineSet
333 1292 m 1,0,-1
 469 1279 l 1,1,-1
 443 988 l 1,2,-1
 732 1119 l 1,3,-1
 761 989 l 1,4,-1
 476 921 l 1,5,-1
 695 692 l 1,6,-1
 577 623 l 1,7,-1
 424 870 l 1,8,-1
 269 593 l 1,9,-1
 167 685 l 1,10,-1
 360 904 l 1,11,-1
 48 964 l 1,12,-1
 103 1091 l 1,13,-1
 370 977 l 1,14,-1
 333 1292 l 1,0,-1
EndSplineSet
Colour: ffffff
EndChar

StartChar: plus
Encoding: 11 43 10
Width: 653
VWidth: 0
Flags: MW
LayerCount: 3
Back
SplineSet
50 409 m 1,0,-1
 62 510 l 1,1,-1
 271 510 l 1,2,-1
 271 741 l 1,3,-1
 380 729 l 1,4,-1
 381 510 l 1,5,-1
 601 510 l 1,6,-1
 589 409 l 1,7,-1
 381 409 l 1,8,-1
 383 174 l 1,9,-1
 271 185 l 1,10,-1
 271 409 l 1,11,-1
 50 409 l 1,0,-1
EndSplineSet
Fore
SplineSet
50 409 m 1,0,-1
 62 510 l 1,1,-1
 271 510 l 1,2,-1
 271 741 l 1,3,-1
 380 729 l 1,4,-1
 381 510 l 1,5,-1
 601 510 l 1,6,-1
 589 409 l 1,7,-1
 381 409 l 1,8,-1
 383 174 l 1,9,-1
 271 185 l 1,10,-1
 271 409 l 1,11,-1
 50 409 l 1,0,-1
EndSplineSet
Colour: ffffff
EndChar

StartChar: comma
Encoding: 12 44 11
Width: 483
VWidth: 0
Flags: MW
LayerCount: 3
Back
SplineSet
54 -244 m 1,0,1
 146 -220 146 -220 191 -171.5 c 0
 236 -123 236 -123 236 -70 c 0,2,3
 236 -27 236 -27 203.5 4.5 c 0
 171 36 171 36 120 36 c 0,4,5
 110 36 110 36 90 34 c 1,6,7
 76 71 76 71 76 97 c 0,8,9
 76 152 76 152 115.5 185 c 0
 155 218 155 218 198 218 c 0,10,11
 226 218 226 218 255 206 c 0
 284 194 284 194 311 171 c 0
 338 148 338 148 355 106 c 0
 372 64 372 64 372 10 c 0,12,13
 372 -234 372 -234 77 -313 c 1,14,-1
 54 -244 l 1,0,1
EndSplineSet
Fore
SplineSet
51 -244 m 1,0,1
 147 -219 147 -219 204 -165.5 c 128,-1,2
 261 -112 261 -112 261 -61 c 128,-1,3
 261 -10 261 -10 224.5 17.5 c 128,-1,4
 188 45 188 45 130 30 c 1,5,6
 111 111 111 111 151.5 164.5 c 128,-1,7
 192 218 192 218 267 218 c 0,8,9
 330 218 330 218 374.5 175.5 c 128,-1,10
 419 133 419 133 419 30 c 0,11,12
 419 -10 419 -10 401 -55.5 c 128,-1,13
 383 -101 383 -101 344.5 -151 c 128,-1,14
 306 -201 306 -201 232.5 -245.5 c 128,-1,15
 159 -290 159 -290 62 -314 c 1,16,-1
 51 -244 l 1,0,1
EndSplineSet
Colour: ffffff
EndChar

StartChar: hyphen
Encoding: 13 45 12
Width: 558
VWidth: 0
Flags: MW
LayerCount: 3
Back
SplineSet
81 398 m 1,0,-1
 92 498 l 1,1,-1
 500 517 l 1,2,-1
 489 415 l 1,3,-1
 81 398 l 1,0,-1
EndSplineSet
Fore
SplineSet
87 499 m 1,0,-1
 497 517 l 1,1,-1
 470 416 l 1,2,-1
 59 398 l 1,3,-1
 87 499 l 1,0,-1
EndSplineSet
Colour: ffffff
EndChar

StartChar: period
Encoding: 14 46 13
Width: 364
VWidth: 0
Flags: MW
LayerCount: 3
Back
SplineSet
73 92 m 0,0,1
 73 140 73 140 108 172.5 c 0
 143 205 143 205 191 205 c 0,2,3
 241 205 241 205 277 171.5 c 0
 313 138 313 138 313 90 c 0,4,5
 313 40 313 40 277 4.5 c 0
 241 -31 241 -31 191 -31 c 0,6,7
 142 -31 142 -31 107.5 5 c 0
 73 41 73 41 73 92 c 0,0,1
EndSplineSet
Fore
SplineSet
200 215 m 0,0,1
 245 215 245 215 272.5 182.5 c 128,-1,2
 300 150 300 150 300 107 c 0,3,4
 300 45 300 45 260.5 6 c 128,-1,5
 221 -33 221 -33 163 -33 c 0,6,7
 124 -33 124 -33 90.5 1 c 128,-1,8
 57 35 57 35 57 74 c 0,9,10
 57 133 57 133 99 174 c 128,-1,11
 141 215 141 215 200 215 c 0,0,1
EndSplineSet
Colour: ffffff
EndChar

StartChar: colon
Encoding: 26 58 14
Width: 428
VWidth: 0
Flags: MW
LayerCount: 3
Back
SplineSet
99 119 m 0,0,1
 99 163 99 163 132.5 193.5 c 0
 166 224 166 224 212 224 c 0,2,3
 258 224 258 224 291.5 192.5 c 0
 325 161 325 161 325 117 c 0,4,5
 325 69 325 69 291.5 35 c 0
 258 1 258 1 212 1 c 0,6,7
 166 1 166 1 132.5 36 c 0
 99 71 99 71 99 119 c 0,0,1
99 747 m 0,8,9
 99 792 99 792 132.5 822.5 c 0
 166 853 166 853 212 853 c 0,10,11
 258 853 258 853 291.5 821 c 0
 325 789 325 789 325 744 c 0,12,13
 325 696 325 696 291.5 662.5 c 0
 258 629 258 629 212 629 c 0,14,15
 166 629 166 629 132.5 664 c 0
 99 699 99 699 99 747 c 0,8,9
EndSplineSet
Fore
SplineSet
182 225 m 0,0,1
 223 225 223 225 250.5 198.5 c 128,-1,2
 278 172 278 172 278 134 c 0,3,4
 278 80 278 80 236.5 41 c 128,-1,5
 195 2 195 2 145 2 c 0,6,7
 103 2 103 2 76.5 30 c 128,-1,8
 50 58 50 58 50 100 c 0,9,10
 50 152 50 152 90.5 188.5 c 128,-1,11
 131 225 131 225 182 225 c 0,0,1
281 852 m 0,12,13
 322 852 322 852 349.5 826.5 c 128,-1,14
 377 801 377 801 377 762 c 0,15,16
 377 707 377 707 336 668 c 128,-1,17
 295 629 295 629 245 629 c 0,18,19
 203 629 203 629 177 657 c 128,-1,20
 151 685 151 685 151 727 c 0,21,22
 151 781 151 781 190.5 816.5 c 128,-1,23
 230 852 230 852 281 852 c 0,12,13
EndSplineSet
Colour: ffffff
EndChar

StartChar: semicolon
Encoding: 27 59 15
Width: 488
VWidth: 0
Flags: MW
LayerCount: 3
Back
SplineSet
77 -230 m 1,0,1
 163 -207 163 -207 204.5 -163.5 c 0
 246 -120 246 -120 246 -70 c 0,2,3
 246 -29 246 -29 216 1 c 0
 186 31 186 31 138 31 c 0,4,5
 137 31 137 31 110 28 c 1,6,7
 96 61 96 61 96 87 c 0,8,9
 96 138 96 138 132.5 168.5 c 0
 169 199 169 199 210 199 c 0,10,11
 268 199 268 199 320 149.5 c 0
 372 100 372 100 372 6 c 0,12,13
 372 -223 372 -223 98 -295 c 1,14,-1
 77 -230 l 1,0,1
126 744 m 0,15,16
 126 790 126 790 159.5 821.5 c 0
 193 853 193 853 240 853 c 0,17,18
 288 853 288 853 322 821 c 0
 356 789 356 789 356 743 c 0,19,20
 356 694 356 694 322 660 c 0
 288 626 288 626 240 626 c 0,21,22
 192 626 192 626 159 660.5 c 0
 126 695 126 695 126 744 c 0,15,16
EndSplineSet
Fore
SplineSet
342 852 m 0,0,1
 383 852 383 852 410 826.5 c 128,-1,2
 437 801 437 801 437 762 c 0,3,4
 437 707 437 707 396.5 668 c 128,-1,5
 356 629 356 629 306 629 c 0,6,7
 264 629 264 629 237.5 657 c 128,-1,8
 211 685 211 685 211 727 c 0,9,10
 211 781 211 781 251 816.5 c 128,-1,11
 291 852 291 852 342 852 c 0,0,1
45 -216 m 1,12,13
 132 -193 132 -193 183 -145.5 c 128,-1,14
 234 -98 234 -98 234 -52 c 128,-1,15
 234 -6 234 -6 201 18.5 c 128,-1,16
 168 43 168 43 116 30 c 1,17,18
 99 103 99 103 135 151 c 128,-1,19
 171 199 171 199 239 199 c 0,20,21
 296 199 296 199 336 161 c 128,-1,22
 376 123 376 123 376 30 c 0,23,24
 376 2 376 2 366.5 -29.5 c 128,-1,25
 357 -61 357 -61 333.5 -98 c 128,-1,26
 310 -135 310 -135 275 -168 c 128,-1,27
 240 -201 240 -201 183 -231 c 128,-1,28
 126 -261 126 -261 55 -279 c 1,29,-1
 45 -216 l 1,12,13
EndSplineSet
Colour: ffffff
EndChar

StartChar: slash
Encoding: 15 47 16
Width: 677
VWidth: 0
Flags: MW
LayerCount: 3
Back
SplineSet
439 1235 m 21,0,-1
 571 1244 l 1,1,-1
 106 -355 l 1,2,-1
 -23 -363 l 1,3,-1
 439 1235 l 21,0,-1
EndSplineSet
Fore
SplineSet
41 -363 m 1,0,-1
 503 1235 l 1,1,-1
 635 1244 l 1,2,-1
 169 -355 l 1,3,-1
 41 -363 l 1,0,-1
EndSplineSet
Colour: ffffff
EndChar

StartChar: equal
Encoding: 29 61 17
Width: 792
VWidth: 0
Flags: MW
LayerCount: 3
Back
SplineSet
92 319 m 1,0,-1
 102 424 l 1,1,-1
 717 424 l 1,2,-1
 706 319 l 1,3,-1
 92 319 l 1,0,-1
95 559 m 1,4,-1
 105 663 l 1,5,-1
 721 663 l 1,6,-1
 709 559 l 1,7,-1
 95 559 l 1,4,-1
EndSplineSet
Fore
SplineSet
63 559 m 1,0,-1
 73 663 l 1,1,-1
 729 663 l 1,2,-1
 717 559 l 1,3,-1
 63 559 l 1,0,-1
60 319 m 1,4,-1
 70 424 l 1,5,-1
 725 424 l 1,6,-1
 714 319 l 1,7,-1
 60 319 l 1,4,-1
EndSplineSet
Colour: ffffff
EndChar

StartChar: greater
Encoding: 30 62 18
Width: 789
VWidth: 0
Flags: MW
LayerCount: 3
Back
SplineSet
59 -13 m 1,0,-1
 519 434 l 1,1,-1
 79 900 l 1,2,-1
 135 973 l 1,3,-1
 755 472 l 1,4,-1
 756 415 l 1,5,-1
 122 -83 l 1,6,-1
 59 -13 l 1,0,-1
EndSplineSet
Fore
SplineSet
43 -13 m 1,0,-1
 503 434 l 1,1,-1
 63 900 l 1,2,-1
 119 973 l 1,3,-1
 739 472 l 1,4,-1
 740 415 l 1,5,-1
 106 -83 l 1,6,-1
 43 -13 l 1,0,-1
EndSplineSet
Colour: ffffff
EndChar

StartChar: question
Encoding: 31 63 19
Width: 648
VWidth: 0
Flags: MW
LayerCount: 3
Back
SplineSet
47 1152 m 0,0,1
 47 1203 47 1203 92.5 1245 c 0
 138 1287 138 1287 243 1287 c 0,2,3
 301 1287 301 1287 362 1255.5 c 0
 423 1224 423 1224 473 1169.5 c 0
 523 1115 523 1115 555 1033 c 0
 587 951 587 951 587 860 c 0,4,5
 587 812 587 812 571 774 c 0
 555 736 555 736 529.5 712 c 0
 504 688 504 688 473.5 669 c 0
 443 650 443 650 412.5 634 c 0
 382 618 382 618 356.5 601.5 c 0
 331 585 331 585 315 561.5 c 0
 299 538 299 538 299 508 c 0,6,7
 299 455 299 455 321 383 c 1,8,-1
 246 366 l 1,9,10
 219 405 219 405 194 468.5 c 0
 169 532 169 532 169 585 c 0,11,12
 169 630 169 630 186 664 c 0
 203 698 203 698 230 718 c 0
 257 738 257 738 289.5 753.5 c 0
 322 769 322 769 355 784.5 c 0
 388 800 388 800 415 818 c 0
 442 836 442 836 459 867 c 0
 476 898 476 898 476 939 c 0,13,14
 476 1004 476 1004 419 1058.5 c 0
 362 1113 362 1113 313 1113 c 0,15,16
 255 1113 255 1113 204 1094 c 0
 153 1075 153 1075 121 1041 c 1,17,18
 93 1052 93 1052 70 1083 c 0
 47 1114 47 1114 47 1152 c 0,0,1
159 92 m 0,19,20
 159 142 159 142 195.5 176 c 0
 232 210 232 210 282 210 c 0,21,22
 333 210 333 210 369.5 175 c 0
 406 140 406 140 406 90 c 0,23,24
 406 37 406 37 370 0.5 c 0
 334 -36 334 -36 282 -36 c 0,25,26
 230 -36 230 -36 194.5 1.5 c 0
 159 39 159 39 159 92 c 0,19,20
EndSplineSet
Fore
SplineSet
150 -36 m 0,0,1
 104 -36 104 -36 74 -5.5 c 128,-1,2
 44 25 44 25 44 70 c 0,3,4
 44 130 44 130 88 170 c 128,-1,5
 132 210 132 210 188 210 c 0,6,7
 235 210 235 210 265.5 181 c 128,-1,8
 296 152 296 152 296 108 c 0,9,10
 296 48 296 48 250.5 6 c 128,-1,11
 205 -36 205 -36 150 -36 c 0,0,1
321 1288 m 0,12,13
 431 1288 431 1288 517 1188.5 c 128,-1,14
 603 1089 603 1089 603 937 c 0,15,16
 603 861 603 861 583.5 807.5 c 128,-1,17
 564 754 564 754 533 727 c 128,-1,18
 502 700 502 700 464 681 c 128,-1,19
 426 662 426 662 388 647 c 128,-1,20
 350 632 350 632 319 611.5 c 128,-1,21
 288 591 288 591 268.5 552 c 128,-1,22
 249 513 249 513 249 454 c 0,23,24
 249 424 249 424 255 383 c 1,25,-1
 178 367 l 1,26,27
 132 459 132 459 132 548 c 0,28,29
 132 613 132 613 159.5 658.5 c 128,-1,30
 187 704 187 704 227.5 725 c 128,-1,31
 268 746 268 746 316 767 c 128,-1,32
 364 788 364 788 404.5 806.5 c 128,-1,33
 445 825 445 825 472.5 864 c 128,-1,34
 500 903 500 903 500 960 c 0,35,36
 500 1019 500 1019 454 1066 c 128,-1,37
 408 1113 408 1113 363 1113 c 0,38,39
 237 1113 237 1113 160 1042 c 1,40,41
 137 1052 137 1052 119.5 1078 c 128,-1,42
 102 1104 102 1104 102 1137 c 0,43,44
 102 1197 102 1197 156 1242.5 c 128,-1,45
 210 1288 210 1288 321 1288 c 0,12,13
EndSplineSet
Colour: ffffff
EndChar

StartChar: at
Encoding: 32 64 20
Width: 1362
VWidth: 0
Flags: MW
LayerCount: 3
Back
SplineSet
54 325 m 0,0,1
 54 523 54 523 146.5 687 c 0
 239 851 239 851 407.5 947.5 c 0
 576 1044 576 1044 787 1044 c 0,2,3
 927 1044 927 1044 1045 988.5 c 0
 1163 933 1163 933 1234.5 827.5 c 0
 1306 722 1306 722 1306 589 c 0,4,5
 1306 454 1306 454 1245.5 335.5 c 0
 1185 217 1185 217 1075 143.5 c 0
 965 70 965 70 832 70 c 0,6,7
 783 70 783 70 759.5 101.5 c 0
 736 133 736 133 738 187 c 1,8,-1
 728 187 l 1,9,10
 693 135 693 135 643 97 c 0
 593 59 593 59 541 59 c 0,11,12
 460 59 460 59 410 130 c 0
 360 201 360 201 360 326 c 0,13,14
 360 428 360 428 398.5 517.5 c 0
 437 607 437 607 496.5 665 c 0
 556 723 556 723 625 756 c 0
 694 789 694 789 758 789 c 0,15,16
 854 789 854 789 924 773 c 1,17,-1
 943 751 l 1,18,-1
 902 385 l 2,19,20
 901 372 901 372 897.5 347 c 0
 894 322 894 322 892 304.5 c 0
 890 287 890 287 888 264.5 c 0
 886 242 886 242 886.5 226.5 c 0
 887 211 887 211 889 196.5 c 0
 891 182 891 182 897.5 175 c 0
 904 168 904 168 914 168 c 0,21,22
 1025 168 1025 168 1099 280.5 c 0
 1173 393 1173 393 1173 549 c 0,23,24
 1173 739 1173 739 1053.5 847 c 0
 934 955 934 955 751 955 c 0,25,26
 631 955 631 955 528 905 c 0
 425 855 425 855 356 771 c 0
 287 687 287 687 248 578 c 0
 209 469 209 469 209 351 c 0,27,28
 209 127 209 127 346 -4 c 0
 483 -135 483 -135 727 -135 c 0,29,30
 828 -135 828 -135 931.5 -96 c 0
 1035 -57 1035 -57 1079 -19 c 1,31,-1
 1115 -83 l 1,32,33
 1111 -85 1111 -85 1069 -111 c 0
 1027 -137 1027 -137 1011.5 -145.5 c 0
 996 -154 996 -154 952 -174.5 c 0
 908 -195 908 -195 875.5 -203.5 c 0
 843 -212 843 -212 793 -220 c 0
 743 -228 743 -228 691 -228 c 0,34,35
 596 -228 596 -228 507.5 -209.5 c 0
 419 -191 419 -191 335.5 -148.5 c 0
 252 -106 252 -106 190.5 -43.5 c 0
 129 19 129 19 91.5 114 c 0
 54 209 54 209 54 325 c 0,0,1
516 368 m 0,36,37
 516 262 516 262 538 221.5 c 0
 560 181 560 181 601 181 c 0,38,39
 677 181 677 181 739 254 c 1,40,-1
 792 692 l 1,41,42
 740 703 740 703 704 703 c 0,43,44
 649 703 649 703 604.5 651 c 0
 560 599 560 599 538 523 c 0
 516 447 516 447 516 368 c 0,36,37
EndSplineSet
Fore
SplineSet
817 69 m 0,0,1
 771 69 771 69 745 100 c 128,-1,2
 719 131 719 131 726 187 c 1,3,-1
 718 187 l 1,4,5
 683 136 683 136 630 97.5 c 128,-1,6
 577 59 577 59 525 59 c 0,7,8
 443 59 443 59 398 121 c 128,-1,9
 353 183 353 183 353 307 c 0,10,11
 353 410 353 410 394 502.5 c 128,-1,12
 435 595 435 595 497.5 656 c 128,-1,13
 560 717 560 717 632 753 c 128,-1,14
 704 789 704 789 768 789 c 0,15,16
 860 789 860 789 931 773 c 1,17,-1
 935 771 l 1,18,-1
 953 751 l 1,19,-1
 898 385 l 2,20,21
 875 234 875 234 880 199 c 0,22,23
 884 168 884 168 903 168 c 0,24,25
 1015 168 1015 168 1095.5 285.5 c 128,-1,26
 1176 403 1176 403 1176 558 c 0,27,28
 1176 750 1176 750 1063 852.5 c 128,-1,29
 950 955 950 955 766 955 c 0,30,31
 607 955 607 955 476.5 866.5 c 128,-1,32
 346 778 346 778 275.5 637.5 c 128,-1,33
 205 497 205 497 205 340 c 0,34,35
 205 115 205 115 334 -10 c 128,-1,36
 463 -135 463 -135 705 -135 c 0,37,38
 799 -135 799 -135 899.5 -98.5 c 128,-1,39
 1000 -62 1000 -62 1050 -28 c 2,40,-1
 1062 -20 l 1,41,-1
 1095 -83 l 1,42,-1
 1086 -88 l 1,43,44
 1045 -115 1045 -115 1012.5 -133.5 c 128,-1,45
 980 -152 980 -152 924.5 -177 c 128,-1,46
 869 -202 869 -202 803 -215 c 128,-1,47
 737 -228 737 -228 665 -228 c 0,48,49
 569 -228 569 -228 483 -211 c 128,-1,50
 397 -194 397 -194 316.5 -154 c 128,-1,51
 236 -114 236 -114 177.5 -54 c 128,-1,52
 119 6 119 6 84 99.5 c 128,-1,53
 49 193 49 193 49 310 c 0,54,55
 49 458 49 458 107 593 c 128,-1,56
 165 728 165 728 265 827 c 128,-1,57
 365 926 365 926 506.5 985 c 128,-1,58
 648 1044 648 1044 806 1044 c 0,59,60
 947 1044 947 1044 1061 990.5 c 128,-1,61
 1175 937 1175 937 1243 834.5 c 128,-1,62
 1311 732 1311 732 1311 598 c 128,-1,63
 1311 464 1311 464 1245.5 342 c 128,-1,64
 1180 220 1180 220 1065 144.5 c 128,-1,65
 950 69 950 69 817 69 c 0,0,1
799 692 m 1,66,67
 751 704 751 704 712 704 c 0,68,69
 657 704 657 704 609.5 647 c 128,-1,70
 562 590 562 590 537 509 c 128,-1,71
 512 428 512 428 512 350 c 0,72,73
 512 277 512 277 521.5 239 c 128,-1,74
 531 201 531 201 546 190.5 c 128,-1,75
 561 180 561 180 589 180 c 0,76,77
 663 180 663 180 730 254 c 1,78,-1
 799 692 l 1,66,67
EndSplineSet
Colour: ffffff
EndChar

StartChar: A
Encoding: 33 65 21
Width: 1379
VWidth: 1691
Flags: MW
LayerCount: 3
Back
SplineSet
-37 0 m 1,0,-1
 -28 74 l 1,1,-1
 121 129 l 1,2,-1
 559 1237 l 1,3,-1
 710 1268 l 1,4,-1
 1100 124 l 1,5,-1
 1237 80 l 1,6,-1
 1228 0 l 1,7,-1
 713 0 l 1,8,-1
 725 74 l 1,9,-1
 896 129 l 1,10,-1
 787 432 l 1,11,-1
 368 432 l 1,12,-1
 256 124 l 1,13,-1
 442 80 l 1,14,-1
 431 0 l 1,15,-1
 -37 0 l 1,0,-1
406 534 m 1,16,-1
 758 534 l 1,17,-1
 592 1034 l 1,18,-1
 406 534 l 1,16,-1
EndSplineSet
Fore
SplineSet
570 533 m 1,0,-1
 922 533 l 1,1,-1
 836 1034 l 1,2,-1
 570 533 l 1,0,-1
984 1268 m 1,3,-1
 1203 124 l 1,4,-1
 1332 81 l 1,5,-1
 1310 0 l 1,6,-1
 795 0 l 1,7,-1
 818 74 l 1,8,-1
 1000 129 l 1,9,-1
 937 433 l 1,10,-1
 518 433 l 1,11,-1
 359 124 l 1,12,-1
 537 81 l 1,13,-1
 513 0 l 1,14,-1
 44 0 l 1,15,-1
 65 74 l 1,16,-1
 224 129 l 1,17,-1
 827 1237 l 1,18,-1
 984 1268 l 1,3,-1
EndSplineSet
Colour: ffffff
EndChar

StartChar: B
Encoding: 34 66 22
Width: 1219
VWidth: 1691
Flags: MW
LayerCount: 3
Back
SplineSet
50 0 m 1,0,-1
 61 74 l 1,1,-1
 228 121 l 1,2,-1
 228 1104 l 1,3,-1
 57 1134 l 1,4,-1
 67 1211 l 1,5,6
 385 1257 385 1257 559 1257 c 0,7,8
 671 1257 671 1257 757.5 1233 c 0
 844 1209 844 1209 894.5 1168 c 0
 945 1127 945 1127 970.5 1076.5 c 0
 996 1026 996 1026 996 967 c 0,9,10
 996 910 996 910 978.5 858.5 c 0
 961 807 961 807 912.5 756.5 c 0
 864 706 864 706 790 679 c 1,11,-1
 790 672 l 1,12,13
 934 664 934 664 1017 576 c 0
 1100 488 1100 488 1100 380 c 0,14,15
 1100 321 1100 321 1083.5 268 c 0
 1067 215 1067 215 1028 165 c 0
 989 115 989 115 929.5 79 c 0
 870 43 870 43 777.5 21.5 c 0
 685 0 685 0 568 0 c 2,16,-1
 50 0 l 1,0,-1
420 96 m 1,17,-1
 640 96 l 2,18,19
 764 96 764 96 834 169.5 c 0
 904 243 904 243 904 347 c 0,20,21
 904 449 904 449 835 527 c 0
 766 605 766 605 643 605 c 2,22,-1
 420 605 l 1,23,-1
 420 96 l 1,17,-1
420 688 m 1,24,-1
 678 688 l 1,25,26
 808 742 808 742 808 909 c 0,27,28
 808 959 808 959 793.5 1002.5 c 0
 779 1046 779 1046 746 1085.5 c 0
 713 1125 713 1125 650 1148 c 0
 587 1171 587 1171 500 1171 c 0,29,30
 467 1171 467 1171 420 1164 c 1,31,-1
 420 688 l 1,24,-1
EndSplineSet
Fore
SplineSet
618 1164 m 1,0,-1
 535 689 l 1,1,-1
 743 689 l 2,2,3
 845 689 845 689 905 758 c 128,-1,4
 965 827 965 827 965 946 c 0,5,6
 965 989 965 989 952 1026.5 c 128,-1,7
 939 1064 939 1064 910 1098 c 128,-1,8
 881 1132 881 1132 827 1151.5 c 128,-1,9
 773 1171 773 1171 699 1171 c 0,10,11
 657 1171 657 1171 618 1164 c 1,0,-1
902 680 m 1,12,-1
 900 672 l 1,13,14
 1028 665 1028 665 1098.5 587.5 c 128,-1,15
 1169 510 1169 510 1169 411 c 0,16,17
 1169 336 1169 336 1130 265 c 128,-1,18
 1091 194 1091 194 1015.5 134 c 128,-1,19
 940 74 940 74 813 37 c 128,-1,20
 686 0 686 0 527 0 c 2,21,-1
 43 0 l 1,22,-1
 66 74 l 1,23,-1
 243 121 l 1,24,-1
 415 1105 l 1,25,-1
 250 1135 l 1,26,-1
 273 1211 l 1,27,28
 599 1257 599 1257 773 1257 c 0,29,30
 874 1257 874 1257 951 1235 c 128,-1,31
 1028 1213 1028 1213 1073 1175 c 128,-1,32
 1118 1137 1118 1137 1140.5 1091 c 128,-1,33
 1163 1045 1163 1045 1163 993 c 0,34,35
 1163 902 1163 902 1100.5 814.5 c 128,-1,36
 1038 727 1038 727 902 680 c 1,12,-1
742 604 m 2,37,-1
 519 604 l 1,38,-1
 430 96 l 1,39,-1
 633 96 l 2,40,41
 716 96 716 96 782 120.5 c 128,-1,42
 848 145 848 145 887.5 186 c 128,-1,43
 927 227 927 227 947.5 276.5 c 128,-1,44
 968 326 968 326 968 380 c 0,45,46
 968 471 968 471 909.5 537.5 c 128,-1,47
 851 604 851 604 742 604 c 2,37,-1
EndSplineSet
Colour: ffffff
EndChar

StartChar: C
Encoding: 35 67 23
Width: 1190
VWidth: 1691
Flags: MW
LayerCount: 3
Back
SplineSet
61 589 m 0,0,1
 61 681 61 681 83.5 773.5 c 0
 106 866 106 866 156.5 956 c 0
 207 1046 207 1046 279.5 1115 c 0
 352 1184 352 1184 462 1226.5 c 0
 572 1269 572 1269 704 1269 c 0,2,3
 934 1269 934 1269 1066 1169 c 1,4,-1
 1035 837 l 1,5,-1
 947 850 l 1,6,-1
 905 1070 l 1,7,8
 824 1174 824 1174 647 1174 c 0,9,10
 487 1174 487 1174 381 1034 c 0
 275 894 275 894 275 658 c 0,11,12
 275 528 275 528 312.5 422 c 0
 350 316 350 316 413 249 c 0
 476 182 476 182 557 146.5 c 0
 638 111 638 111 728 111 c 0,13,14
 822 111 822 111 914.5 153.5 c 0
 1007 196 1007 196 1078 261 c 1,15,-1
 1113 185 l 1,16,17
 1045 102 1045 102 920 39 c 0
 795 -24 795 -24 651 -24 c 0,18,19
 534 -24 534 -24 429 16.5 c 0
 324 57 324 57 241.5 132 c 0
 159 207 159 207 110 325.5 c 0
 61 444 61 444 61 589 c 0,0,1
EndSplineSet
Fore
SplineSet
662 106 m 0,0,1
 761 106 761 106 847 134 c 128,-1,2
 933 162 933 162 1021 240 c 1,3,-1
 1064 185 l 1,4,5
 876 -25 876 -25 558 -25 c 0,6,7
 456 -25 456 -25 363.5 15.5 c 128,-1,8
 271 56 271 56 202.5 128 c 128,-1,9
 134 200 134 200 93.5 305.5 c 128,-1,10
 53 411 53 411 53 535 c 0,11,12
 53 634 53 634 82.5 735.5 c 128,-1,13
 112 837 112 837 174.5 933.5 c 128,-1,14
 237 1030 237 1030 325 1104.5 c 128,-1,15
 413 1179 413 1179 540 1224.5 c 128,-1,16
 667 1270 667 1270 814 1270 c 0,17,18
 1009 1270 1009 1270 1148 1149 c 1,19,-1
 1065 817 l 1,20,-1
 981 831 l 1,21,-1
 973 1050 l 1,22,23
 897 1174 897 1174 738 1174 c 0,24,25
 648 1174 648 1174 564.5 1132.5 c 128,-1,26
 481 1091 481 1091 417 1016 c 128,-1,27
 353 941 353 941 314.5 826 c 128,-1,28
 276 711 276 711 276 575 c 0,29,30
 276 463 276 463 306.5 372.5 c 128,-1,31
 337 282 337 282 390 224.5 c 128,-1,32
 443 167 443 167 512.5 136.5 c 128,-1,33
 582 106 582 106 662 106 c 0,0,1
EndSplineSet
Colour: ffffff
EndChar

StartChar: D
Encoding: 36 68 24
Width: 1462
VWidth: 1691
Flags: MW
LayerCount: 3
Back
SplineSet
47 0 m 1,0,-1
 61 74 l 1,1,-1
 233 129 l 1,2,-1
 233 1103 l 1,3,-1
 61 1133 l 1,4,-1
 70 1209 l 1,5,6
 381 1258 381 1258 583 1258 c 0,7,8
 746 1258 746 1258 873 1224 c 0
 1000 1190 1000 1190 1080 1134 c 0
 1160 1078 1160 1078 1211.5 998.5 c 0
 1263 919 1263 919 1283.5 834.5 c 0
 1304 750 1304 750 1304 653 c 0,9,10
 1304 549 1304 549 1274.5 453.5 c 0
 1245 358 1245 358 1182.5 275 c 0
 1120 192 1120 192 1031 131 c 0
 942 70 942 70 816.5 35 c 0
 691 0 691 0 541 0 c 2,11,-1
 47 0 l 1,0,-1
424 104 m 1,12,-1
 569 104 l 2,13,14
 698 104 698 104 800 143.5 c 0
 902 183 902 183 965 251.5 c 0
 1028 320 1028 320 1060.5 408 c 0
 1093 496 1093 496 1093 598 c 0,15,16
 1093 715 1093 715 1058.5 815 c 0
 1024 915 1024 915 958 991.5 c 0
 892 1068 892 1068 786 1111.5 c 0
 680 1155 680 1155 546 1155 c 0,17,18
 464 1155 464 1155 424 1151 c 1,19,-1
 424 104 l 1,12,-1
EndSplineSet
Fore
SplineSet
1416 758 m 0,0,1
 1416 614 1416 614 1352 478 c 128,-1,2
 1288 342 1288 342 1174.5 235.5 c 128,-1,3
 1061 129 1061 129 891 64.5 c 128,-1,4
 721 0 721 0 524 0 c 2,5,-1
 43 0 l 1,6,-1
 68 74 l 1,7,-1
 250 129 l 1,8,-1
 402 1103 l 1,9,-1
 235 1133 l 1,10,-1
 256 1209 l 1,11,12
 574 1258 574 1258 776 1258 c 0,13,14
 916 1258 916 1258 1027 1230.5 c 128,-1,15
 1138 1203 1138 1203 1209.5 1157 c 128,-1,16
 1281 1111 1281 1111 1328.5 1046 c 128,-1,17
 1376 981 1376 981 1396 910 c 128,-1,18
 1416 839 1416 839 1416 758 c 0,0,1
601 1149 m 1,19,-1
 436 104 l 1,20,-1
 583 104 l 2,21,22
 720 104 720 104 835 149 c 128,-1,23
 950 194 950 194 1027.5 271 c 128,-1,24
 1105 348 1105 348 1148 452 c 128,-1,25
 1191 556 1191 556 1191 674 c 0,26,27
 1191 814 1191 814 1141.5 920.5 c 128,-1,28
 1092 1027 1092 1027 984.5 1091.5 c 128,-1,29
 877 1156 877 1156 722 1156 c 0,30,31
 658 1156 658 1156 601 1149 c 1,19,-1
EndSplineSet
Colour: ffffff
EndChar

StartChar: E
Encoding: 37 69 25
Width: 1259
VWidth: 1691
Flags: MW
LayerCount: 3
Back
SplineSet
50 1168 m 1,0,-1
 61 1244 l 1,1,-1
 1056 1244 l 1,2,-1
 1025 924 l 1,3,-1
 938 937 l 1,4,-1
 897 1152 l 1,5,-1
 426 1152 l 1,6,-1
 426 676 l 1,7,-1
 716 676 l 1,8,-1
 758 796 l 1,9,-1
 853 810 l 1,10,-1
 819 421 l 1,11,-1
 734 408 l 1,12,-1
 700 583 l 1,13,-1
 426 583 l 1,14,-1
 426 96 l 1,15,-1
 921 96 l 1,16,-1
 1019 326 l 1,17,-1
 1102 313 l 1,18,-1
 1072 0 l 1,19,-1
 57 0 l 1,20,-1
 65 74 l 1,21,-1
 232 121 l 1,22,-1
 232 1126 l 1,23,-1
 50 1168 l 1,0,-1
EndSplineSet
Fore
SplineSet
242 1244 m 1,0,-1
 1217 1244 l 1,1,-1
 1148 925 l 1,2,-1
 1064 938 l 1,3,-1
 1044 1153 l 1,4,-1
 592 1153 l 1,5,-1
 519 677 l 1,6,-1
 810 677 l 1,7,-1
 861 796 l 1,8,-1
 957 809 l 1,9,-1
 874 421 l 1,10,-1
 787 408 l 1,11,-1
 780 583 l 1,12,-1
 504 583 l 1,13,-1
 427 96 l 1,14,-1
 934 96 l 1,15,-1
 1047 325 l 1,16,-1
 1130 314 l 1,17,-1
 1069 0 l 1,18,-1
 43 0 l 1,19,-1
 63 74 l 1,20,-1
 238 121 l 1,21,-1
 397 1126 l 1,22,-1
 220 1168 l 1,23,-1
 242 1244 l 1,0,-1
EndSplineSet
Colour: ffffff
EndChar

StartChar: F
Encoding: 38 70 26
Width: 1116
VWidth: 1691
Flags: MW
LayerCount: 3
Back
SplineSet
50 1168 m 1,0,-1
 61 1244 l 1,1,-1
 1054 1244 l 1,2,-1
 1013 922 l 1,3,-1
 925 936 l 1,4,-1
 891 1152 l 1,5,-1
 426 1152 l 1,6,-1
 426 670 l 1,7,-1
 713 670 l 1,8,-1
 755 790 l 1,9,-1
 845 804 l 1,10,-1
 818 412 l 1,11,-1
 730 398 l 1,12,-1
 700 578 l 1,13,-1
 426 578 l 1,14,-1
 423 122 l 1,15,-1
 661 83 l 1,16,-1
 648 0 l 1,17,-1
 57 0 l 1,18,-1
 65 74 l 1,19,-1
 232 121 l 1,20,-1
 232 1126 l 1,21,-1
 50 1168 l 1,0,-1
EndSplineSet
Fore
SplineSet
242 1244 m 1,0,-1
 1236 1244 l 1,1,-1
 1167 923 l 1,2,-1
 1081 936 l 1,3,-1
 1057 1153 l 1,4,-1
 592 1153 l 1,5,-1
 517 670 l 1,6,-1
 805 670 l 1,7,-1
 856 791 l 1,8,-1
 947 804 l 1,9,-1
 872 413 l 1,10,-1
 781 398 l 1,11,-1
 777 578 l 1,12,-1
 502 578 l 1,13,-1
 430 122 l 1,14,-1
 661 84 l 1,15,-1
 635 0 l 1,16,-1
 43 0 l 1,17,-1
 63 74 l 1,18,-1
 238 121 l 1,19,-1
 397 1126 l 1,20,-1
 220 1168 l 1,21,-1
 242 1244 l 1,0,-1
EndSplineSet
Colour: ffffff
EndChar

StartChar: G
Encoding: 39 71 27
Width: 1319
VWidth: 1691
Flags: MW
LayerCount: 3
Back
SplineSet
61 578 m 0,0,1
 61 703 61 703 97 813 c 0
 133 923 133 923 196 1004 c 0
 259 1085 259 1085 342.5 1143 c 0
 426 1201 426 1201 521.5 1230.5 c 0
 617 1260 617 1260 717 1260 c 0,2,3
 976 1260 976 1260 1139 1163 c 1,4,-1
 1115 841 l 1,5,-1
 1028 856 l 1,6,-1
 992 1047 l 1,7,8
 950 1089 950 1089 861.5 1125 c 0
 773 1161 773 1161 667 1161 c 0,9,10
 590 1161 590 1161 522 1131.5 c 0
 454 1102 454 1102 398 1042.5 c 0
 342 983 342 983 309 881 c 0
 276 779 276 779 276 647 c 0,11,12
 276 558 276 558 296.5 474 c 0
 317 390 317 390 359 318 c 0
 401 246 401 246 459.5 192 c 0
 518 138 518 138 598 107.5 c 0
 678 77 678 77 771 77 c 0,13,14
 870 77 870 77 943 119 c 1,15,-1
 943 434 l 1,16,-1
 707 472 l 1,17,-1
 719 555 l 1,18,-1
 1275 555 l 1,19,-1
 1263 480 l 1,20,-1
 1139 439 l 1,21,-1
 1139 79 l 1,22,23
 1042 21 1042 21 926.5 -5 c 0
 811 -31 811 -31 658 -31 c 0,24,25
 511 -31 511 -31 395.5 16 c 0
 280 63 280 63 208 146 c 0
 136 229 136 229 98.5 338.5 c 0
 61 448 61 448 61 578 c 0,0,1
EndSplineSet
Fore
SplineSet
1236 1163 m 1,0,-1
 1160 841 l 1,1,-1
 1074 855 l 1,2,-1
 1069 1047 l 1,3,4
 1038 1094 1038 1094 961 1127.5 c 128,-1,5
 884 1161 884 1161 759 1161 c 0,6,7
 667 1161 667 1161 585.5 1128.5 c 128,-1,8
 504 1096 504 1096 434 1028 c 128,-1,9
 364 960 364 960 322.5 839.5 c 128,-1,10
 281 719 281 719 281 559 c 0,11,12
 281 459 281 459 305.5 373 c 128,-1,13
 330 287 330 287 378.5 220 c 128,-1,14
 427 153 427 153 506 114.5 c 128,-1,15
 585 76 585 76 686 76 c 0,16,17
 820 76 820 76 876 122 c 1,18,-1
 924 434 l 1,19,-1
 694 472 l 1,20,-1
 719 555 l 1,21,-1
 1276 555 l 1,22,-1
 1252 481 l 1,23,-1
 1120 439 l 1,24,-1
 1066 88 l 1,25,26
 980 32 980 32 846 0.5 c 128,-1,27
 712 -31 712 -31 549 -31 c 0,28,29
 423 -31 423 -31 325.5 11 c 128,-1,30
 228 53 228 53 170 126 c 128,-1,31
 112 199 112 199 82.5 291 c 128,-1,32
 53 383 53 383 53 489 c 0,33,34
 53 608 53 608 84.5 716 c 128,-1,35
 116 824 116 824 171 907.5 c 128,-1,36
 226 991 226 991 300.5 1058.5 c 128,-1,37
 375 1126 375 1126 461 1169.5 c 128,-1,38
 547 1213 547 1213 639.5 1236.5 c 128,-1,39
 732 1260 732 1260 825 1260 c 0,40,41
 1102 1260 1102 1260 1236 1163 c 1,0,-1
EndSplineSet
Colour: ffffff
EndChar

StartChar: H
Encoding: 40 72 28
Width: 1650
VWidth: 1691
Flags: MW
LayerCount: 3
Back
SplineSet
50 1168 m 1,0,-1
 61 1244 l 1,1,-1
 605 1244 l 1,2,-1
 595 1168 l 1,3,-1
 427 1130 l 1,4,-1
 427 692 l 1,5,-1
 1054 692 l 1,6,-1
 1054 1126 l 1,7,-1
 871 1168 l 1,8,-1
 882 1244 l 1,9,-1
 1428 1244 l 1,10,-1
 1416 1168 l 1,11,-1
 1249 1130 l 1,12,-1
 1249 114 l 1,13,-1
 1431 80 l 1,14,-1
 1421 0 l 1,15,-1
 878 0 l 1,16,-1
 888 74 l 1,17,-1
 1054 121 l 1,18,-1
 1054 589 l 1,19,-1
 427 589 l 1,20,-1
 427 114 l 1,21,-1
 611 80 l 1,22,-1
 598 0 l 1,23,-1
 57 0 l 1,24,-1
 65 74 l 1,25,-1
 232 121 l 1,26,-1
 232 1126 l 1,27,-1
 50 1168 l 1,0,-1
EndSplineSet
Fore
SplineSet
585 0 m 1,0,-1
 43 0 l 1,1,-1
 63 74 l 1,2,-1
 238 121 l 1,3,-1
 397 1126 l 1,4,-1
 220 1168 l 1,5,-1
 242 1244 l 1,6,-1
 787 1244 l 1,7,-1
 765 1168 l 1,8,-1
 592 1130 l 1,9,-1
 522 692 l 1,10,-1
 1150 692 l 1,11,-1
 1219 1126 l 1,12,-1
 1041 1168 l 1,13,-1
 1064 1244 l 1,14,-1
 1609 1244 l 1,15,-1
 1586 1168 l 1,16,-1
 1414 1130 l 1,17,-1
 1254 114 l 1,18,-1
 1431 81 l 1,19,-1
 1407 0 l 1,20,-1
 864 0 l 1,21,-1
 887 74 l 1,22,-1
 1061 121 l 1,23,-1
 1135 590 l 1,24,-1
 506 590 l 1,25,-1
 431 114 l 1,26,-1
 611 81 l 1,27,-1
 585 0 l 1,0,-1
EndSplineSet
Colour: ffffff
EndChar

StartChar: I
Encoding: 41 73 29
Width: 828
VWidth: 1691
Flags: MW
LayerCount: 3
Back
SplineSet
50 1168 m 1,0,-1
 61 1244 l 1,1,-1
 605 1244 l 1,2,-1
 595 1168 l 1,3,-1
 426 1130 l 1,4,-1
 426 114 l 1,5,-1
 607 80 l 1,6,-1
 597 0 l 1,7,-1
 57 0 l 1,8,-1
 65 74 l 1,9,-1
 232 121 l 1,10,-1
 232 1126 l 1,11,-1
 50 1168 l 1,0,-1
EndSplineSet
Fore
SplineSet
583 0 m 1,0,-1
 43 0 l 1,1,-1
 63 74 l 1,2,-1
 238 121 l 1,3,-1
 397 1126 l 1,4,-1
 220 1168 l 1,5,-1
 242 1244 l 1,6,-1
 787 1244 l 1,7,-1
 765 1168 l 1,8,-1
 590 1130 l 1,9,-1
 430 114 l 1,10,-1
 607 81 l 1,11,-1
 583 0 l 1,0,-1
EndSplineSet
Colour: ffffff
EndChar

StartChar: J
Encoding: 42 74 30
Width: 927
VWidth: 1691
Flags: MW
LayerCount: 3
Back
SplineSet
-4 -237 m 1,0,1
 117 -122 117 -122 174.5 -20.5 c 0
 232 81 232 81 232 197 c 2,2,-1
 233 1126 l 1,3,-1
 52 1168 l 1,4,-1
 62 1244 l 1,5,-1
 607 1244 l 1,6,-1
 597 1168 l 1,7,-1
 427 1130 l 1,8,-1
 426 385 l 2,9,10
 426 281 426 281 418.5 203.5 c 0
 411 126 411 126 391.5 60.5 c 0
 372 -5 372 -5 346 -53 c 0
 320 -101 320 -101 274.5 -149 c 0
 229 -197 229 -197 178 -236 c 0
 127 -275 127 -275 50 -326 c 1,11,-1
 -4 -237 l 1,0,1
EndSplineSet
Fore
SplineSet
84 -325 m 1,0,1
 54 -284 54 -284 42 -238 c 1,2,3
 181 -123 181 -123 254.5 -21 c 128,-1,4
 328 81 328 81 346 197 c 2,5,-1
 495 1126 l 1,6,-1
 320 1168 l 1,7,-1
 340 1244 l 1,8,-1
 885 1244 l 1,9,-1
 865 1168 l 1,10,-1
 690 1130 l 1,11,-1
 562 318 l 2,12,13
 548 228 548 228 530 160.5 c 128,-1,14
 512 93 512 93 483 35 c 128,-1,15
 454 -23 454 -23 421.5 -66 c 128,-1,16
 389 -109 389 -109 335.5 -154 c 128,-1,17
 282 -199 282 -199 226 -236.5 c 128,-1,18
 170 -274 170 -274 84 -325 c 1,0,1
EndSplineSet
Colour: ffffff
EndChar

StartChar: K
Encoding: 43 75 31
Width: 1387
VWidth: 1691
Flags: MW
LayerCount: 3
Back
SplineSet
47 1168 m 1,0,-1
 61 1244 l 1,1,-1
 611 1244 l 1,2,-1
 601 1168 l 1,3,-1
 429 1121 l 1,4,-1
 429 124 l 1,5,-1
 618 80 l 1,6,-1
 607 0 l 1,7,-1
 54 0 l 1,8,-1
 64 74 l 1,9,-1
 236 129 l 1,10,-1
 236 1117 l 1,11,-1
 47 1168 l 1,0,-1
453 626 m 1,12,13
 476 649 476 649 529.5 709.5 c 0
 583 770 583 770 605 798 c 2,14,-1
 851 1121 l 1,15,-1
 696 1168 l 1,16,-1
 704 1244 l 1,17,-1
 1197 1244 l 1,18,-1
 1185 1168 l 1,19,-1
 1008 1121 l 1,20,-1
 635 653 l 1,21,-1
 862 385 l 2,22,23
 991 232 991 232 1057.5 171.5 c 0
 1124 111 1124 111 1213 83 c 1,24,-1
 1250 70 l 1,25,-1
 1240 1 l 1,26,27
 1177 -21 1177 -21 1109 -21 c 0,28,29
 994 -21 994 -21 899 52.5 c 0
 804 126 804 126 706 261 c 2,30,-1
 454 605 l 1,31,-1
 453 626 l 1,12,13
EndSplineSet
Fore
SplineSet
440 124 m 1,0,-1
 622 81 l 1,1,-1
 597 0 l 1,2,-1
 44 0 l 1,3,-1
 65 74 l 1,4,-1
 247 129 l 1,5,-1
 402 1118 l 1,6,-1
 220 1168 l 1,7,-1
 245 1244 l 1,8,-1
 795 1244 l 1,9,-1
 774 1168 l 1,10,-1
 595 1121 l 1,11,-1
 440 124 l 1,0,-1
747 261 m 1,12,-1
 612 509 l 1,13,14
 568 579 568 579 543 604 c 1,15,-1
 547 629 l 1,16,17
 617 678 617 678 675 737 c 1,18,-1
 1030 1121 l 1,19,-1
 874 1168 l 1,20,-1
 894 1244 l 1,21,-1
 1391 1244 l 1,22,-1
 1368 1168 l 1,23,-1
 1185 1121 l 1,24,-1
 731 644 l 1,25,-1
 914 378 l 2,26,27
 1010 238 1010 238 1074.5 175 c 128,-1,28
 1139 112 1139 112 1226 83 c 2,29,-1
 1261 71 l 1,30,-1
 1239 2 l 1,31,32
 1174 -21 1174 -21 1106 -21 c 0,33,34
 990 -21 990 -21 906 52.5 c 128,-1,35
 822 126 822 126 747 261 c 1,12,-1
EndSplineSet
Colour: ffffff
EndChar

StartChar: L
Encoding: 44 76 32
Width: 1149
VWidth: 1691
Flags: MW
LayerCount: 3
Back
SplineSet
58 0 m 5,0,-1
 67 74 l 1,1,-1
 233 121 l 1,2,-1
 233 1117 l 1,3,-1
 45 1168 l 1,4,-1
 58 1244 l 1,5,-1
 608 1244 l 1,6,-1
 598 1168 l 1,7,-1
 427 1121 l 1,8,-1
 427 96 l 1,9,-1
 869 96 l 1,10,-1
 1000 344 l 1,11,-1
 1085 331 l 1,12,-1
 1048 0 l 1,13,-1
 58 0 l 5,0,-1
EndSplineSet
Fore
SplineSet
788 1244 m 1,0,-1
 766 1168 l 1,1,-1
 588 1121 l 1,2,-1
 426 96 l 1,3,-1
 879 96 l 1,4,-1
 1017 344 l 1,5,-1
 1101 330 l 1,6,-1
 1042 0 l 1,7,-1
 43 0 l 1,8,-1
 63 74 l 1,9,-1
 238 121 l 1,10,-1
 395 1118 l 1,11,-1
 213 1168 l 1,12,-1
 238 1244 l 1,13,-1
 788 1244 l 1,0,-1
EndSplineSet
Colour: ffffff
EndChar

StartChar: M
Encoding: 45 77 33
Width: 1832
VWidth: 1691
Flags: MW
LayerCount: 3
Back
SplineSet
24 0 m 1,0,-1
 35 74 l 1,1,-1
 202 121 l 1,2,-1
 275 1126 l 1,3,-1
 92 1168 l 1,4,-1
 102 1244 l 1,5,-1
 505 1244 l 1,6,-1
 583 1050 l 1,7,-1
 845 313 l 1,8,-1
 1152 1083 l 1,9,-1
 1223 1244 l 1,10,-1
 1618 1244 l 1,11,-1
 1608 1168 l 1,12,-1
 1440 1130 l 1,13,-1
 1492 114 l 1,14,-1
 1674 80 l 1,15,-1
 1664 0 l 1,16,-1
 1128 0 l 1,17,-1
 1139 74 l 1,18,-1
 1305 121 l 1,19,-1
 1249 1004 l 1,20,-1
 868 50 l 1,21,-1
 740 31 l 1,22,-1
 397 967 l 1,23,-1
 334 114 l 1,24,-1
 517 80 l 1,25,-1
 504 0 l 1,26,-1
 24 0 l 1,0,-1
EndSplineSet
Fore
SplineSet
766 31 m 1,0,-1
 528 966 l 1,1,-1
 370 114 l 1,2,-1
 550 81 l 1,3,-1
 523 0 l 1,4,-1
 43 0 l 1,5,-1
 66 74 l 1,6,-1
 241 121 l 1,7,-1
 432 1126 l 1,8,-1
 254 1168 l 1,9,-1
 277 1244 l 1,10,-1
 670 1244 l 1,11,-1
 726 1050 l 1,12,-1
 901 310 l 1,13,-1
 1292 1083 l 1,14,-1
 1391 1244 l 1,15,-1
 1791 1244 l 1,16,-1
 1770 1168 l 1,17,-1
 1596 1130 l 1,18,-1
 1529 114 l 1,19,-1
 1706 81 l 1,20,-1
 1682 0 l 1,21,-1
 1147 0 l 1,22,-1
 1171 74 l 1,23,-1
 1344 121 l 1,24,-1
 1385 1004 l 1,25,-1
 893 51 l 1,26,-1
 766 31 l 1,0,-1
EndSplineSet
Colour: ffffff
EndChar

StartChar: N
Encoding: 46 78 34
Width: 1580
VWidth: 1691
Flags: MW
LayerCount: 3
Back
SplineSet
50 1168 m 1,0,-1
 61 1244 l 1,1,-1
 411 1244 l 1,2,-1
 1054 274 l 1,3,-1
 1054 1126 l 1,4,-1
 869 1168 l 1,5,-1
 881 1244 l 1,6,-1
 1356 1244 l 1,7,-1
 1343 1168 l 1,8,-1
 1176 1130 l 1,9,-1
 1176 1 l 1,10,-1
 1023 -30 l 1,11,-1
 360 961 l 1,12,-1
 360 114 l 1,13,-1
 543 80 l 1,14,-1
 532 0 l 1,15,-1
 57 0 l 1,16,-1
 65 74 l 1,17,-1
 232 121 l 1,18,-1
 232 1117 l 1,19,-1
 50 1168 l 1,0,-1
EndSplineSet
Fore
SplineSet
1004 -30 m 1,0,-1
 499 961 l 1,1,-1
 365 114 l 1,2,-1
 543 81 l 1,3,-1
 520 0 l 1,4,-1
 44 0 l 1,5,-1
 64 74 l 1,6,-1
 239 121 l 1,7,-1
 396 1118 l 1,8,-1
 221 1168 l 1,9,-1
 243 1244 l 1,10,-1
 591 1244 l 1,11,-1
 1085 262 l 1,12,-1
 1220 1126 l 1,13,-1
 1040 1168 l 1,14,-1
 1063 1244 l 1,15,-1
 1539 1244 l 1,16,-1
 1514 1168 l 1,17,-1
 1342 1130 l 1,18,-1
 1164 2 l 1,19,-1
 1004 -30 l 1,0,-1
EndSplineSet
Colour: ffffff
EndChar

StartChar: O
Encoding: 47 79 35
Width: 1344
VWidth: 1691
Flags: MW
LayerCount: 3
Back
SplineSet
61 619 m 0,0,1
 61 911 61 911 236 1091.5 c 0
 411 1272 411 1272 706 1272 c 0,2,3
 838 1272 838 1272 948.5 1219.5 c 0
 1059 1167 1059 1167 1131.5 1077 c 0
 1204 987 1204 987 1244 869 c 0
 1284 751 1284 751 1284 619 c 0,4,5
 1284 489 1284 489 1240.5 372.5 c 0
 1197 256 1197 256 1116.5 167 c 0
 1036 78 1036 78 911.5 25.5 c 0
 787 -27 787 -27 636 -27 c 0,6,7
 467 -27 467 -27 335 59 c 0
 203 145 203 145 132 292 c 0
 61 439 61 439 61 619 c 0,0,1
283 676 m 0,8,9
 283 585 283 585 297 501 c 0
 311 417 311 417 342.5 339.5 c 0
 374 262 374 262 419.5 204.5 c 0
 465 147 465 147 533.5 113 c 0
 602 79 602 79 686 79 c 0,10,11
 774 79 774 79 841.5 107.5 c 0
 909 136 909 136 950 182.5 c 0
 991 229 991 229 1017 295 c 0
 1043 361 1043 361 1052.5 428 c 0
 1062 495 1062 495 1062 573 c 0,12,13
 1062 661 1062 661 1048 745 c 0
 1034 829 1034 829 1002 907.5 c 0
 970 986 970 986 924.5 1045.5 c 0
 879 1105 879 1105 810 1140.5 c 0
 741 1176 741 1176 658 1176 c 0,14,15
 283 1176 283 1176 283 676 c 0,8,9
EndSplineSet
Fore
SplineSet
1297 725 m 0,0,1
 1297 605 1297 605 1267 494 c 128,-1,2
 1237 383 1237 383 1175.5 288.5 c 128,-1,3
 1114 194 1114 194 1028.5 124 c 128,-1,4
 943 54 943 54 824.5 14 c 128,-1,5
 706 -26 706 -26 568 -26 c 0,6,7
 438 -26 438 -26 338 16 c 128,-1,8
 238 58 238 58 176.5 132 c 128,-1,9
 115 206 115 206 84.5 303 c 128,-1,10
 54 400 54 400 54 515 c 0,11,12
 54 737 54 737 140.5 908 c 128,-1,13
 227 1079 227 1079 393 1176 c 128,-1,14
 559 1273 559 1273 782 1273 c 0,15,16
 909 1273 909 1273 1009 1228.5 c 128,-1,17
 1109 1184 1109 1184 1171 1107.5 c 128,-1,18
 1233 1031 1233 1031 1265 933.5 c 128,-1,19
 1297 836 1297 836 1297 725 c 0,0,1
737 1176 m 0,20,21
 669 1176 669 1176 612 1162.5 c 128,-1,22
 555 1149 555 1149 512 1126 c 128,-1,23
 469 1103 469 1103 434.5 1068.5 c 128,-1,24
 400 1034 400 1034 376.5 997 c 128,-1,25
 353 960 353 960 335.5 913 c 128,-1,26
 318 866 318 866 308 823 c 128,-1,27
 298 780 298 780 292.5 728 c 128,-1,28
 287 676 287 676 285 635.5 c 128,-1,29
 283 595 283 595 283 547 c 0,30,31
 283 457 283 457 303 375 c 128,-1,32
 323 293 323 293 362.5 226 c 128,-1,33
 402 159 402 159 467 119 c 128,-1,34
 532 79 532 79 614 79 c 0,35,36
 699 79 699 79 768.5 101.5 c 128,-1,37
 838 124 838 124 885 160.5 c 128,-1,38
 932 197 932 197 967 250 c 128,-1,39
 1002 303 1002 303 1022 356 c 128,-1,40
 1042 409 1042 409 1054 473 c 128,-1,41
 1066 537 1066 537 1069.5 587.5 c 128,-1,42
 1073 638 1073 638 1073 693 c 0,43,44
 1073 782 1073 782 1052.5 866 c 128,-1,45
 1032 950 1032 950 992 1020.5 c 128,-1,46
 952 1091 952 1091 886 1133.5 c 128,-1,47
 820 1176 820 1176 737 1176 c 0,20,21
EndSplineSet
Colour: ffffff
EndChar

StartChar: P
Encoding: 48 80 36
Width: 1227
VWidth: 1691
Flags: MW
LayerCount: 3
Back
SplineSet
50 0 m 1,0,-1
 61 74 l 1,1,-1
 228 121 l 1,2,-1
 228 1104 l 1,3,-1
 57 1134 l 1,4,-1
 67 1211 l 1,5,6
 366 1255 366 1255 543 1255 c 0,7,8
 1045 1255 1045 1255 1045 892 c 0,9,10
 1045 805 1045 805 1007 730 c 0
 969 655 969 655 905.5 604 c 0
 842 553 842 553 758.5 523.5 c 0
 675 494 675 494 584 494 c 0,11,12
 577 494 577 494 484 497 c 1,13,-1
 466 580 l 1,14,-1
 519 581 l 1,15,16
 838 590 838 590 838 856 c 0,17,18
 838 995 838 995 760.5 1083.5 c 0
 683 1172 683 1172 522 1172 c 1,19,20
 420 1166 l 1,21,-1
 420 122 l 1,22,-1
 657 83 l 1,23,-1
 643 0 l 1,24,-1
 50 0 l 1,0,-1
EndSplineSet
Fore
SplineSet
1184 926 m 0,0,1
 1184 793 1184 793 1111 692 c 128,-1,2
 1038 591 1038 591 922.5 540.5 c 128,-1,3
 807 490 807 490 671 490 c 0,4,5
 629 490 629 490 557 499 c 1,6,-1
 550 581 l 1,7,-1
 603 581 l 2,8,9
 970 581 970 581 970 907 c 0,10,11
 970 1027 970 1027 903.5 1100 c 128,-1,12
 837 1173 837 1173 704 1173 c 1,13,-1
 596 1168 l 1,14,-1
 433 122 l 1,15,-1
 662 84 l 1,16,-1
 636 0 l 1,17,-1
 43 0 l 1,18,-1
 65 74 l 1,19,-1
 241 121 l 1,20,-1
 395 1105 l 1,21,-1
 230 1135 l 1,22,-1
 251 1211 l 1,23,24
 541 1255 541 1255 735 1255 c 0,25,26
 827 1255 827 1255 905 1237.5 c 128,-1,27
 983 1220 983 1220 1047 1182.5 c 128,-1,28
 1111 1145 1111 1145 1147.5 1079.5 c 128,-1,29
 1184 1014 1184 1014 1184 926 c 0,0,1
EndSplineSet
Colour: ffffff
EndChar

StartChar: Q
Encoding: 49 81 37
Width: 1362
VWidth: 1691
Flags: MW
LayerCount: 3
Back
SplineSet
61 608 m 0,0,1
 61 800 61 800 142.5 950.5 c 0
 224 1101 224 1101 375 1186.5 c 0
 526 1272 526 1272 721 1272 c 0,2,3
 895 1272 895 1272 1028 1184 c 0
 1161 1096 1161 1096 1230 951 c 0
 1299 806 1299 806 1299 629 c 0,4,5
 1299 481 1299 481 1243 351 c 0
 1187 221 1187 221 1076.5 125.5 c 0
 966 30 966 30 818 -6 c 1,6,7
 842 -61 842 -61 870.5 -99 c 0
 899 -137 899 -137 947.5 -172.5 c 0
 996 -208 996 -208 1070.5 -233 c 0
 1145 -258 1145 -258 1250 -275 c 1,8,9
 1250 -324 1250 -324 1241 -351 c 1,10,11
 1171 -385 1171 -385 1065 -385 c 0,12,13
 924 -385 924 -385 820 -286 c 0
 716 -187 716 -187 703 -21 c 1,14,15
 683 -27 683 -27 638 -27 c 0,16,17
 469 -27 469 -27 336.5 56 c 0
 204 139 204 139 132.5 283.5 c 0
 61 428 61 428 61 608 c 0,0,1
263 679 m 0,18,19
 263 615 263 615 273 551 c 0
 283 487 283 487 304.5 418.5 c 0
 326 350 326 350 364 290.5 c 0
 402 231 402 231 453.5 182 c 0
 505 133 505 133 581 102.5 c 0
 657 72 657 72 749 67 c 1,20,21
 828 87 828 87 888 123 c 0
 948 159 948 159 986.5 205 c 0
 1025 251 1025 251 1049 310 c 0
 1073 369 1073 369 1082.5 430 c 0
 1092 491 1092 491 1092 563 c 0,22,23
 1092 674 1092 674 1061.5 781.5 c 0
 1031 889 1031 889 977.5 975.5 c 0
 924 1062 924 1062 842 1115 c 0
 760 1168 760 1168 664 1168 c 0,24,25
 475 1168 475 1168 369 1039.5 c 0
 263 911 263 911 263 679 c 0,18,19
EndSplineSet
Fore
SplineSet
605 -21 m 1,0,1
 588 -26 588 -26 551 -26 c 0,2,3
 404 -26 404 -26 289.5 46.5 c 128,-1,4
 175 119 175 119 114.5 242 c 128,-1,5
 54 365 54 365 54 515 c 0,6,7
 54 738 54 738 145.5 910 c 128,-1,8
 237 1082 237 1082 406.5 1177.5 c 128,-1,9
 576 1273 576 1273 797 1273 c 0,10,11
 922 1273 922 1273 1022.5 1227.5 c 128,-1,12
 1123 1182 1123 1182 1185.5 1104.5 c 128,-1,13
 1248 1027 1248 1027 1281.5 929.5 c 128,-1,14
 1315 832 1315 832 1315 723 c 0,15,16
 1315 550 1315 550 1243 399 c 128,-1,17
 1171 248 1171 248 1036 141 c 128,-1,18
 901 34 901 34 724 -7 c 1,19,20
 744 -80 744 -80 779.5 -127.5 c 128,-1,21
 815 -175 815 -175 897.5 -214 c 128,-1,22
 980 -253 980 -253 1116 -276 c 1,23,24
 1106 -324 1106 -324 1092 -350 c 1,25,26
 1013 -385 1013 -385 909 -385 c 0,27,28
 768 -385 768 -385 680 -286 c 128,-1,29
 592 -187 592 -187 605 -21 c 1,0,1
754 1168 m 0,30,31
 530 1168 530 1168 398.5 1001.5 c 128,-1,32
 267 835 267 835 267 560 c 0,33,34
 267 492 267 492 279 428 c 128,-1,35
 291 364 291 364 320 299.5 c 128,-1,36
 349 235 349 235 393 186.5 c 128,-1,37
 437 138 437 138 507.5 105.5 c 128,-1,38
 578 73 578 73 666 68 c 1,39,40
 746 88 746 88 811 120.5 c 128,-1,41
 876 153 876 153 920.5 192 c 128,-1,42
 965 231 965 231 998 280.5 c 128,-1,43
 1031 330 1031 330 1050 377 c 128,-1,44
 1069 424 1069 424 1080.5 480 c 128,-1,45
 1092 536 1092 536 1095.5 582 c 128,-1,46
 1099 628 1099 628 1099 680 c 0,47,48
 1099 774 1099 774 1076 861 c 128,-1,49
 1053 948 1053 948 1010.5 1017 c 128,-1,50
 968 1086 968 1086 901.5 1127 c 128,-1,51
 835 1168 835 1168 754 1168 c 0,30,31
EndSplineSet
Colour: ffffff
EndChar

StartChar: R
Encoding: 50 82 38
Width: 1296
VWidth: 1691
Flags: MW
LayerCount: 3
Back
SplineSet
50 0 m 1,0,-1
 61 74 l 1,1,-1
 228 121 l 1,2,-1
 228 1100 l 1,3,-1
 57 1130 l 1,4,-1
 67 1207 l 1,5,6
 361 1253 361 1253 523 1253 c 0,7,8
 639 1253 639 1253 727.5 1237 c 0
 816 1221 816 1221 884.5 1185.5 c 0
 953 1150 953 1150 989 1089 c 0
 1025 1028 1025 1028 1025 943 c 0,9,10
 1025 841 1025 841 949 744 c 0
 873 647 873 647 738 599 c 1,11,-1
 738 598 l 1,12,-1
 918 349 l 2,13,14
 963 287 963 287 983 260.5 c 0
 1003 234 1003 234 1035 195.5 c 0
 1067 157 1067 157 1089.5 140 c 0
 1112 123 1112 123 1143 105.5 c 0
 1174 88 1174 88 1211 77 c 2,15,-1
 1244 67 l 1,16,-1
 1229 -1 l 1,17,18
 1172 -21 1172 -21 1109 -21 c 0,19,20
 998 -21 998 -21 911.5 51.5 c 0
 825 124 825 124 753 253 c 2,21,-1
 594 537 l 1,22,-1
 420 537 l 1,23,-1
 420 126 l 1,24,-1
 608 83 l 1,25,-1
 598 0 l 1,26,-1
 50 0 l 1,0,-1
420 628 m 1,27,-1
 618 628 l 1,28,29
 702 656 702 656 760 722 c 0
 818 788 818 788 818 887 c 0,30,31
 818 1013 818 1013 744 1091 c 0
 670 1169 670 1169 540 1169 c 1,32,33
 420 1164 l 1,34,-1
 420 628 l 1,27,-1
EndSplineSet
Fore
SplineSet
677 628 m 2,0,1
 781 628 781 628 868.5 721 c 128,-1,2
 956 814 956 814 956 943 c 0,3,4
 956 1051 956 1051 894.5 1110 c 128,-1,5
 833 1169 833 1169 719 1169 c 1,6,-1
 597 1164 l 1,7,-1
 511 628 l 1,8,-1
 677 628 l 2,0,1
1160 978 m 0,9,10
 1160 858 1160 858 1074 756 c 128,-1,11
 988 654 988 654 827 599 c 1,12,-1
 829 598 l 1,13,-1
 967 348 l 1,14,15
 1044 212 1044 212 1090 159 c 128,-1,16
 1136 106 1136 106 1218 78 c 2,17,-1
 1248 68 l 1,18,-1
 1223 -2 l 1,19,20
 1166 -21 1166 -21 1099 -21 c 0,21,22
 988 -21 988 -21 914.5 51 c 128,-1,23
 841 123 841 123 787 253 c 1,24,-1
 672 537 l 1,25,-1
 498 537 l 1,26,-1
 436 126 l 1,27,-1
 616 83 l 1,28,-1
 592 0 l 1,29,-1
 44 0 l 1,30,-1
 66 74 l 1,31,-1
 242 121 l 1,32,-1
 396 1102 l 1,33,-1
 229 1131 l 1,34,-1
 252 1207 l 1,35,36
 552 1253 552 1253 716 1253 c 0,37,38
 926 1253 926 1253 1043 1186.5 c 128,-1,39
 1160 1120 1160 1120 1160 978 c 0,9,10
EndSplineSet
Colour: ffffff
EndChar

StartChar: S
Encoding: 51 83 39
Width: 944
VWidth: 1691
Flags: MW
LayerCount: 3
Back
SplineSet
66 122 m 5,0,-1
 79 389 l 1,1,-1
 181 375 l 1,2,-1
 220 187 l 1,3,4
 249 141 249 141 304.5 109 c 0
 360 77 360 77 426 77 c 0,5,6
 483 77 483 77 534.5 97.5 c 0
 586 118 586 118 624.5 167.5 c 0
 663 217 663 217 663 287 c 0,7,8
 663 339 663 339 631.5 383.5 c 0
 600 428 600 428 549.5 461 c 0
 499 494 499 494 437.5 526 c 0
 376 558 376 558 315 594.5 c 0
 254 631 254 631 203.5 673.5 c 0
 153 716 153 716 121.5 778.5 c 0
 90 841 90 841 90 916 c 0,9,10
 90 1025 90 1025 147 1107 c 0
 204 1189 204 1189 291 1229 c 0
 378 1269 378 1269 479 1269 c 0,11,12
 641 1269 641 1269 761 1169 c 1,13,14
 739 887 l 1,15,-1
 640 899 l 1,16,-1
 615 1090 l 1,17,18
 599 1122 599 1122 549.5 1153.5 c 0
 500 1185 500 1185 445 1185 c 0,19,20
 365 1185 365 1185 314 1137 c 0
 263 1089 263 1089 263 995 c 0,21,22
 263 937 263 937 295 889.5 c 0
 327 842 327 842 378.5 807.5 c 0
 430 773 430 773 492.5 741 c 0
 555 709 555 709 617.5 673 c 0
 680 637 680 637 731.5 595.5 c 0
 783 554 783 554 815 492 c 0
 847 430 847 430 847 354 c 0,23,24
 847 243 847 243 783 155 c 0
 719 67 719 67 618 21.5 c 0
 517 -24 517 -24 402 -24 c 0,25,26
 298 -24 298 -24 207.5 17.5 c 0
 117 59 117 59 66 122 c 5,0,-1
EndSplineSet
Fore
SplineSet
835 887 m 1,0,-1
 738 898 l 1,1,-1
 741 1090 l 1,2,3
 734 1117 734 1117 688.5 1150.5 c 128,-1,4
 643 1184 643 1184 587 1184 c 0,5,6
 495 1184 495 1184 434.5 1130 c 128,-1,7
 374 1076 374 1076 374 968 c 0,8,9
 374 921 374 921 401 880 c 128,-1,10
 428 839 428 839 471.5 807 c 128,-1,11
 515 775 515 775 567.5 743 c 128,-1,12
 620 711 620 711 672 675.5 c 128,-1,13
 724 640 724 640 767.5 600 c 128,-1,14
 811 560 811 560 838 503.5 c 128,-1,15
 865 447 865 447 865 380 c 0,16,17
 865 288 865 288 820.5 210.5 c 128,-1,18
 776 133 776 133 704 82.5 c 128,-1,19
 632 32 632 32 541 3.5 c 128,-1,20
 450 -25 450 -25 355 -25 c 0,21,22
 249 -25 249 -25 161 17.5 c 128,-1,23
 73 60 73 60 42 122 c 1,24,-1
 99 390 l 1,25,-1
 198 375 l 1,26,-1
 204 187 l 1,27,28
 226 137 226 137 275 107.5 c 128,-1,29
 324 78 324 78 394 78 c 0,30,31
 440 78 440 78 486.5 92 c 128,-1,32
 533 106 533 106 574.5 133.5 c 128,-1,33
 616 161 616 161 642 207.5 c 128,-1,34
 668 254 668 254 668 312 c 0,35,36
 668 355 668 355 641.5 393 c 128,-1,37
 615 431 615 431 573 461 c 128,-1,38
 531 491 531 491 479.5 522 c 128,-1,39
 428 553 428 553 377 588 c 128,-1,40
 326 623 326 623 284 662.5 c 128,-1,41
 242 702 242 702 215.5 758 c 128,-1,42
 189 814 189 814 189 880 c 0,43,44
 189 972 189 972 228 1047.5 c 128,-1,45
 267 1123 267 1123 330.5 1170.5 c 128,-1,46
 394 1218 394 1218 473 1244 c 128,-1,47
 552 1270 552 1270 635 1270 c 0,48,49
 711 1270 711 1270 783.5 1246.5 c 128,-1,50
 856 1223 856 1223 901 1169 c 1,51,-1
 835 887 l 1,0,-1
EndSplineSet
Colour: ffffff
EndChar

StartChar: T
Encoding: 52 84 40
Width: 1242
VWidth: 1691
Flags: MW
LayerCount: 3
Back
SplineSet
23 1244 m 1,0,-1
 1134 1244 l 1,1,-1
 1100 906 l 1,2,-1
 1005 921 l 1,3,-1
 967 1152 l 1,4,-1
 662 1152 l 1,5,-1
 662 114 l 1,6,-1
 847 80 l 1,7,-1
 833 0 l 1,8,-1
 294 0 l 1,9,-1
 301 74 l 1,10,-1
 470 121 l 1,11,-1
 470 1152 l 1,12,-1
 175 1152 l 1,13,-1
 122 909 l 1,14,-1
 31 922 l 1,15,-1
 23 1244 l 1,0,-1
EndSplineSet
Fore
SplineSet
88 1244 m 1,0,-1
 1199 1244 l 1,1,-1
 1113 907 l 1,2,-1
 1021 922 l 1,3,-1
 1018 1153 l 1,4,-1
 714 1153 l 1,5,-1
 550 114 l 1,6,-1
 729 81 l 1,7,-1
 702 0 l 1,8,-1
 162 0 l 1,9,-1
 184 74 l 1,10,-1
 360 121 l 1,11,-1
 522 1153 l 1,12,-1
 227 1153 l 1,13,-1
 136 910 l 1,14,-1
 46 923 l 1,15,-1
 88 1244 l 1,0,-1
EndSplineSet
Colour: ffffff
EndChar

StartChar: U
Encoding: 53 85 41
Width: 1458
VWidth: 1691
Flags: MW
LayerCount: 3
Back
SplineSet
22 1168 m 1,0,-1
 35 1244 l 1,1,-1
 577 1244 l 1,2,-1
 568 1168 l 1,3,-1
 399 1130 l 1,4,-1
 399 510 l 2,5,6
 399 304 399 304 492.5 204.5 c 0
 586 105 586 105 747 105 c 0,7,8
 903 105 903 105 987 198 c 0
 1071 291 1071 291 1072 482 c 2,9,-1
 1075 1126 l 1,10,-1
 892 1168 l 1,11,-1
 902 1244 l 1,12,-1
 1380 1244 l 1,13,-1
 1369 1168 l 1,14,-1
 1203 1130 l 1,15,-1
 1198 515 l 2,16,17
 1196 241 1196 241 1075 107 c 0
 954 -27 954 -27 697 -27 c 0,18,19
 620 -27 620 -27 556.5 -16.5 c 0
 493 -6 493 -6 425.5 26.5 c 0
 358 59 358 59 311.5 112 c 0
 265 165 265 165 235.5 256 c 0
 206 347 206 347 206 469 c 2,20,-1
 206 1126 l 1,21,-1
 22 1168 l 1,0,-1
EndSplineSet
Fore
SplineSet
603 92 m 0,0,1
 689 92 689 92 756 118.5 c 128,-1,2
 823 145 823 145 862 183 c 128,-1,3
 901 221 901 221 929.5 278.5 c 128,-1,4
 958 336 958 336 969.5 380 c 128,-1,5
 981 424 981 424 990 481 c 2,6,-1
 1092 1126 l 1,7,-1
 917 1168 l 1,8,-1
 937 1244 l 1,9,-1
 1416 1244 l 1,10,-1
 1394 1168 l 1,11,-1
 1221 1130 l 1,12,-1
 1117 499 l 2,13,14
 1030 -26 1030 -26 517 -26 c 0,15,16
 479 -26 479 -26 443.5 -22 c 128,-1,17
 408 -18 408 -18 367 -8 c 128,-1,18
 326 2 326 2 292.5 19.5 c 128,-1,19
 259 37 259 37 225 63.5 c 128,-1,20
 191 90 191 90 169 127 c 128,-1,21
 147 164 147 164 130 214 c 128,-1,22
 113 264 113 264 113 327 c 128,-1,23
 113 390 113 390 123 469 c 1,24,-1
 227 1126 l 1,25,-1
 47 1168 l 1,26,-1
 70 1244 l 1,27,-1
 611 1244 l 1,28,-1
 592 1168 l 1,29,-1
 417 1130 l 1,30,-1
 317 494 l 2,31,32
 285 288 285 288 363 190 c 128,-1,33
 441 92 441 92 603 92 c 0,0,1
EndSplineSet
Colour: ffffff
EndChar

StartChar: V
Encoding: 54 86 42
Width: 1384
VWidth: 1691
Flags: MW
LayerCount: 3
Back
SplineSet
-21 1168 m 1,0,-1
 -11 1244 l 1,1,-1
 527 1244 l 1,2,-1
 517 1168 l 1,3,-1
 347 1130 l 1,4,-1
 660 251 l 1,5,-1
 980 1126 l 1,6,-1
 798 1168 l 1,7,-1
 805 1244 l 1,8,-1
 1260 1244 l 1,9,-1
 1253 1168 l 1,10,-1
 1121 1130 l 1,11,-1
 696 4 l 1,12,-1
 544 -24 l 1,13,-1
 126 1126 l 1,14,-1
 -21 1168 l 1,0,-1
EndSplineSet
Fore
SplineSet
508 -25 m 1,0,-1
 188 1126 l 1,1,-1
 49 1168 l 1,2,-1
 70 1244 l 1,3,-1
 597 1244 l 1,4,-1
 576 1168 l 1,5,-1
 402 1130 l 1,6,-1
 640 240 l 1,7,-1
 1043 1126 l 1,8,-1
 866 1168 l 1,9,-1
 886 1244 l 1,10,-1
 1342 1244 l 1,11,-1
 1322 1168 l 1,12,-1
 1187 1130 l 1,13,-1
 663 5 l 1,14,-1
 508 -25 l 1,0,-1
EndSplineSet
Colour: ffffff
EndChar

StartChar: W
Encoding: 55 87 43
Width: 1910
VWidth: 1691
Flags: MW
LayerCount: 3
Back
SplineSet
-11 1168 m 1,0,-1
 -2 1244 l 1,1,-1
 512 1244 l 1,2,-1
 497 1168 l 1,3,-1
 330 1130 l 1,4,-1
 572 271 l 1,5,-1
 853 1194 l 1,6,-1
 1029 1219 l 1,7,-1
 1277 287 l 1,8,-1
 1538 1126 l 1,9,-1
 1357 1168 l 1,10,-1
 1368 1244 l 1,11,-1
 1817 1244 l 1,12,-1
 1806 1168 l 1,13,-1
 1683 1130 l 1,14,-1
 1318 4 l 1,15,-1
 1164 -24 l 1,16,-1
 902 951 l 1,17,-1
 617 4 l 1,18,-1
 454 -24 l 1,19,-1
 129 1126 l 1,20,-1
 -11 1168 l 1,0,-1
EndSplineSet
Fore
SplineSet
1076 -25 m 1,0,-1
 928 951 l 1,1,-1
 533 5 l 1,2,-1
 368 -25 l 1,3,-1
 181 1126 l 1,4,-1
 49 1168 l 1,5,-1
 68 1244 l 1,6,-1
 582 1244 l 1,7,-1
 557 1168 l 1,8,-1
 384 1130 l 1,9,-1
 511 252 l 1,10,-1
 905 1194 l 1,11,-1
 1086 1219 l 1,12,-1
 1228 269 l 1,13,-1
 1571 1126 l 1,14,-1
 1396 1168 l 1,15,-1
 1419 1244 l 1,16,-1
 1868 1244 l 1,17,-1
 1845 1168 l 1,18,-1
 1718 1130 l 1,19,-1
 1235 5 l 1,20,-1
 1076 -25 l 1,0,-1
EndSplineSet
Colour: ffffff
EndChar

StartChar: X
Encoding: 56 88 44
Width: 1460
VWidth: 1691
Flags: MW
LayerCount: 3
Back
SplineSet
-1 0 m 1,0,-1
 11 76 l 1,1,-1
 138 121 l 1,2,-1
 504 615 l 1,3,-1
 165 1123 l 1,4,-1
 28 1166 l 1,5,-1
 40 1244 l 1,6,-1
 553 1244 l 1,7,-1
 543 1166 l 1,8,-1
 386 1121 l 1,9,-1
 633 750 l 1,10,-1
 904 1126 l 1,11,-1
 734 1166 l 1,12,-1
 747 1244 l 1,13,-1
 1182 1244 l 1,14,-1
 1174 1168 l 1,15,-1
 1047 1130 l 1,16,-1
 709 657 l 1,17,-1
 1050 114 l 1,18,-1
 1185 80 l 1,19,-1
 1172 0 l 1,20,-1
 669 0 l 1,21,-1
 682 74 l 1,22,-1
 842 121 l 1,23,-1
 580 529 l 1,24,-1
 288 117 l 1,25,-1
 454 83 l 1,26,-1
 439 0 l 1,27,-1
 -1 0 l 1,0,-1
EndSplineSet
Fore
SplineSet
851 637 m 1,0,-1
 1109 114 l 1,1,-1
 1243 81 l 1,2,-1
 1217 0 l 1,3,-1
 703 0 l 1,4,-1
 728 74 l 1,5,-1
 903 121 l 1,6,-1
 690 536 l 1,7,-1
 343 114 l 1,8,-1
 520 81 l 1,9,-1
 497 0 l 1,10,-1
 44 0 l 1,11,-1
 69 74 l 1,12,-1
 198 121 l 1,13,-1
 639 627 l 1,14,-1
 381 1118 l 1,15,-1
 256 1168 l 1,16,-1
 279 1244 l 1,17,-1
 806 1244 l 1,18,-1
 782 1168 l 1,19,-1
 604 1121 l 1,20,-1
 796 725 l 1,21,-1
 1124 1126 l 1,22,-1
 943 1168 l 1,23,-1
 966 1244 l 1,24,-1
 1418 1244 l 1,25,-1
 1398 1168 l 1,26,-1
 1266 1130 l 1,27,-1
 851 637 l 1,0,-1
EndSplineSet
Colour: ffffff
EndChar

StartChar: Y
Encoding: 57 89 45
Width: 1225
VWidth: 1691
Flags: MW
LayerCount: 3
Back
SplineSet
-21 1168 m 1,0,-1
 -8 1244 l 1,1,-1
 500 1244 l 1,2,-1
 488 1168 l 1,3,-1
 330 1130 l 1,4,-1
 607 640 l 1,5,-1
 871 1126 l 1,6,-1
 688 1168 l 1,7,-1
 698 1244 l 1,8,-1
 1143 1244 l 1,9,-1
 1133 1168 l 1,10,-1
 1008 1130 l 1,11,-1
 663 529 l 1,12,-1
 663 114 l 1,13,-1
 826 80 l 1,14,-1
 816 0 l 1,15,-1
 310 0 l 1,16,-1
 320 74 l 1,17,-1
 470 121 l 1,18,-1
 470 504 l 1,19,-1
 117 1126 l 1,20,-1
 -21 1168 l 1,0,-1
EndSplineSet
Fore
SplineSet
632 528 m 1,0,-1
 567 114 l 1,1,-1
 726 81 l 1,2,-1
 703 0 l 1,3,-1
 196 0 l 1,4,-1
 217 74 l 1,5,-1
 376 121 l 1,6,-1
 437 505 l 1,7,-1
 179 1126 l 1,8,-1
 49 1168 l 1,9,-1
 73 1244 l 1,10,-1
 580 1244 l 1,11,-1
 557 1168 l 1,12,-1
 394 1130 l 1,13,-1
 594 641 l 1,14,-1
 894 1126 l 1,15,-1
 717 1168 l 1,16,-1
 739 1244 l 1,17,-1
 1183 1244 l 1,18,-1
 1161 1168 l 1,19,-1
 1033 1130 l 1,20,-1
 632 528 l 1,0,-1
EndSplineSet
Colour: ffffff
EndChar

StartChar: Z
Encoding: 58 90 46
Width: 1223
VWidth: 1691
Flags: MW
LayerCount: 3
Back
SplineSet
47 104 m 1,0,-1
 792 1149 l 1,1,-1
 255 1149 l 1,2,-1
 178 903 l 1,3,-1
 88 921 l 1,4,-1
 98 1244 l 1,5,-1
 1026 1244 l 1,6,-1
 1026 1168 l 1,7,-1
 262 100 l 1,8,-1
 832 100 l 1,9,-1
 955 351 l 1,10,-1
 1048 335 l 1,11,-1
 991 0 l 1,12,-1
 55 0 l 1,13,-1
 47 104 l 1,0,-1
EndSplineSet
Fore
SplineSet
263 1244 m 1,0,-1
 1181 1244 l 1,1,-1
 1170 1168 l 1,2,-1
 268 101 l 1,3,-1
 858 101 l 1,4,-1
 990 350 l 1,5,-1
 1081 335 l 1,6,-1
 1002 0 l 1,7,-1
 45 0 l 1,8,-1
 54 104 l 1,9,-1
 923 1149 l 1,10,-1
 407 1149 l 1,11,-1
 309 903 l 1,12,-1
 222 922 l 1,13,-1
 263 1244 l 1,0,-1
EndSplineSet
Colour: ffffff
EndChar

StartChar: bracketleft
Encoding: 59 91 47
Width: 615
VWidth: 0
Flags: MW
LayerCount: 3
Back
SplineSet
109 -376 m 1,0,-1
 109 1255 l 1,1,-1
 463 1255 l 1,2,-1
 474 1166 l 1,3,-1
 260 1146 l 1,4,-1
 260 -260 l 1,5,-1
 476 -279 l 1,6,-1
 466 -375 l 1,7,-1
 109 -376 l 1,0,-1
EndSplineSet
Fore
SplineSet
317 -375 m 1,0,-1
 41 -377 l 1,1,-1
 302 1255 l 1,2,-1
 573 1255 l 1,3,-1
 569 1166 l 1,4,-1
 426 1146 l 1,5,-1
 204 -259 l 1,6,-1
 343 -279 l 1,7,-1
 317 -375 l 1,0,-1
EndSplineSet
Colour: ffffff
EndChar

StartChar: backslash
Encoding: 60 92 48
Width: 433
VWidth: 0
Flags: MW
LayerCount: 3
Back
SplineSet
37 1274 m 1,0,-1
 171 1266 l 1,1,-1
 632 -376 l 1,2,-1
 504 -368 l 1,3,-1
 37 1274 l 1,0,-1
EndSplineSet
Fore
SplineSet
179 1235 m 1,0,-1
 389 -363 l 1,1,-1
 261 -355 l 1,2,-1
 48 1244 l 1,3,-1
 179 1235 l 1,0,-1
EndSplineSet
Colour: ffffff
EndChar

StartChar: bracketright
Encoding: 61 93 49
Width: 616
VWidth: 0
Flags: MW
LayerCount: 3
Back
SplineSet
0 -279 m 1,0,-1
 217 -260 l 1,1,-1
 217 1146 l 1,2,-1
 1 1166 l 1,3,-1
 13 1255 l 1,4,-1
 366 1255 l 1,5,-1
 368 -376 l 1,6,-1
 10 -375 l 1,7,-1
 0 -279 l 1,0,-1
EndSplineSet
Fore
SplineSet
41 -375 m 1,0,-1
 46 -279 l 1,1,-1
 191 -259 l 1,2,-1
 414 1146 l 1,3,-1
 277 1166 l 1,4,-1
 302 1255 l 1,5,-1
 573 1255 l 1,6,-1
 317 -377 l 1,7,-1
 41 -375 l 1,0,-1
EndSplineSet
Colour: ffffff
EndChar

StartChar: asciicircum
Encoding: 62 94 50
Width: 746
VWidth: 0
Flags: MW
LayerCount: 3
Back
SplineSet
42 826 m 1,0,-1
 331 1237 l 1,1,-1
 386 1250 l 1,2,-1
 681 824 l 1,3,-1
 624 787 l 1,4,-1
 353 1073 l 1,5,-1
 343 1073 l 1,6,-1
 92 793 l 1,7,-1
 42 826 l 1,0,-1
EndSplineSet
Fore
SplineSet
467 1250 m 1,0,-1
 695 824 l 1,1,-1
 634 788 l 1,2,-1
 406 1073 l 1,3,-1
 396 1073 l 1,4,-1
 100 793 l 1,5,-1
 56 826 l 1,6,-1
 411 1237 l 1,7,-1
 467 1250 l 1,0,-1
EndSplineSet
Colour: ffffff
EndChar

StartChar: underscore
Encoding: 63 95 51
Width: 970
VWidth: 0
Flags: MW
LayerCount: 3
Back
SplineSet
-1 -132 m 1,0,-1
 11 -27 l 1,1,-1
 839 -27 l 1,2,-1
 828 -132 l 1,3,-1
 -1 -132 l 1,0,-1
EndSplineSet
Fore
SplineSet
63 -132 m 1,0,-1
 75 -27 l 1,1,-1
 903 -27 l 1,2,-1
 892 -132 l 1,3,-1
 63 -132 l 1,0,-1
EndSplineSet
Colour: ffffff
EndChar

StartChar: grave
Encoding: 64 96 52
Width: 406
VWidth: 0
Flags: MW
LayerCount: 3
Back
SplineSet
122 1659 m 1,0,-1
 237 1697 l 1,1,-1
 369 1364 l 1,2,-1
 313 1329 l 1,3,-1
 122 1659 l 1,0,-1
EndSplineSet
Fore
SplineSet
79 1659 m 1,0,-1
 194 1697 l 1,1,-1
 326 1364 l 1,2,-1
 270 1329 l 1,3,-1
 79 1659 l 1,0,-1
EndSplineSet
Colour: ffffff
EndChar

StartChar: a
Encoding: 65 97 53
Width: 807
VWidth: 0
Flags: MW
LayerCount: 3
Fore
SplineSet
564 746 m 1,0,1
 526 781 526 781 445 781 c 0,2,3
 369 781 369 781 307.5 709.5 c 128,-1,4
 246 638 246 638 215.5 533.5 c 128,-1,5
 185 429 185 429 185 320 c 0,6,7
 185 106 185 106 306 106 c 0,8,9
 358 106 358 106 397.5 130.5 c 128,-1,10
 437 155 437 155 478 201 c 1,11,-1
 564 746 l 1,0,1
691 96 m 2,12,-1
 767 84 l 1,13,-1
 749 15 l 1,14,15
 663 -17 663 -17 598 -17 c 0,16,17
 527 -17 527 -17 491 25 c 128,-1,18
 455 67 455 67 473 132 c 1,19,-1
 461 132 l 1,20,21
 425 66 425 66 361 22.5 c 128,-1,22
 297 -21 297 -21 225 -21 c 0,23,24
 133 -21 133 -21 78.5 58 c 128,-1,25
 24 137 24 137 24 274 c 0,26,27
 24 388 24 388 56 488 c 128,-1,28
 88 588 88 588 140 659.5 c 128,-1,29
 192 731 192 731 259 782.5 c 128,-1,30
 326 834 326 834 396.5 859.5 c 128,-1,31
 467 885 467 885 534 885 c 0,32,33
 693 885 693 885 735 832 c 1,34,-1
 663 378 l 2,35,36
 645 261 645 261 642 205 c 128,-1,37
 639 149 639 149 649.5 125 c 128,-1,38
 660 101 660 101 691 96 c 2,12,-1
EndSplineSet
Colour: ffffff
EndChar

StartChar: b
Encoding: 66 98 54
Width: 843
VWidth: 0
Flags: MW
LayerCount: 3
Back
SplineSet
376 1063 m 1,0,-1
 337 842 l 1,1,-1
 309 722 l 1,2,-1
 321 722 l 1,3,4
 361 791 361 791 434 840.5 c 0
 507 890 507 890 574 890 c 0,5,6
 655 890 655 890 711.5 841.5 c 0
 768 793 768 793 793 717 c 0
 818 641 818 641 818 544 c 0,7,8
 818 459 818 459 794 376 c 0
 770 293 770 293 723 221.5 c 0
 676 150 676 150 613 95 c 0
 550 40 550 40 466 8.5 c 0
 382 -23 382 -23 290 -23 c 0,9,10
 229 -23 229 -23 163 -4.5 c 0
 97 14 97 14 58 50 c 1,11,-1
 218 1059 l 2,12,13
 223 1092 223 1092 214 1111.5 c 0
 205 1131 205 1131 186 1136.5 c 0
 167 1142 167 1142 141 1143.5 c 0
 115 1145 115 1145 87 1143 c 1,14,-1
 96 1223 l 1,15,16
 164 1256 164 1256 249 1256 c 0,17,18
 342 1256 342 1256 367 1210 c 0
 392 1164 392 1164 376 1063 c 1,0,-1
489 748 m 3,19,20
 432 748 432 748 392.5 722 c 0
 353 696 353 696 312 646 c 1,21,-1
 228 155 l 1,22,23
 247 123 247 123 288.5 103.5 c 0
 330 84 330 84 377 84 c 0,24,25
 455 84 455 84 519 143.5 c 0
 583 203 583 203 617 294 c 0
 651 385 651 385 651 483 c 0,26,27
 651 553 651 553 636.5 610 c 0
 622 667 622 667 584 707.5 c 0
 546 748 546 748 489 748 c 3,19,20
143 1191 m 5,28,-1
 7 1219 l 1,29,-1
 18 1292 l 1,30,-1
 297 1315 l 1,31,-1
 312 1294 l 1
81.9551 1222.93 m 17,33,34
 148.89 1256 148.89 1256 235 1256 c 0,35,36
 299.006 1256 299.006 1256 330.594 1233.54 c 0
 362.181 1211.09 362.181 1211.09 366.426 1168.19 c 0
 370.67 1125.28 370.67 1125.28 361.955 1062.93 c 1,37,-1
 253 378 l 2,38,39
 230.292 234.183 230.292 234.183 230.292 172.353 c 0,40,41
 230.292 149.874 230.292 149.874 236.846 134.519 c 0
 243.399 119.164 243.399 119.164 255.021 111.496 c 0
 266.643 103.828 266.643 103.828 282.591 99.7548 c 0
 298.538 95.6812 298.538 95.6812 317.326 95.7658 c 0
 336.114 95.8503 336.114 95.8503 357 96 c 1,42,-1
 349 15 l 1,43,44
 287 -17 287 -17 208 -17 c 0,45,46
 111 -17 111 -17 81.5 32 c 0
 52 81 52 81 70 194 c 2,47,-1
 203.955 1058.93 l 2,48,49
 209.405 1092.08 209.405 1092.08 200.318 1111.5 c 0
 191.231 1130.92 191.231 1130.92 171.891 1136.48 c 0
 152.551 1142.04 152.551 1142.04 126.746 1143.69 c 0
 100.941 1145.33 100.941 1145.33 72.9551 1142.93 c 1,50,-1
 81.9551 1222.93 l 17,33,34
EndSplineSet
Fore
SplineSet
489 748 m 128,-1,1
 432 748 432 748 392.5 722 c 128,-1,2
 353 696 353 696 312 646 c 1,3,-1
 228 155 l 1,4,5
 247 123 247 123 288.5 103.5 c 128,-1,6
 330 84 330 84 377 84 c 0,7,8
 455 84 455 84 519 143.5 c 128,-1,9
 583 203 583 203 617 294 c 128,-1,10
 651 385 651 385 651 483 c 0,11,12
 651 553 651 553 636.5 610 c 128,-1,13
 622 667 622 667 584 707.5 c 128,-1,0
 546 748 546 748 489 748 c 128,-1,1
387 1124 m 1,14,-1
 337 842 l 1,15,-1
 309 722 l 1,16,-1
 321 722 l 1,17,18
 361 791 361 791 434 840.5 c 128,-1,19
 507 890 507 890 574 890 c 0,20,21
 655 890 655 890 711.5 841.5 c 128,-1,22
 768 793 768 793 793 717 c 128,-1,23
 818 641 818 641 818 544 c 0,24,25
 818 459 818 459 794 376 c 128,-1,26
 770 293 770 293 723 221.5 c 128,-1,27
 676 150 676 150 613 95 c 128,-1,28
 550 40 550 40 466 8.5 c 128,-1,29
 382 -23 382 -23 290 -23 c 0,30,31
 229 -23 229 -23 163 -4.5 c 128,-1,32
 97 14 97 14 58 50 c 1,33,-1
 229 1120 l 2,34,35
 234 1153 234 1153 225 1172.5 c 128,-1,36
 216 1192 216 1192 197 1197.5 c 128,-1,37
 178 1203 178 1203 152 1205 c 128,-1,38
 126 1207 126 1207 98 1204 c 1,39,-1
 107 1284 l 1,40,41
 175 1317 175 1317 260 1317 c 0,42,43
 324 1317 324 1317 356 1294.5 c 128,-1,44
 388 1272 388 1272 392 1229 c 128,-1,45
 396 1186 396 1186 387 1124 c 1,14,-1
EndSplineSet
Colour: ffffff
EndChar

StartChar: c
Encoding: 67 99 55
Width: 708
VWidth: 0
Flags: MW
LayerCount: 3
Back
SplineSet
472.045 -193.934 m 5,0,-1
 511 27 l 1,1,-1
 539 147 l 1,2,-1
 527 147 l 1,3,4
 487 78 487 78 414 28.5 c 0
 341 -21 341 -21 274 -21 c 0,5,6
 212.885 -21 212.885 -21 165.262 6.51263 c 0
 117.638 34.0253 117.638 34.0253 88.5183 82.1421 c 0
 59.3981 130.259 59.3981 130.259 44.5316 191.835 c 0
 29.665 253.41 29.665 253.41 29.665 325.1 c 0,7,8
 29.665 409.946 29.665 409.946 53.8585 492.894 c 0
 78.052 575.841 78.052 575.841 124.875 647.475 c 0
 171.699 719.109 171.699 719.109 234.946 774.033 c 0
 298.192 828.957 298.192 828.957 381.91 860.478 c 0
 465.629 892 465.629 892 558 892 c 0,9,10
 619 892 619 892 685 873.5 c 0
 751 855 751 855 790 819 c 1,11,-1
 630.045 -189.934 l 2,12,13
 624.689 -223.14 624.689 -223.14 633.794 -242.568 c 0
 642.898 -261.996 642.898 -261.996 662.208 -267.541 c 0
 681.518 -273.087 681.518 -273.087 707.291 -274.711 c 0
 733.064 -276.335 733.064 -276.335 761.045 -273.934 c 1,14,-1
 752.045 -353.934 l 1,15,16
 685.112 -387 685.112 -387 599 -387 c 0,17,18
 534.962 -387 534.962 -387 503.214 -364.501 c 0
 471.466 -342.003 471.466 -342.003 467.19 -299.099 c 0
 462.914 -256.196 462.914 -256.196 472.045 -193.934 c 5,0,-1
359 121 m 7,19,20
 416 121 416 121 455.5 147 c 0
 495 173 495 173 536 223 c 1,21,-1
 620 714 l 1,22,23
 601.361 746.065 601.361 746.065 559.758 765.35 c 0
 518.154 784.636 518.154 784.636 470.639 784.636 c 0,24,25
 392.801 784.636 392.801 784.636 328.645 724.992 c 0
 264.488 665.347 264.488 665.347 230.529 574.415 c 0
 196.569 483.483 196.569 483.483 196.569 385.577 c 0,26,27
 196.569 334.244 196.569 334.244 205.353 288.941 c 0
 214.137 243.639 214.137 243.639 232.413 204.943 c 0
 250.689 166.248 250.689 166.248 283.224 143.624 c 0
 315.758 121 315.758 121 359 121 c 7,19,20
EndSplineSet
Fore
SplineSet
611 179 m 1,0,-1
 635 118 l 1,1,2
 581 57 581 57 495 16.5 c 128,-1,3
 409 -24 409 -24 327 -24 c 0,4,5
 189 -24 189 -24 106.5 61 c 128,-1,6
 24 146 24 146 24 308 c 0,7,8
 24 430 24 430 67 539.5 c 128,-1,9
 110 649 110 649 179.5 724.5 c 128,-1,10
 249 800 249 800 337 844 c 128,-1,11
 425 888 425 888 514 888 c 0,12,13
 601 888 601 888 650.5 845.5 c 128,-1,14
 700 803 700 803 700 731 c 0,15,16
 700 686 700 686 663 659 c 128,-1,17
 626 632 626 632 571 627 c 1,18,19
 557 670 557 670 549 690 c 128,-1,20
 541 710 541 710 524 738.5 c 128,-1,21
 507 767 507 767 484.5 779 c 128,-1,22
 462 791 462 791 431 791 c 0,23,24
 371 791 371 791 323.5 751 c 128,-1,25
 276 711 276 711 249.5 647 c 128,-1,26
 223 583 223 583 210 515 c 128,-1,27
 197 447 197 447 197 380 c 0,28,29
 197 242 197 242 246 174 c 128,-1,30
 295 106 295 106 398 106 c 0,31,32
 493 106 493 106 611 179 c 1,0,-1
EndSplineSet
Layer: 2
SplineSet
401 96 m 7,0,1
 470 96 470 96 519 111.5 c 128,-1,2
 568 127 568 127 624 157 c 1,3,-1
 648 106 l 1,4,5
 594 49 594 49 508 11.5 c 128,-1,6
 422 -26 422 -26 340 -26 c 0,7,8
 203 -26 203 -26 125 61.5 c 128,-1,9
 47 149 47 149 47 307 c 0,10,11
 47 439 47 439 84.5 550 c 128,-1,12
 122 661 122 661 185 734.5 c 128,-1,13
 248 808 248 808 331.5 849 c 128,-1,14
 415 890 415 890 507 890 c 0,15,16
 605 890 605 890 660 848 c 128,-1,17
 715 806 715 806 715 736 c 0,18,19
 715 691 715 691 678 664 c 128,-1,20
 641 637 641 637 586 631.999 c 1,21,22
 574.447 665.456 574.447 665.456 567.419 683.568 c 128,-1,23
 560.391 701.68 560.391 701.68 549.62 723.087 c 128,-1,24
 538.849 744.494 538.849 744.494 528.373 754.748 c 128,-1,25
 517.897 765.003 517.897 765.003 502.186 774.91 c 128,-1,26
 486.475 784.816 486.475 784.816 466.645 788.285 c 128,-1,27
 446.816 791.754 446.816 791.754 420.077 791.754 c 0,28,29
 373.633 791.754 373.633 791.754 334.228 747.158 c 128,-1,30
 294.822 702.562 294.822 702.562 270.439 633.069 c 128,-1,31
 246.055 563.576 246.055 563.576 232.528 484.108 c 128,-1,32
 219 404.64 219 404.64 219 330 c 0,33,34
 219 222 219 222 264 159 c 128,-1,35
 309 96 309 96 401 96 c 7,0,1
EndSplineSet
Colour: ffffff
EndChar

StartChar: d
Encoding: 68 100 56
Width: 844
VWidth: 0
Flags: MW
LayerCount: 3
Back
SplineSet
790.75 1063 m 6,0,-1
 682.75 380 l 2,1,2
 666.779 278.031 666.779 278.031 660.687 230.762 c 0
 654.596 183.494 654.596 183.494 656.391 150.253 c 0
 658.185 117.013 658.185 117.013 667.469 109.043 c 0
 676.752 101.074 676.752 101.074 698.75 97 c 2,3,-1
 764.75 86 l 1,4,-1
 745.75 17 l 1,5,6
 664.519 -15 664.519 -15 606.75 -15 c 0,7,8
 546.327 -15 546.327 -15 517.865 9.66714 c 0
 489.403 34.3343 489.403 34.3343 487.75 74 c 0,9,10
 487.75 97 487.75 97 492.75 122 c 1,11,-1
 479.75 122 l 1,12,13
 443.346 60.2714 443.346 60.2714 379.853 19.6357 c 0
 316.359 -21 316.359 -21 243.75 -21 c 0,14,15
 141.798 -21 141.798 -21 82.7738 56.1703 c 0
 23.75 133.341 23.75 133.341 23.75 286 c 0,16,17
 23.75 397.189 23.75 397.189 55.4707 494.777 c 0
 87.1913 592.365 87.1913 592.365 140.877 662.439 c 0
 194.563 732.514 194.563 732.514 264.303 783.321 c 0
 334.042 834.127 334.042 834.127 411.149 859.063 c 0
 488.257 884 488.257 884 565.75 884 c 0,18,19
 593.25 884 593.25 884 606.75 881 c 1,20,-1
 612.75 881 l 1,21,-1
 632.75 1059 l 2,22,23
 636.329 1092.28 636.329 1092.28 626.906 1111.64 c 0
 617.484 1131 617.484 1131 598.75 1136.62 c 0
 580.016 1142.25 580.016 1142.25 554.844 1143.8 c 0
 529.671 1145.34 529.671 1145.34 501.75 1143 c 1,24,-1
 510.75 1223 l 1,25,26
 578.321 1256 578.321 1256 663.75 1256 c 0,27,28
 727.863 1256 727.863 1256 759.787 1233.52 c 0
 791.711 1211.04 791.711 1211.04 796.046 1168.15 c 0
 800.382 1125.26 800.382 1125.26 790.75 1063 c 6,0,-1
494.75 201 m 9,29,-1
 576.75 736 l 1,30,31
 559.364 749.523 559.364 749.523 546.008 757.631 c 0
 532.653 765.738 532.653 765.738 506.825 773.369 c 0
 480.998 781 480.998 781 450.75 781 c 0,32,33
 375.914 781 375.914 781 314.708 718.802 c 0
 253.501 656.605 253.501 656.605 220.126 555.198 c 0
 186.75 453.79 186.75 453.79 186.75 337 c 0,34,35
 186.75 215.104 186.75 215.104 219.444 160.552 c 0
 252.139 106 252.139 106 320.75 106 c 0,36,37
 379.202 106 379.202 106 420.121 130.478 c 0
 461.04 154.957 461.04 154.957 494.75 201 c 9,29,-1
512 1222.93 m 21,38,39
 578.935 1256 578.935 1256 665.045 1256 c 0,40,41
 729.051 1256 729.051 1256 760.639 1233.54 c 0
 792.226 1211.09 792.226 1211.09 796.471 1168.19 c 0
 800.715 1125.28 800.715 1125.28 792 1062.93 c 1,42,-1
 683.045 378 l 2,43,44
 660.337 234.183 660.337 234.183 660.337 172.353 c 0,45,46
 660.337 149.874 660.337 149.874 666.891 134.519 c 0
 673.444 119.164 673.444 119.164 685.066 111.496 c 0
 696.688 103.828 696.688 103.828 712.636 99.7548 c 0
 728.583 95.6812 728.583 95.6812 747.371 95.7658 c 0
 766.159 95.8504 766.159 95.8504 787.045 96 c 1,47,-1
 779.045 15 l 1,48,49
 717.178 -17 717.178 -17 638.045 -17 c 0,50,51
 541.461 -17 541.461 -17 511.855 32.017 c 0
 482.249 81.0341 482.249 81.0341 500.045 194 c 2,52,-1
 634 1058.93 l 2,53,54
 639.45 1092.08 639.45 1092.08 630.363 1111.5 c 0
 621.276 1130.92 621.276 1130.92 601.936 1136.48 c 0
 582.596 1142.04 582.596 1142.04 556.791 1143.69 c 0
 530.986 1145.33 530.986 1145.33 503 1142.93 c 1,55,-1
 512 1222.93 l 21,38,39
EndSplineSet
Fore
SplineSet
495 201 m 1,0,-1
 577 736 l 1,1,2
 560 750 560 750 546.5 758 c 128,-1,3
 533 766 533 766 507 773.5 c 128,-1,4
 481 781 481 781 451 781 c 0,5,6
 376 781 376 781 315 719 c 128,-1,7
 254 657 254 657 220.5 555.5 c 128,-1,8
 187 454 187 454 187 337 c 0,9,10
 187 215 187 215 219.5 160.5 c 128,-1,11
 252 106 252 106 321 106 c 0,12,13
 379 106 379 106 420 130.5 c 128,-1,14
 461 155 461 155 495 201 c 1,0,-1
799 1124 m 2,15,-1
 683 380 l 2,16,17
 667 278 667 278 661 231 c 128,-1,18
 655 184 655 184 656.5 150.5 c 128,-1,19
 658 117 658 117 667.5 109 c 128,-1,20
 677 101 677 101 699 97 c 2,21,-1
 765 86 l 1,22,-1
 746 17 l 1,23,24
 665 -15 665 -15 607 -15 c 0,25,26
 547 -15 547 -15 518 9.5 c 128,-1,27
 489 34 489 34 488 74 c 0,28,29
 488 97 488 97 493 122 c 1,30,-1
 480 122 l 1,31,32
 444 60 444 60 380 19.5 c 128,-1,33
 316 -21 316 -21 244 -21 c 0,34,35
 142 -21 142 -21 83 56 c 128,-1,36
 24 133 24 133 24 286 c 0,37,38
 24 397 24 397 55.5 494.5 c 128,-1,39
 87 592 87 592 141 662.5 c 128,-1,40
 195 733 195 733 264.5 783.5 c 128,-1,41
 334 834 334 834 411 859 c 128,-1,42
 488 884 488 884 566 884 c 0,43,44
 594 884 594 884 607 881 c 1,45,-1
 613 881 l 1,46,-1
 641 1120 l 2,47,48
 645 1153 645 1153 635.5 1172.5 c 128,-1,49
 626 1192 626 1192 607 1197.5 c 128,-1,50
 588 1203 588 1203 563 1204.5 c 128,-1,51
 538 1206 538 1206 510 1204 c 1,52,-1
 519 1284 l 1,53,54
 587 1317 587 1317 672 1317 c 0,55,56
 736 1317 736 1317 768 1294.5 c 128,-1,57
 800 1272 800 1272 804.5 1229 c 128,-1,58
 809 1186 809 1186 799 1124 c 2,15,-1
EndSplineSet
Layer: 2
SplineSet
694 96 m 14,0,-1
 770 84 l 1,1,-1
 752 15 l 1,2,3
 666 -17 666 -17 601 -17 c 0,4,5
 530 -17 530 -17 494 25 c 128,-1,6
 458 67 458 67 476 132 c 1,7,-1
 464 132 l 1,8,9
 428 66 428 66 364 22.5 c 128,-1,10
 300 -21 300 -21 228 -21 c 0,11,12
 136 -21 136 -21 81.5 58 c 128,-1,13
 27 137 27 137 27 274 c 0,14,15
 27 388 27 388 59 488 c 128,-1,16
 91 588 91 588 143 659.5 c 128,-1,17
 195 731 195 731 262 782.5 c 128,-1,18
 329 834 329 834 399.5 859.5 c 128,-1,19
 470 885 470 885 537 885 c 0,20,21
 696 885 696 885 738 832 c 1,22,-1
 666 378 l 2,23,24
 648 261 648 261 645 205 c 128,-1,25
 642 149 642 149 652.5 125 c 128,-1,26
 663 101 663 101 694 96 c 14,0,-1
567 746 m 5,27,28
 529 781 529 781 448 781 c 0,29,30
 372 781 372 781 310.5 709.5 c 128,-1,31
 249 638 249 638 218.5 533.5 c 128,-1,32
 188 429 188 429 188 320 c 0,33,34
 188 106 188 106 309 106 c 0,35,36
 361 106 361 106 400.5 130.5 c 128,-1,37
 440 155 440 155 481 201 c 1,38,-1
 567 746 l 5,27,28
EndSplineSet
Colour: ffffff
EndChar

StartChar: e
Encoding: 69 101 57
Width: 676
VWidth: 0
Flags: MW
LayerCount: 3
Back
SplineSet
53 428 m 0,0,1
 53 536 53 536 90 627.5 c 0
 127 719 127 719 186 777 c 0
 245 835 245 835 317.5 867 c 0
 390 899 390 899 464 899 c 0,2,3
 579 899 579 899 655 816 c 0
 731 733 731 733 731 581 c 0,4,5
 731 519 731 519 715 451 c 1,6,-1
 231 445 l 1,7,8
 233 396 233 396 244.5 349 c 0
 256 302 256 302 279 256.5 c 0
 302 211 302 211 333 177 c 0
 364 143 364 143 410 122.5 c 0
 456 102 456 102 510 102 c 0,9,10
 557 102 557 102 580.5 104 c 0
 604 106 604 106 646 118.5 c 0
 688 131 688 131 737 157 c 1,11,-1
 758 104 l 1,12,13
 698 41 698 41 612.5 5.5 c 0
 527 -30 527 -30 429 -30 c 0,14,15
 357 -30 357 -30 290.5 -0.5 c 0
 224 29 224 29 170.5 84.5 c 0
 117 140 117 140 85 229 c 0
 53 318 53 318 53 428 c 0,0,1
233 523 m 1,16,-1
 547 546 l 1,17,18
 553 570 553 570 553 615 c 0,19,20
 553 801 553 801 415 801 c 0,21,22
 348 801 348 801 294 729.5 c 0
 240 658 240 658 233 523 c 1,16,-1
EndSplineSet
Fore
SplineSet
24 289 m 0,0,1
 24 408 24 408 59 519.5 c 128,-1,2
 94 631 94 631 151.5 712 c 128,-1,3
 209 793 209 793 286.5 841.5 c 128,-1,4
 364 890 364 890 446 890 c 0,5,6
 529 890 529 890 578.5 836.5 c 128,-1,7
 628 783 628 783 628 692 c 0,8,9
 628 615 628 615 601.5 556.5 c 128,-1,10
 575 498 575 498 532.5 463.5 c 128,-1,11
 490 429 490 429 431 408 c 128,-1,12
 372 387 372 387 313.5 380.5 c 128,-1,13
 255 374 255 374 189 376 c 1,14,15
 180 241 180 241 214 171.5 c 128,-1,16
 248 102 248 102 336 102 c 0,17,18
 410 102 410 102 467.5 126 c 128,-1,19
 525 150 525 150 556 177 c 1,20,-1
 582 132 l 1,21,22
 544 73 544 73 455 21.5 c 128,-1,23
 366 -30 366 -30 272 -30 c 0,24,25
 24 -30 24 -30 24 289 c 0,0,1
198 449 m 1,26,27
 247 449 247 449 284.5 454 c 128,-1,28
 322 459 322 459 360 472.5 c 128,-1,29
 398 486 398 486 422.5 509 c 128,-1,30
 447 532 447 532 462.5 571 c 128,-1,31
 478 610 478 610 478 663 c 0,32,33
 478 719 478 719 453 758.5 c 128,-1,34
 428 798 428 798 386 798 c 0,35,36
 355 798 355 798 326 782 c 128,-1,37
 297 766 297 766 269 729 c 128,-1,38
 241 692 241 692 222 620 c 128,-1,39
 203 548 203 548 198 449 c 1,26,27
EndSplineSet
Colour: ffffff
EndChar

StartChar: f
Encoding: 70 102 58
Width: 579
VWidth: 0
Flags: MW
LayerCount: 3
Back
SplineSet
338 687 m 1,0,-1
 250 86 l 2,1,2
 238 6 238 6 206 -66.5 c 0
 174 -139 174 -139 135 -188 c 0
 96 -237 96 -237 47 -279.5 c 0
 -2 -322 -2 -322 -39 -345 c 0
 -76 -368 -76 -368 -113 -386 c 1,3,-1
 -163 -307 l 1,4,5
 59 -145 59 -145 95 99 c 2,6,-1
 180 683 l 2,7,8
 185 716 185 716 176 735.5 c 0
 167 755 167 755 148 760.5 c 0
 129 766 129 766 103 767.5 c 0
 77 769 77 769 49 767 c 1,9,-1
 58 847 l 1,10,11
 126 880 126 880 211 880 c 0,12,13
 304 880 304 880 329 834 c 0
 354 788 354 788 338 687 c 1,0,-1
337 1293 m 0,14,15
 382 1293 382 1293 414 1260 c 0
 446 1227 446 1227 446 1179 c 0,16,17
 446 1131 446 1131 411.5 1099.5 c 0
 377 1068 377 1068 326 1068 c 0,18,19
 281 1068 281 1068 248.5 1100 c 0
 216 1132 216 1132 216 1177 c 0,20,21
 216 1223 216 1223 250.5 1258 c 0
 285 1293 285 1293 337 1293 c 0,14,15
EndSplineSet
Fore
SplineSet
95 99 m 1,0,-1
 207 768 l 1,1,-1
 58 768 l 1,2,-1
 72 836 l 1,3,-1
 229 872 l 1,4,5
 246 977 246 977 288 1063.5 c 128,-1,6
 330 1150 330 1150 384 1204 c 128,-1,7
 438 1258 438 1258 498 1287.5 c 128,-1,8
 558 1317 558 1317 616 1317 c 0,9,10
 780 1317 780 1317 780 1204 c 0,11,12
 780 1174 780 1174 756 1145.5 c 128,-1,13
 732 1117 732 1117 685 1101 c 1,14,15
 681 1106 681 1106 667.5 1123 c 128,-1,16
 654 1140 654 1140 649.5 1145 c 128,-1,17
 645 1150 645 1150 633.5 1162.5 c 128,-1,18
 622 1175 622 1175 616 1179 c 128,-1,19
 610 1183 610 1183 598 1191 c 128,-1,20
 586 1199 586 1199 576 1201.5 c 128,-1,21
 566 1204 566 1204 552 1206.5 c 128,-1,22
 538 1209 538 1209 523 1209 c 0,23,24
 464 1209 464 1209 435 1133.5 c 128,-1,25
 406 1058 406 1058 381 858 c 1,26,-1
 561 858 l 1,27,-1
 543 768 l 1,28,-1
 368 768 l 1,29,-1
 258 135 l 1,30,31
 237 44 237 44 227 4.5 c 128,-1,32
 217 -35 217 -35 203 -87 c 128,-1,33
 189 -139 189 -139 178.5 -164.5 c 128,-1,34
 168 -190 168 -190 156 -204 c 1,35,-1
 0 -204 l 1,36,37
 26 -163 26 -163 43 -108 c 128,-1,38
 60 -53 60 -53 95 99 c 1,0,-1
EndSplineSet
Colour: ffff
EndChar

StartChar: g
Encoding: 71 103 59
Width: 725
VWidth: 0
Flags: MW
LayerCount: 3
Back
SplineSet
371.209 542 m 4,0,1
 371.209 477.545 371.209 477.545 400.784 428.772 c 0
 430.359 380 430.359 380 481.209 380 c 0,2,3
 521.442 380 521.442 380 553.403 405.622 c 0
 585.365 431.244 585.365 431.244 604.104 472.955 c 0
 622.843 514.666 622.843 514.666 632.526 562.903 c 0
 642.209 611.14 642.209 611.14 642.209 661 c 0,4,5
 642.209 704.271 642.209 704.271 634.017 738.711 c 0
 625.826 773.152 625.826 773.152 604.109 797.576 c 0
 582.391 822 582.391 822 549.209 822 c 0,6,7
 494.73 822 494.73 822 452.73 777.423 c 0
 410.731 732.847 410.731 732.847 390.97 670.168 c 0
 371.209 607.489 371.209 607.489 371.209 542 c 4,0,1
473.209 169 m 6,8,-1
 551.209 169 l 2,9,10
 680.779 169 680.779 169 748.994 116.523 c 0
 817.209 64.0461 817.209 64.0461 817.209 -42 c 0,11,12
 817.209 -111.889 817.209 -111.889 773.756 -176.758 c 0
 730.303 -241.626 730.303 -241.626 661.584 -286.789 c 0
 592.865 -331.953 592.865 -331.953 506.656 -358.976 c 0
 420.448 -386 420.448 -386 336.209 -386 c 0,13,14
 273.66 -386 273.66 -386 218.707 -375.638 c 0
 163.754 -365.276 163.754 -365.276 116.415 -343.474 c 0
 69.0769 -321.673 69.0769 -321.673 41.0776 -282.529 c 0
 13.0783 -243.385 13.0783 -243.385 12.209 -191 c 0,15,16
 12.209 -139.027 12.209 -139.027 47.7594 -89.9193 c 0
 83.3097 -40.8118 83.3097 -40.8118 132.711 -9.1909 c 0
 182.112 22.43 182.112 22.43 234.209 37 c 1,17,-1
 234.209 45 l 1,18,19
 195.615 60.2887 195.615 60.2887 171.912 86.5134 c 0
 148.209 112.738 148.209 112.738 148.209 163 c 0,20,21
 148.209 212.252 148.209 212.252 207.802 261.135 c 0
 267.395 310.019 267.395 310.019 330.209 330 c 1,22,-1
 325.209 338 l 1,23,24
 292.195 351.988 292.195 351.988 255.702 411.223 c 0
 219.209 470.457 219.209 470.457 219.209 530 c 0,25,26
 219.209 625.285 219.209 625.285 270.995 710.706 c 0
 322.781 796.126 322.781 796.126 406.828 846.563 c 0
 490.874 897 490.874 897 582.209 897 c 0,27,28
 681.209 897 681.209 897 739.209 834 c 1,29,-1
 940.209 859 l 1,30,-1
 957.209 836 l 1,31,-1
 912.209 715 l 1,32,-1
 896.209 715 l 1,33,-1
 777.209 755 l 1,34,-1
 775.209 738 l 1,35,36
 790.209 718.422 790.209 718.422 790.209 631 c 0,37,38
 790.209 560.955 790.209 560.955 754.596 495.369 c 0
 718.984 429.782 718.984 429.782 664.229 385.819 c 0
 609.475 341.856 609.475 341.856 540.569 320.369 c 0
 471.663 298.881 471.663 298.881 408.209 311 c 1,39,40
 377.449 301.216 377.449 301.216 351.329 274.737 c 0
 325.209 248.257 325.209 248.257 325.209 220 c 0,41,42
 325.209 188.47 325.209 188.47 359.124 178.735 c 0
 393.039 169 393.039 169 473.209 169 c 6,8,-1
309.209 22 m 5,43,44
 263.459 9.94413 263.459 9.94413 218.334 -33.6171 c 0
 173.209 -77.1783 173.209 -77.1783 173.209 -128 c 0,45,46
 173.209 -194.779 173.209 -194.779 240.192 -236.889 c 0
 307.175 -279 307.175 -279 399.209 -279 c 0,47,48
 503.772 -279 503.772 -279 575.991 -233.227 c 0
 648.209 -187.455 648.209 -187.455 648.209 -116 c 0,49,50
 648.209 -40.7978 648.209 -40.7978 603.544 -9.3989 c 0
 558.879 22 558.879 22 439.209 22 c 2,51,-1
 309.209 22 l 5,43,44
EndSplineSet
Fore
SplineSet
145 22 m 1,0,1
 99 10 99 10 54 -33.5 c 128,-1,2
 9 -77 9 -77 9 -128 c 0,3,4
 9 -195 9 -195 76 -237 c 128,-1,5
 143 -279 143 -279 235 -279 c 0,6,7
 336 -279 336 -279 405.5 -237.5 c 128,-1,8
 475 -196 475 -196 475 -132 c 0,9,10
 475 -95 475 -95 465 -67.5 c 128,-1,11
 455 -40 455 -40 430 -24 c 128,-1,12
 405 -8 405 -8 381.5 2 c 128,-1,13
 358 12 358 12 312 16 c 128,-1,14
 266 20 266 20 235.5 21 c 128,-1,15
 205 22 205 22 145 22 c 1,0,1
309 169 m 0,16,17
 370 166 370 166 414.5 160.5 c 128,-1,18
 459 155 459 155 505.5 139 c 128,-1,19
 552 123 552 123 581 98.5 c 128,-1,20
 610 74 610 74 628 31.5 c 128,-1,21
 646 -11 646 -11 646 -69 c 0,22,23
 646 -152 646 -152 576.5 -223.5 c 128,-1,24
 507 -295 507 -295 399 -335 c 128,-1,25
 291 -375 291 -375 175 -375 c 0,26,27
 114 -375 114 -375 61 -364.5 c 128,-1,28
 8 -354 8 -354 -38.5 -332 c 128,-1,29
 -85 -310 -85 -310 -112 -270 c 128,-1,30
 -139 -230 -139 -230 -140 -177 c 0,31,32
 -140 -128 -140 -128 -106 -82 c 128,-1,33
 -72 -36 -72 -36 -25.5 -6.5 c 128,-1,34
 21 23 21 23 70 37 c 1,35,-1
 70 45 l 1,36,37
 31 60 31 60 7.5 86 c 128,-1,38
 -16 112 -16 112 -16 163 c 0,39,40
 -16 212 -16 212 43.5 261 c 128,-1,41
 103 310 103 310 166 330 c 1,42,-1
 161 338 l 1,43,44
 128 352 128 352 91.5 411.5 c 128,-1,45
 55 471 55 471 55 530 c 0,46,47
 55 625 55 625 107 710.5 c 128,-1,48
 159 796 159 796 243 846.5 c 128,-1,49
 327 897 327 897 418 897 c 0,50,51
 516 897 516 897 575 834 c 1,52,-1
 776 859 l 1,53,-1
 793 836 l 1,54,-1
 748 715 l 1,55,-1
 732 715 l 1,56,-1
 613 755 l 1,57,-1
 611 738 l 1,58,59
 626 719 626 719 626 631 c 0,60,61
 626 561 626 561 590.5 495.5 c 128,-1,62
 555 430 555 430 500.5 386 c 128,-1,63
 446 342 446 342 377 320.5 c 128,-1,64
 308 299 308 299 244 311 c 1,65,66
 213 301 213 301 187 274.5 c 128,-1,67
 161 248 161 248 161 220 c 0,68,69
 161 187 161 187 205 178 c 0,70,71
 229 172 229 172 309 169 c 0,16,17
207 542 m 0,72,73
 207 478 207 478 237 429 c 128,-1,74
 267 380 267 380 317 380 c 0,75,76
 357 380 357 380 389.5 405.5 c 128,-1,77
 422 431 422 431 440.5 472.5 c 128,-1,78
 459 514 459 514 468.5 562.5 c 128,-1,79
 478 611 478 611 478 661 c 0,80,81
 478 704 478 704 470 738.5 c 128,-1,82
 462 773 462 773 440.5 797.5 c 128,-1,83
 419 822 419 822 385 822 c 0,84,85
 331 822 331 822 289 777.5 c 128,-1,86
 247 733 247 733 227 670 c 128,-1,87
 207 607 207 607 207 542 c 0,72,73
EndSplineSet
Colour: ffff
EndChar

StartChar: h
Encoding: 72 104 60
Width: 889
VWidth: 0
Flags: MW
LayerCount: 3
Back
SplineSet
59 0 m 9,0,-1
 221 1059 l 2,1,2
 226 1092 226 1092 217 1111.5 c 0
 208 1131 208 1131 188.5 1136.5 c 0
 169 1142 169 1142 143.5 1143.5 c 0
 118 1145 118 1145 90 1143 c 1,3,-1
 99 1223 l 1,4,5
 167 1256 167 1256 252 1256 c 0,6,7
 345 1256 345 1256 370 1210 c 0
 395 1164 395 1164 379 1063 c 2,8,-1
 343 846 l 1,9,-1
 315 722 l 1,10,-1
 327 722 l 1,11,12
 379 790 379 790 456 841.5 c 0
 533 893 533 893 616 893 c 0,13,14
 829 893 829 893 780 613 c 1,15,-1
 745 378 l 1,16,17
 722 232 722 232 722 172 c 0,18,19
 722 150 722 150 728.5 134.5 c 0
 735 119 735 119 746.5 111.5 c 0
 758 104 758 104 774 100 c 0
 790 96 790 96 809 96 c 0
 828 96 828 96 849 96 c 1,20,-1
 841 15 l 1,21,22
 779 -17 779 -17 700 -17 c 0,23,24
 603 -17 603 -17 573 32.5 c 0
 543 82 543 82 562 194 c 1,25,-1
 613 525 l 1,26,27
 658 745 658 745 509 745 c 0,28,29
 464 745 464 745 424 730.5 c 0
 384 716 384 716 363.5 701 c 0
 343 686 343 686 317 662 c 1,30,-1
 222 0 l 1,31,-1
 59 0 l 9,0,-1
659.663 1222.93 m 17,32,33
 726.598 1256 726.598 1256 812.708 1256 c 0,34,35
 876.714 1256 876.714 1256 908.302 1233.54 c 0
 939.889 1211.09 939.889 1211.09 944.134 1168.19 c 0
 948.378 1125.28 948.378 1125.28 939.663 1062.93 c 1,36,-1
 830.708 378 l 2,37,38
 808 234.183 808 234.183 808 172.353 c 0,39,40
 808 149.874 808 149.874 814.554 134.519 c 0
 821.107 119.164 821.107 119.164 832.729 111.496 c 0
 844.351 103.828 844.351 103.828 860.299 99.7548 c 0
 876.246 95.6812 876.246 95.6812 895.034 95.7658 c 0
 913.822 95.8504 913.822 95.8504 934.708 96 c 1,41,-1
 926.708 15 l 1,42,43
 864.841 -17 864.841 -17 785.708 -17 c 0,44,45
 689.124 -17 689.124 -17 659.518 32.0172 c 0
 629.912 81.0343 629.912 81.0343 647.708 194 c 2,46,-1
 781.663 1058.93 l 2,47,48
 787.113 1092.08 787.113 1092.08 778.026 1111.5 c 0
 768.939 1130.92 768.939 1130.92 749.599 1136.48 c 0
 730.259 1142.04 730.259 1142.04 704.454 1143.69 c 0
 678.649 1145.33 678.649 1145.33 650.663 1142.93 c 1,49,-1
 659.663 1222.93 l 17,32,33
EndSplineSet
Fore
SplineSet
59 0 m 1,0,-1
 228 1120 l 2,1,2
 233 1153 233 1153 224 1172.5 c 128,-1,3
 215 1192 215 1192 195.5 1197.5 c 128,-1,4
 176 1203 176 1203 150.5 1205 c 128,-1,5
 125 1207 125 1207 97 1204 c 1,6,-1
 106 1284 l 1,7,8
 174 1317 174 1317 259 1317 c 0,9,10
 323 1317 323 1317 355 1294.5 c 128,-1,11
 387 1272 387 1272 391 1229 c 128,-1,12
 395 1186 395 1186 386 1124 c 2,13,-1
 343 846 l 1,14,-1
 315 722 l 1,15,-1
 327 722 l 1,16,17
 379 790 379 790 456 841.5 c 128,-1,18
 533 893 533 893 616 893 c 0,19,20
 829 893 829 893 780 613 c 1,21,-1
 745 378 l 1,22,23
 722 232 722 232 722 172 c 0,24,25
 722 150 722 150 728.5 134.5 c 128,-1,26
 735 119 735 119 746.5 111.5 c 128,-1,27
 758 104 758 104 774 100 c 128,-1,28
 790 96 790 96 795 96 c 130,-1,29
 849 96 l 1,30,-1
 841 15 l 1,31,32
 779 -17 779 -17 700 -17 c 0,33,34
 603 -17 603 -17 573 32.5 c 128,-1,35
 543 82 543 82 562 194 c 1,36,-1
 613 525 l 1,37,38
 658 745 658 745 509 745 c 0,39,40
 464 745 464 745 424 730.5 c 128,-1,41
 384 716 384 716 363.5 701 c 128,-1,42
 343 686 343 686 317 662 c 1,43,-1
 222 0 l 1,44,-1
 59 0 l 1,0,-1
EndSplineSet
Colour: ffffff
EndChar

StartChar: i
Encoding: 73 105 61
Width: 493
VWidth: 0
Flags: MW
LayerCount: 3
Back
SplineSet
466 16 m 21,0,1
 294 -19 294 -19 191 0 c 1,2,-1
 171.228 21 l 1,3,-1
 246 491 l 2,4,5
 268.708 632.93 268.708 632.93 268.708 688.647 c 0,6,7
 268.708 713.963 268.708 713.963 261.07 731.236 c 0
 253.431 748.509 253.431 748.509 243.527 757.212 c 0
 233.624 765.914 233.624 765.914 213.981 770.149 c 0
 194.338 774.384 194.338 774.384 180.838 774.887 c 0
 167.339 775.39 167.339 775.39 142 775 c 1,8,-1
 150 854 l 1,9,10
 212 886 212 886 291 886 c 0,11,12
 385 886 385 886 415 832 c 0
 445 778 445 778 429 675 c 2,13,-1
 345 123 l 1,14,15
 384 102 384 102 475 87 c 1,16,-1
 466 16 l 21,0,1
EndSplineSet
Fore
SplineSet
345 1292 m 0,0,1
 390 1292 390 1292 421.5 1259.5 c 128,-1,2
 453 1227 453 1227 453 1179 c 0,3,4
 453 1132 453 1132 418.5 1100.5 c 128,-1,5
 384 1069 384 1069 334 1069 c 0,6,7
 290 1069 290 1069 258 1100.5 c 128,-1,8
 226 1132 226 1132 226 1177 c 0,9,10
 226 1223 226 1223 259.5 1257.5 c 128,-1,11
 293 1292 293 1292 345 1292 c 0,0,1
74 853 m 1,12,13
 142 886 142 886 227 886 c 0,14,15
 320 886 320 886 344.5 840.5 c 128,-1,16
 369 795 369 795 354 693 c 2,17,-1
 308 378 l 2,18,19
 285 219 285 219 285 172 c 0,20,21
 285 150 285 150 291.5 134.5 c 128,-1,22
 298 119 298 119 309.5 111.5 c 128,-1,23
 321 104 321 104 337 100 c 128,-1,24
 353 96 353 96 357.5 96 c 130,-1,25
 412 96 l 1,26,-1
 404 15 l 1,27,28
 342 -17 342 -17 263 -17 c 0,29,30
 167 -17 167 -17 138 31.5 c 128,-1,31
 109 80 109 80 125 194 c 2,32,-1
 196 689 l 2,33,34
 201 722 201 722 192 741.5 c 128,-1,35
 183 761 183 761 164 766.5 c 128,-1,36
 145 772 145 772 119 773.5 c 128,-1,37
 93 775 93 775 65 773 c 1,38,-1
 74 853 l 1,12,13
EndSplineSet
Colour: ffffff
EndChar

StartChar: j
Encoding: 74 106 62
Width: 478
VWidth: 0
Flags: MW
LayerCount: 3
Back
SplineSet
74.1289 853 m 21,0,1
 141.061 886.067 141.061 886.067 227.174 886.067 c 0,2,3
 291.18 886.067 291.18 886.067 322.768 863.611 c 0
 354.356 841.155 354.356 841.155 358.6 798.251 c 0
 362.844 755.348 362.844 755.348 354.129 693 c 2,4,-1
 308.129 378 l 2,5,6
 285.421 221.049 285.421 221.049 285.421 172.353 c 0,7,8
 285.421 149.874 285.421 149.874 291.975 134.519 c 0
 298.528 119.164 298.528 119.164 310.15 111.496 c 0
 321.772 103.828 321.772 103.828 337.72 99.7546 c 0
 353.667 95.6811 353.667 95.6811 372.455 95.7657 c 0
 391.243 95.8502 391.243 95.8502 412.129 96 c 1,9,-1
 404.129 15 l 1,10,11
 342.262 -17 342.262 -17 263.129 -17 c 0,12,13
 166.857 -17 166.857 -17 137.823 31.5445 c 0
 108.79 80.0891 108.79 80.0891 125.129 194 c 2,14,-1
 196.129 689 l 2,15,16
 201.579 722.147 201.579 722.147 192.492 741.567 c 0
 183.405 760.988 183.405 760.988 164.065 766.548 c 0
 144.725 772.108 144.725 772.108 118.92 773.755 c 0
 93.1148 775.401 93.1148 775.401 65.1289 773 c 1,17,-1
 74.1289 853 l 21,0,1
345.2 1291.6 m 4,18,19
 390.162 1291.6 390.162 1291.6 421.749 1259.17 c 0
 453.336 1226.75 453.336 1226.75 453.336 1178.71 c 0,20,21
 453.336 1131.47 453.336 1131.47 418.608 1100.29 c 0
 383.879 1069.11 383.879 1069.11 333.697 1069.11 c 0,22,23
 289.424 1069.11 289.424 1069.11 257.528 1100.56 c 0
 225.632 1132.02 225.632 1132.02 225.632 1177.01 c 0,24,25
 225.632 1223.05 225.632 1223.05 259.673 1257.33 c 0
 293.714 1291.6 293.714 1291.6 345.2 1291.6 c 4,18,19
EndSplineSet
Fore
SplineSet
337 1293 m 0,0,1
 382 1293 382 1293 414 1260 c 128,-1,2
 446 1227 446 1227 446 1179 c 128,-1,3
 446 1131 446 1131 411.5 1099.5 c 128,-1,4
 377 1068 377 1068 326 1068 c 0,5,6
 281 1068 281 1068 248.5 1100 c 128,-1,7
 216 1132 216 1132 216 1177 c 0,8,9
 216 1223 216 1223 250.5 1258 c 128,-1,10
 285 1293 285 1293 337 1293 c 0,0,1
358 687 m 1,11,-1
 270 86 l 2,12,13
 258 6 258 6 226 -66.5 c 128,-1,14
 194 -139 194 -139 155 -188 c 128,-1,15
 116 -237 116 -237 67 -279.5 c 128,-1,16
 18 -322 18 -322 -19 -345 c 128,-1,17
 -56 -368 -56 -368 -93 -386 c 1,18,-1
 -143 -307 l 1,19,20
 79 -145 79 -145 115 99 c 2,21,-1
 200 683 l 2,22,23
 205 716 205 716 196 735.5 c 128,-1,24
 187 755 187 755 168 760.5 c 128,-1,25
 149 766 149 766 123 767.5 c 128,-1,26
 97 769 97 769 69 767 c 1,27,-1
 78 847 l 1,28,29
 146 880 146 880 231 880 c 0,30,31
 324 880 324 880 349 834 c 128,-1,32
 374 788 374 788 358 687 c 1,11,-1
EndSplineSet
Colour: ffffff
EndChar

StartChar: k
Encoding: 75 107 63
Width: 801
VWidth: 0
Flags: MW
LayerCount: 3
Back
SplineSet
326 451 m 5,0,1
 426 511 426 511 510 599.5 c 0
 594 688 594 688 594 738 c 0,2,3
 594 770 594 770 564 779.5 c 0
 534 789 534 789 495 777 c 1,4,-1
 504 857 l 1,5,6
 559 890 559 890 627 890 c 0,7,8
 692 890 692 890 718 864 c 0
 744 838 744 838 744 770 c 0,9,10
 744 728 744 728 710 677.5 c 0
 676 627 676 627 625 582.5 c 0
 574 538 574 538 538 511 c 0
 502 484 502 484 473 466 c 1,11,-1
 510 383 l 2,12,13
 576 234 576 234 635 169 c 0
 694 104 694 104 773 89 c 2,14,-1
 799 84 l 1,15,-1
 786 6 l 1,16,17
 717 -15 717 -15 664 -15 c 0,18,19
 601 -15 601 -15 558.5 9 c 0
 516 33 516 33 474 98 c 0
 432 163 432 163 382 287 c 2,20,-1
 323 434 l 1,21,-1
 326 451 l 5,0,1
378 1063 m 13,22,-1
 221 0 l 1,23,-1
 58 0 l 1,24,-1
 220 1059 l 2,25,26
 225 1092 225 1092 216 1111.5 c 0
 207 1131 207 1131 187.5 1136.5 c 0
 168 1142 168 1142 142.5 1143.5 c 0
 117 1145 117 1145 89 1143 c 1,27,-1
 98 1223 l 1,28,29
 166 1256 166 1256 251 1256 c 0,30,31
 344 1256 344 1256 369 1210 c 0
 394 1164 394 1164 378 1063 c 13,22,-1
450 442 m 4,32,33
 522 488 522 488 626.5 599 c 0
 731 710 731 710 731 748 c 0,34,35
 731 772 731 772 694.5 779 c 0
 658 786 658 786 612 777 c 1,36,-1
 621 857 l 1,37,38
 674.813 890.066 674.813 890.066 744.045 890.066 c 0,39,40
 807.665 890.066 807.665 890.066 833.531 868.265 c 0
 859.398 846.465 859.398 846.465 859.398 790 c 0,41,42
 859.398 751.047 859.398 751.047 832.2 704.075 c 0
 805.002 657.104 805.002 657.104 768.314 618.453 c 0
 731.626 579.802 731.626 579.802 684.276 540.108 c 0
 636.926 500.414 636.926 500.414 606.992 478.965 c 0
 577.059 457.516 577.059 457.516 553 442 c 0
EndSplineSet
Fore
SplineSet
386 1124 m 2,0,-1
 221 0 l 1,1,-1
 58 0 l 1,2,-1
 228 1120 l 2,3,4
 233 1153 233 1153 224 1172.5 c 128,-1,5
 215 1192 215 1192 195.5 1197.5 c 128,-1,6
 176 1203 176 1203 150.5 1205 c 128,-1,7
 125 1207 125 1207 97 1204 c 1,8,-1
 106 1284 l 1,9,10
 174 1317 174 1317 259 1317 c 0,11,12
 323 1317 323 1317 355 1294.5 c 128,-1,13
 387 1272 387 1272 391 1229 c 128,-1,14
 395 1186 395 1186 386 1124 c 2,0,-1
326 451 m 1,15,16
 426 511 426 511 510 599.5 c 128,-1,17
 594 688 594 688 594 738 c 0,18,19
 594 770 594 770 564 779.5 c 128,-1,20
 534 789 534 789 495 777 c 1,21,-1
 504 857 l 1,22,23
 559 890 559 890 627 890 c 0,24,25
 692 890 692 890 718 864 c 128,-1,26
 744 838 744 838 744 770 c 0,27,28
 744 728 744 728 710 677.5 c 128,-1,29
 676 627 676 627 625 582.5 c 128,-1,30
 574 538 574 538 538 511 c 128,-1,31
 502 484 502 484 473 466 c 1,32,-1
 510 383 l 2,33,34
 576 234 576 234 635 169 c 128,-1,35
 694 104 694 104 773 89 c 2,36,-1
 799 84 l 1,37,-1
 786 6 l 1,38,39
 717 -15 717 -15 664 -15 c 0,40,41
 601 -15 601 -15 558.5 9 c 128,-1,42
 516 33 516 33 474 98 c 128,-1,43
 432 163 432 163 382 287 c 2,44,-1
 323 434 l 1,45,-1
 326 451 l 1,15,16
EndSplineSet
Colour: ffffff
EndChar

StartChar: l
Encoding: 76 108 64
Width: 410
VWidth: 0
Flags: MW
LayerCount: 3
Back
SplineSet
77.1523 1223 m 21,0,1
 144.723 1256 144.723 1256 230.152 1256 c 0,2,3
 294.158 1256 294.158 1256 325.745 1233.52 c 0
 357.331 1211.04 357.331 1211.04 361.559 1168.15 c 0
 365.788 1125.26 365.788 1125.26 357.152 1063 c 1,4,-1
 248.152 378 l 2,5,6
 225.152 232.333 225.152 232.333 225.152 172 c 0,7,8
 225.152 149.629 225.152 149.629 231.736 134.336 c 0
 238.32 119.043 238.32 119.043 249.984 111.408 c 0
 261.648 103.773 261.648 103.773 277.64 99.712 c 0
 293.632 95.6513 293.632 95.6513 312.448 95.744 c 0
 331.264 95.8367 331.264 95.8367 352.152 96 c 1,9,-1
 344.152 15 l 1,10,11
 282.285 -17 282.285 -17 203.152 -17 c 0,12,13
 106.735 -17 106.735 -17 77.0517 32.0569 c 0
 47.3688 81.1137 47.3688 81.1137 65.1523 194 c 2,14,-1
 199.152 1059 l 2,15,16
 204.508 1092.21 204.508 1092.21 195.418 1111.64 c 0
 186.327 1131.07 186.327 1131.07 167.027 1136.62 c 0
 147.727 1142.18 147.727 1142.18 121.949 1143.8 c 0
 96.1708 1145.42 96.1708 1145.42 68.1523 1143 c 1,17,-1
 77.1523 1223 l 21,0,1
214.955 1222.93 m 21,18,19
 281.89 1256 281.89 1256 368 1256 c 0,20,21
 432.006 1256 432.006 1256 463.594 1233.54 c 0
 495.181 1211.09 495.181 1211.09 499.426 1168.19 c 0
 503.67 1125.28 503.67 1125.28 494.955 1062.93 c 1,22,-1
 386 378 l 2,23,24
 363.292 234.183 363.292 234.183 363.292 172.353 c 0,25,26
 363.292 149.874 363.292 149.874 369.846 134.519 c 0
 376.399 119.164 376.399 119.164 388.021 111.496 c 0
 399.643 103.828 399.643 103.828 415.591 99.7548 c 0
 431.538 95.6813 431.538 95.6813 450.326 95.7658 c 0
 469.114 95.8503 469.114 95.8503 490 96 c 1,27,-1
 482 15 l 1,28,29
 420 -17 420 -17 341 -17 c 0,30,31
 244 -17 244 -17 214.5 32 c 0
 185 81 185 81 203 194 c 2,32,-1
 336.955 1058.93 l 2,33,34
 342.405 1092.08 342.405 1092.08 333.318 1111.5 c 0
 324.231 1130.92 324.231 1130.92 304.891 1136.48 c 0
 285.551 1142.04 285.551 1142.04 259.746 1143.69 c 0
 233.941 1145.33 233.941 1145.33 205.955 1142.93 c 1,35,-1
 214.955 1222.93 l 21,18,19
EndSplineSet
Fore
SplineSet
86 1284 m 1,0,1
 154 1317 154 1317 239 1317 c 0,2,3
 303 1317 303 1317 334.5 1294.5 c 128,-1,4
 366 1272 366 1272 370.5 1229 c 128,-1,5
 375 1186 375 1186 366 1124 c 1,6,-1
 248 378 l 2,7,8
 225 234 225 234 225 172 c 0,9,10
 225 150 225 150 231.5 134.5 c 128,-1,11
 238 119 238 119 250 111.5 c 128,-1,12
 262 104 262 104 278 100 c 128,-1,13
 294 96 294 96 312.5 96 c 128,-1,14
 331 96 331 96 352 96 c 1,15,-1
 344 15 l 1,16,17
 282 -17 282 -17 203 -17 c 0,18,19
 107 -17 107 -17 77.5 32 c 128,-1,20
 48 81 48 81 65 194 c 2,21,-1
 208 1120 l 2,22,23
 213 1153 213 1153 204 1172.5 c 128,-1,24
 195 1192 195 1192 176 1197.5 c 128,-1,25
 157 1203 157 1203 131 1205 c 128,-1,26
 105 1207 105 1207 77 1204 c 1,27,-1
 86 1284 l 1,0,1
EndSplineSet
Colour: ffffff
EndChar

StartChar: m
Encoding: 77 109 65
Width: 1402
VWidth: 0
Flags: MW
LayerCount: 3
Back
SplineSet
867 645 m 5,0,1
 897 673 897 673 921.5 691.5 c 0
 946 710 946 710 993 727.5 c 0
 1040 745 1040 745 1093 745 c 0,2,3
 1167 745 1167 745 1188 690 c 0
 1209 635 1209 635 1192 525 c 2,4,-1
 1140.71 197 l 1,5,6
 1121.47 84.615 1121.47 84.615 1151.6 35.3075 c 0
 1181.74 -14 1181.74 -14 1278.71 -14 c 0,7,8
 1357.84 -14 1357.84 -14 1419.71 18 c 1,9,-1
 1427.71 99 l 1,10,11
 1406.82 98.8503 1406.82 98.8503 1388.04 98.7658 c 0
 1369.25 98.6813 1369.25 98.6813 1353.3 102.755 c 0
 1337.35 106.828 1337.35 106.828 1325.73 114.496 c 0
 1314.11 122.164 1314.11 122.164 1307.55 137.519 c 0
 1301 152.874 1301 152.874 1301 175.353 c 0,12,13
 1301 236.269 1301 236.269 1323.71 378 c 1,14,-1
 1359 613 l 1,15,16
 1407 893 1407 893 1200 893 c 0,17,18
 1107 893 1107 893 1021 836.5 c 0
 935 780 935 780 877 705 c 1,19,-1
 867 645 l 5,0,1
EndSplineSet
Fore
SplineSet
582 0 m 1,0,-1
 648 525 l 2,1,2
 662 637 662 637 642 691 c 128,-1,3
 622 745 622 745 549 745 c 0,4,5
 505 745 505 745 466.5 730.5 c 128,-1,6
 428 716 428 716 407.5 701 c 128,-1,7
 387 686 387 686 362 662 c 1,8,-1
 267 0 l 1,9,-1
 104 0 l 1,10,-1
 196 697 l 2,11,12
 201 730 201 730 192 749.5 c 128,-1,13
 183 769 183 769 163.5 774.5 c 128,-1,14
 144 780 144 780 118.5 781.5 c 128,-1,15
 93 783 93 783 65 781 c 1,16,-1
 74 861 l 1,17,18
 142 894 142 894 227 894 c 0,19,20
 401 894 401 894 360 722 c 1,21,-1
 372 722 l 1,22,23
 423 790 423 790 498.5 841.5 c 128,-1,24
 574 893 574 893 656 893 c 0,25,26
 741 893 741 893 780.5 846 c 128,-1,27
 820 799 820 799 820 698 c 1,28,29
 847 734 847 734 879 766 c 128,-1,30
 911 798 911 798 951.5 828 c 128,-1,31
 992 858 992 858 1039.5 875.5 c 128,-1,32
 1087 893 1087 893 1134 893 c 0,33,34
 1229 893 1229 893 1264.5 826.5 c 128,-1,35
 1300 760 1300 760 1284 613 c 2,36,-1
 1258 378 l 2,37,38
 1254 346 1254 346 1247.5 297.5 c 128,-1,39
 1241 249 1241 249 1238 221.5 c 128,-1,40
 1235 194 1235 194 1235 175 c 0,41,42
 1235 153 1235 153 1241.5 137.5 c 128,-1,43
 1248 122 1248 122 1259.5 114.5 c 128,-1,44
 1271 107 1271 107 1287 103 c 128,-1,45
 1303 99 1303 99 1307.5 99 c 130,-1,46
 1362 99 l 1,47,-1
 1354 18 l 1,48,49
 1292 -14 1292 -14 1213 -14 c 0,50,51
 1117 -14 1117 -14 1088.5 34.5 c 128,-1,52
 1060 83 1060 83 1075 197 c 2,53,-1
 1117 525 l 2,54,55
 1132 636 1132 636 1113 690.5 c 128,-1,56
 1094 745 1094 745 1027 745 c 0,57,58
 959 745 959 745 909.5 717 c 128,-1,59
 860 689 860 689 818 644 c 1,60,61
 817 629 817 629 815 613 c 2,62,-1
 745 0 l 1,63,-1
 582 0 l 1,0,-1
EndSplineSet
Colour: ffffff
EndChar

StartChar: n
Encoding: 78 110 66
Width: 924
VWidth: 0
Flags: MW
LayerCount: 3
Back
SplineSet
426 722 m 5,0,-1
 438 722 l 1,1,2
 489 790 489 790 564.5 841.5 c 0
 640 893 640 893 722 893 c 0,3,4
 929 893 929 893 881 613 c 1,5,-1
 845.708 378 l 1,6,7
 823 234.183 823 234.183 823 172.353 c 0,8,9
 823 149.874 823 149.874 829.554 134.519 c 0
 836.107 119.164 836.107 119.164 847.729 111.496 c 0
 859.351 103.828 859.351 103.828 875.299 99.7548 c 0
 891.246 95.6813 891.246 95.6813 910.034 95.7658 c 0
 928.822 95.8504 928.822 95.8504 949.708 96 c 1,10,-1
 941.708 15 l 1,11,12
 879.841 -17 879.841 -17 800.708 -17 c 0,13,14
 703.742 -17 703.742 -17 673.603 32.3078 c 0
 643.464 81.6156 643.464 81.6156 662.708 194 c 1,15,-1
 714 525 l 1,16,17
 757 745 757 745 615 745 c 0,18,19
 571 745 571 745 532.5 730.5 c 0
 494 716 494 716 473.5 701 c 0
 453 686 453 686 428 662 c 1,20,-1
 333 0 l 1,21,-1
 170 0 l 1,22,-1
 271 675 l 2,23,24
 276 708 276 708 267 727.5 c 0
 258 747 258 747 238.5 752.5 c 0
 219 758 219 758 193.5 759.5 c 0
 168 761 168 761 140 759 c 1,25,-1
 149 839 l 1,26,27
 215.933 872.066 215.933 872.066 302.045 872.066 c 0,28,29
 364.569 872.066 364.569 872.066 395.567 854.578 c 0
 426.566 837.09 426.566 837.09 430.74 803.742 c 0
 434.915 770.394 434.915 770.394 426 722 c 5,0,-1
EndSplineSet
Fore
SplineSet
360 722 m 1,0,-1
 372 722 l 1,1,2
 423 790 423 790 498.5 841.5 c 128,-1,3
 574 893 574 893 656 893 c 0,4,5
 862 893 862 893 815 613 c 1,6,-1
 780 378 l 1,7,8
 757 234 757 234 757 175 c 0,9,10
 757 153 757 153 763.5 137.5 c 128,-1,11
 770 122 770 122 781.5 114.5 c 128,-1,12
 793 107 793 107 809 103 c 128,-1,13
 825 99 825 99 829.5 99 c 130,-1,14
 884 99 l 1,15,-1
 876 18 l 1,16,17
 814 -14 814 -14 735 -14 c 0,18,19
 638 -14 638 -14 608 35.5 c 128,-1,20
 578 85 578 85 597 197 c 1,21,-1
 648 525 l 2,22,23
 665 635 665 635 644 690 c 128,-1,24
 623 745 623 745 549 745 c 0,25,26
 505 745 505 745 466.5 730.5 c 128,-1,27
 428 716 428 716 407.5 701 c 128,-1,28
 387 686 387 686 362 662 c 1,29,-1
 267 0 l 1,30,-1
 104 0 l 1,31,-1
 196 697 l 2,32,33
 201 730 201 730 192 749.5 c 128,-1,34
 183 769 183 769 163.5 774.5 c 128,-1,35
 144 780 144 780 118.5 781.5 c 128,-1,36
 93 783 93 783 65 781 c 1,37,-1
 74 861 l 1,38,39
 142 894 142 894 227 894 c 0,40,41
 401 894 401 894 360 722 c 1,0,-1
EndSplineSet
Colour: ffffff
EndChar

StartChar: o
Encoding: 79 111 67
Width: 819
VWidth: 0
Flags: MW
LayerCount: 3
Back
SplineSet
219 395 m 0,0,1
 219 348 219 348 229.5 298 c 0
 240 248 240 248 261.5 200.5 c 0
 283 153 283 153 322 122.5 c 0
 361 92 361 92 411 92 c 0,2,3
 503.422 92 503.422 92 559.918 194.72 c 0
 616.414 297.439 616.414 297.439 616.414 478.966 c 0,4,5
 616.414 618.952 616.414 618.952 564.512 696.145 c 0
 512.609 773.339 512.609 773.339 432.589 773.339 c 0,6,7
 331.532 773.339 331.532 773.339 275.266 669.719 c 0
 219 566.099 219 566.099 219 395 c 0,0,1
496 893 m 3,8,9
 633 893 633 893 709 788.5 c 0
 785 684 785 684 785 520 c 0,10,11
 785 419 785 419 751 320.5 c 0
 717 222 717 222 658 145.5 c 0
 599 69 599 69 513 21.5 c 0
 427 -26 427 -26 331 -26 c 0,12,13
 257 -26 257 -26 201 5.5 c 0
 145 37 145 37 112.5 91.5 c 0
 80 146 80 146 64 211 c 0
 48 276 48 276 48 349 c 0,14,15
 48 484 48 484 103.5 607.5 c 0
 159 731 159 731 264 812 c 0
 369 893 369 893 496 893 c 3,8,9
EndSplineSet
Fore
SplineSet
314 -26 m 0,0,1
 222 -26 222 -26 155.5 24 c 128,-1,2
 89 74 89 74 57 157.5 c 128,-1,3
 25 241 25 241 25 347 c 0,4,5
 25 452 25 452 59 551 c 128,-1,6
 93 650 93 650 152 725.5 c 128,-1,7
 211 801 211 801 296.5 847 c 128,-1,8
 382 893 382 893 479 893 c 0,9,10
 536 893 536 893 583.5 872 c 128,-1,11
 631 851 631 851 663.5 814.5 c 128,-1,12
 696 778 696 778 718.5 729.5 c 128,-1,13
 741 681 741 681 751.5 627 c 128,-1,14
 762 573 762 573 762 515 c 0,15,16
 762 435 762 435 741 356 c 128,-1,17
 720 277 720 277 680 208.5 c 128,-1,18
 640 140 640 140 586 87.5 c 128,-1,19
 532 35 532 35 461.5 4.5 c 128,-1,20
 391 -26 391 -26 314 -26 c 0,0,1
596 472 m 0,21,22
 596 533 596 533 585 585.5 c 128,-1,23
 574 638 574 638 551.5 681.5 c 128,-1,24
 529 725 529 725 490 750 c 128,-1,25
 451 775 451 775 399 775 c 0,26,27
 304 775 304 775 247 674 c 128,-1,28
 190 573 190 573 190 388 c 0,29,30
 190 248 190 248 242.5 171 c 128,-1,31
 295 94 295 94 377 94 c 0,32,33
 482 94 482 94 539 194.5 c 128,-1,34
 596 295 596 295 596 472 c 0,21,22
EndSplineSet
Colour: ffffff
EndChar

StartChar: p
Encoding: 80 112 68
Width: 905
VWidth: 0
Flags: MW
LayerCount: 3
Back
SplineSet
476 722 m 5,0,-1
 489 720 l 1,1,2
 524 786 524 786 596.5 838 c 0
 669 890 669 890 746 890 c 0,3,4
 850 890 850 890 918 796.5 c 0
 986 703 986 703 986 542 c 0,5,6
 986 433.981 986 433.981 943.544 330.208 c 0
 901.088 226.436 901.088 226.436 833.17 150.949 c 0
 765.253 75.4626 765.253 75.4626 676.714 29.2811 c 0
 588.176 -16.9004 588.176 -16.9004 499.541 -16.9004 c 0,7,8
 437.871 -16.9004 437.871 -16.9004 413 -8 c 1,9,-1
 436 114 l 1,10,11
 456 105 456 105 466 101 c 0
 476 97 476 97 501.5 93 c 0
 527 89 527 89 564 89 c 0,12,13
 593 89 593 89 625.5 102 c 0
 658 115 658 115 692.5 145.5 c 0
 727 176 727 176 754.5 220 c 0
 782 264 782 264 799.5 333 c 0
 817 402 817 402 817 486 c 0,14,15
 817 605 817 605 772.5 675.5 c 0
 728 746 728 746 666 746 c 0,16,17
 609 746 609 746 571.5 725.5 c 0
 534 705 534 705 480 651 c 1,18,-1
 341 -263 l 1,19,-1
 496 -294 l 1,20,-1
 478 -365 l 1,21,-1
 42 -365 l 1,22,-1
 62 -291 l 1,23,-1
 182 -258 l 1,24,-1
 321 675 l 2,25,26
 326 708 326 708 317 727.5 c 0
 308 747 308 747 288.5 752.5 c 0
 269 758 269 758 243.5 759.5 c 0
 218 761 218 761 190 759 c 1,27,-1
 199 839 l 1,28,29
 265.933 872.066 265.933 872.066 352.045 872.066 c 0,30,31
 414.569 872.066 414.569 872.066 445.567 854.578 c 0
 476.566 837.09 476.566 837.09 480.74 803.742 c 0
 484.915 770.394 484.915 770.394 476 722 c 5,0,-1
EndSplineSet
Fore
SplineSet
30 -366 m 1,0,-1
 183 675 l 2,1,2
 188 708 188 708 179 727.5 c 128,-1,3
 170 747 170 747 150.5 752.5 c 128,-1,4
 131 758 131 758 105.5 759.5 c 128,-1,5
 80 761 80 761 52 759 c 1,6,-1
 61 839 l 1,7,8
 129 872 129 872 214 872 c 0,9,10
 305 872 305 872 329.5 836 c 128,-1,11
 354 800 354 800 338 722 c 1,12,-1
 351 720 l 1,13,14
 387 786 387 786 459 838 c 128,-1,15
 531 890 531 890 608 890 c 0,16,17
 712 890 712 890 780 797 c 128,-1,18
 848 704 848 704 848 542 c 0,19,20
 848 434 848 434 805.5 330.5 c 128,-1,21
 763 227 763 227 695 151 c 128,-1,22
 627 75 627 75 538.5 29 c 128,-1,23
 450 -17 450 -17 362 -17 c 0,24,25
 302 -17 302 -17 275 -8 c 1,26,-1
 298 114 l 1,27,28
 317 105 317 105 327.5 101 c 128,-1,29
 338 97 338 97 363.5 93 c 128,-1,30
 389 89 389 89 426 89 c 0,31,32
 455 89 455 89 487.5 102 c 128,-1,33
 520 115 520 115 554.5 145.5 c 128,-1,34
 589 176 589 176 616.5 220 c 128,-1,35
 644 264 644 264 661.5 333 c 128,-1,36
 679 402 679 402 679 486 c 0,37,38
 679 605 679 605 634.5 675.5 c 128,-1,39
 590 746 590 746 528 746 c 0,40,41
 471 746 471 746 433.5 725.5 c 128,-1,42
 396 705 396 705 342 651 c 1,43,-1
 189 -366 l 1,44,-1
 30 -366 l 1,0,-1
EndSplineSet
Colour: ffffff
EndChar

StartChar: q
Encoding: 81 113 69
Width: 776
VWidth: 0
Flags: MW
LayerCount: 3
Back
SplineSet
715 687 m 1,0,-1
 627 86 l 2,1,2
 615 6 615 6 583 -66.5 c 0
 551 -139 551 -139 512 -188 c 0
 473 -237 473 -237 424 -279.5 c 0
 375 -322 375 -322 338 -345 c 0
 301 -368 301 -368 264 -386 c 1,3,-1
 214 -307 l 1,4,5
 436 -145 436 -145 472 99 c 2,6,-1
 557 683 l 2,7,8
 562 716 562 716 553 735.5 c 0
 544 755 544 755 525 760.5 c 0
 506 766 506 766 480 767.5 c 0
 454 769 454 769 426 767 c 1,9,-1
 435 847 l 1,10,11
 503 880 503 880 588 880 c 0,12,13
 681 880 681 880 706 834 c 0
 731 788 731 788 715 687 c 1,0,-1
706 1293 m 0,14,15
 751 1293 751 1293 783 1260 c 0
 815 1227 815 1227 815 1179 c 0,16,17
 815 1131 815 1131 780.5 1099.5 c 0
 746 1068 746 1068 695 1068 c 0,18,19
 650 1068 650 1068 617.5 1100 c 0
 585 1132 585 1132 585 1177 c 0,20,21
 585 1223 585 1223 619.5 1258 c 0
 654 1293 654 1293 706 1293 c 0,14,15
EndSplineSet
Fore
SplineSet
405 -364 m 1,0,-1
 565 746 l 1,1,2
 527 781 527 781 446 781 c 0,3,4
 370 781 370 781 308.5 709.5 c 128,-1,5
 247 638 247 638 216.5 533.5 c 128,-1,6
 186 429 186 429 186 320 c 0,7,8
 186 226 186 226 217.5 164 c 128,-1,9
 249 102 249 102 308 102 c 0,10,11
 388 102 388 102 439 137 c 1,12,-1
 442 82 l 1,13,14
 402 33 402 33 351.5 6 c 128,-1,15
 301 -21 301 -21 219 -21 c 0,16,17
 127 -21 127 -21 75.5 58.5 c 128,-1,18
 24 138 24 138 24 264 c 0,19,20
 24 379 24 379 56 481 c 128,-1,21
 88 583 88 583 140.5 655.5 c 128,-1,22
 193 728 193 728 259.5 781 c 128,-1,23
 326 834 326 834 397 859.5 c 128,-1,24
 468 885 468 885 535 885 c 0,25,26
 694 885 694 885 736 832 c 1,27,-1
 560 -364 l 1,28,-1
 405 -364 l 1,0,-1
EndSplineSet
Colour: ffffff
EndChar

StartChar: r
Encoding: 82 114 70
Width: 646
VWidth: 0
Flags: MW
LayerCount: 3
Back
SplineSet
426 722 m 5,0,-1
 438 722 l 1,1,2
 489 790 489 790 564.5 841.5 c 0
 640 893 640 893 722 893 c 0,3,4
 929 893 929 893 881 613 c 1,5,-1
 845.708 378 l 1,6,7
 823 236.281 823 236.281 823 175.353 c 0,8,9
 823 152.874 823 152.874 829.554 137.519 c 0
 836.107 122.164 836.107 122.164 847.729 114.496 c 0
 859.351 106.828 859.351 106.828 875.299 102.755 c 0
 891.246 98.6813 891.246 98.6813 910.034 98.7658 c 0
 928.822 98.8504 928.822 98.8504 949.708 99 c 1,10,-1
 941.708 18 l 1,11,12
 879.841 -14 879.841 -14 800.708 -14 c 0,13,14
 703.742 -14 703.742 -14 673.603 35.3078 c 0
 643.464 84.6156 643.464 84.6156 662.708 197 c 1,15,-1
 714 525 l 2,16,17
 731 635 731 635 710 690 c 0
 689 745 689 745 615 745 c 0,18,19
 571 745 571 745 532.5 730.5 c 0
 494 716 494 716 473.5 701 c 0
 453 686 453 686 428 662 c 1,20,-1
 333 0 l 1,21,-1
 170 0 l 1,22,-1
 262 697 l 2,23,24
 267 730 267 730 258 749.5 c 0
 249 769 249 769 229.5 774.5 c 0
 210 780 210 780 184.5 781.5 c 0
 159 783 159 783 131 781 c 1,25,-1
 140 861 l 1,26,27
 206.933 894.066 206.933 894.066 293.045 894.066 c 0,28,29
 380.66 894.066 380.66 894.066 413.76 851.99 c 0
 446.861 809.913 446.861 809.913 426 722 c 5,0,-1
EndSplineSet
Fore
SplineSet
104 0 m 1,0,-1
 196 697 l 2,1,2
 200 730 200 730 191 749.5 c 128,-1,3
 182 769 182 769 163 774.5 c 128,-1,4
 144 780 144 780 118.5 781.5 c 128,-1,5
 93 783 93 783 65 781 c 1,6,-1
 74 861 l 1,7,8
 142 894 142 894 227 894 c 0,9,10
 314 894 314 894 346 852.5 c 128,-1,11
 378 811 378 811 360 722 c 2,12,-1
 337 607 l 1,13,-1
 348 607 l 1,14,15
 384 719 384 719 447.5 805.5 c 128,-1,16
 511 892 511 892 581 892 c 0,17,18
 626 892 626 892 651.5 865 c 128,-1,19
 677 838 677 838 677 797 c 0,20,21
 677 721 677 721 621 665 c 1,22,23
 587 699 587 699 535 699 c 0,24,25
 494 699 494 699 451.5 663 c 128,-1,26
 409 627 409 627 384 589 c 128,-1,27
 359 551 359 551 338 508 c 1,28,-1
 271 0 l 1,29,-1
 104 0 l 1,0,-1
EndSplineSet
Colour: ffffff
EndChar

StartChar: s
Encoding: 83 115 71
Width: 685
VWidth: 0
Flags: MW
LayerCount: 3
Back
SplineSet
31 139 m 4,0,1
 31 191 31 191 65 222 c 0
 99 253 99 253 160 258 c 1,2,3
 181 154 181 154 211.5 110 c 0
 242 66 242 66 302 66 c 0,4,5
 354 66 354 66 389.5 99 c 0
 425 132 425 132 425 195 c 0,6,7
 425 230.928 425 230.928 405.117 264.792 c 0
 385.233 298.656 385.233 298.656 353.437 326.774 c 0
 321.641 354.892 321.641 354.892 283.188 383.28 c 0
 244.735 411.667 244.735 411.667 206.282 442.265 c 0
 167.829 472.862 167.829 472.862 136.033 505.687 c 0
 104.237 538.512 104.237 538.512 84.3532 581.502 c 0
 64.4697 624.492 64.4697 624.492 64.4697 672.044 c 0,8,9
 64.4697 741.669 64.4697 741.669 114.055 801.677 c 0
 163.64 861.686 163.64 861.686 237.112 894.343 c 0
 310.585 927 310.585 927 385 927 c 0,10,11
 507 927 507 927 578 874.5 c 0
 649 822 649 822 649 750 c 0,12,13
 649 709 649 709 614 679 c 0
 579 649 579 649 517 644 c 1,14,15
 480 838 480 838 335 838 c 0,16,17
 282.36 838 282.36 838 249.576 804.034 c 0
 216.792 770.068 216.792 770.068 216.792 723.174 c 0,18,19
 216.792 688.871 216.792 688.871 236.272 657.363 c 0
 255.751 625.856 255.751 625.856 286.902 600.03 c 0
 318.052 574.204 318.052 574.204 355.724 547.995 c 0
 393.396 521.787 393.396 521.787 431.068 492.424 c 0
 468.74 463.062 468.74 463.062 499.89 430.516 c 0
 531.041 397.97 531.041 397.97 550.52 353.434 c 0
 570 308.897 570 308.897 570 258 c 0,20,21
 570 154 570 154 476 72 c 0
 382 -10 382 -10 251 -10 c 0,22,23
 153 -10 153 -10 92 27.5 c 0
 31 65 31 65 31 139 c 4,0,1
EndSplineSet
Fore
SplineSet
652 753 m 0,0,1
 652 701 652 701 618 670 c 128,-1,2
 584 639 584 639 523 634 c 1,3,4
 502 738 502 738 471.5 782 c 128,-1,5
 441 826 441 826 381 826 c 0,6,7
 329 826 329 826 293.5 793 c 128,-1,8
 258 760 258 760 258 697 c 0,9,10
 258 661 258 661 278 627 c 128,-1,11
 298 593 298 593 329.5 565 c 128,-1,12
 361 537 361 537 400 508.5 c 128,-1,13
 439 480 439 480 477.5 449.5 c 128,-1,14
 516 419 516 419 547.5 386 c 128,-1,15
 579 353 579 353 599 310 c 128,-1,16
 619 267 619 267 619 220 c 0,17,18
 619 116 619 116 516.5 40.5 c 128,-1,19
 414 -35 414 -35 298 -35 c 0,20,21
 175 -35 175 -35 103 18 c 128,-1,22
 31 71 31 71 31 142 c 0,23,24
 31 187 31 187 65.5 220 c 128,-1,25
 100 253 100 253 161 258 c 1,26,27
 182 140 182 140 223 97 c 128,-1,28
 264 54 264 54 346 54 c 0,29,30
 400 54 400 54 433 88 c 128,-1,31
 466 122 466 122 466 169 c 0,32,33
 466 215 466 215 429.5 257 c 128,-1,34
 393 299 393 299 341.5 335 c 128,-1,35
 290 371 290 371 238 410 c 128,-1,36
 186 449 186 449 149.5 507 c 128,-1,37
 113 565 113 565 113 634 c 0,38,39
 113 738 113 738 207 820 c 128,-1,40
 301 902 301 902 432 902 c 0,41,42
 530 902 530 902 591 864.5 c 128,-1,43
 652 827 652 827 652 753 c 0,0,1
EndSplineSet
Colour: ffffff
EndChar

StartChar: t
Encoding: 84 116 72
Width: 573
VWidth: 0
Flags: MW
LayerCount: 3
Back
SplineSet
602 689 m 2,0,1
 607 722 607 722 598 741.5 c 0
 589 761 589 761 569.5 766.5 c 0
 550 772 550 772 524.5 773.5 c 0
 499 775 499 775 471 773 c 1,2,-1
 480 853 l 1,3,4
 546.932 886.067 546.932 886.067 633.045 886.067 c 0,5,6
 696.933 886.067 696.933 886.067 728.229 863.554 c 0
 759.525 841.04 759.525 841.04 763.651 798.136 c 0
 767.777 755.232 767.777 755.232 760 693 c 2,7,-1
 688.708 173.066 l 2,8,9
 683.248 134.768 683.248 134.768 697.541 117.321 c 0
 711.833 99.8746 711.833 99.8746 744 95 c 2,10,-1
 810 83 l 1,11,-1
 792 14 l 1,12,13
 706 -18 706 -18 651 -18 c 1,14,15
 574.531 -19.4761 574.531 -19.4761 545.317 21.4051 c 0
 516.103 62.2863 516.103 62.2863 534.708 148.066 c 1,16,-1
 522.708 148.066 l 1,17,18
 491.006 106.175 491.006 106.175 451.317 70.1768 c 0
 411.628 34.1786 411.628 34.1786 353.432 5.62252 c 0
 295.237 -22.9336 295.237 -22.9336 238.708 -22.9336 c 0,19,20
 137.138 -22.9336 137.138 -22.9336 97.777 44.3583 c 0
 58.4162 111.65 58.4162 111.65 79.708 257.066 c 2,21,-1
 142 689 l 2,22,23
 147 722 147 722 138 741.5 c 0
 129 761 129 761 109.5 766.5 c 0
 90 772 90 772 64.5 773.5 c 0
 39 775 39 775 11 773 c 1,24,-1
 20 853 l 1,25,26
 86.9323 886.067 86.9323 886.067 173.045 886.067 c 0,27,28
 237.136 886.067 237.136 886.067 269.053 863.568 c 0
 300.97 841.069 300.97 841.069 305.299 798.166 c 0
 309.629 755.262 309.629 755.262 300 693 c 2,29,-1
 246.708 345.066 l 2,30,31
 230.057 234.854 230.057 234.854 250.841 179.96 c 0
 271.625 125.066 271.625 125.066 345.708 125.066 c 0,32,33
 389.261 125.066 389.261 125.066 428.215 139.691 c 0
 467.169 154.317 467.169 154.317 487.535 169.44 c 0
 507.9 184.564 507.9 184.564 532.708 208.066 c 1,34,-1
 602 689 l 2,0,1
EndSplineSet
Fore
SplineSet
65 766 m 1,0,-1
 75 862 l 1,1,-1
 180 862 l 1,2,-1
 214 1080 l 1,3,-1
 368 1080 l 1,4,-1
 333 862 l 1,5,-1
 553 862 l 1,6,-1
 534 766 l 1,7,-1
 318 766 l 1,8,-1
 251 347 l 2,9,10
 230 216 230 216 252 169 c 128,-1,11
 274 122 274 122 361 122 c 0,12,13
 416 122 416 122 466 155 c 1,14,-1
 479 102 l 1,15,16
 385 -21 385 -21 253 -21 c 0,17,18
 141 -21 141 -21 104 56 c 128,-1,19
 67 133 67 133 91 289 c 2,20,-1
 165 766 l 1,21,-1
 65 766 l 1,0,-1
EndSplineSet
Colour: ffffff
EndChar

StartChar: u
Encoding: 85 117 73
Width: 884
VWidth: 0
Flags: MW
LayerCount: 3
Back
SplineSet
480 853 m 21,0,1
 546.932 886.067 546.932 886.067 633.045 886.067 c 0,2,3
 697.051 886.067 697.051 886.067 728.639 863.611 c 0
 760.227 841.155 760.227 841.155 764.471 798.251 c 0
 768.715 755.348 768.715 755.348 760 693 c 2,4,-1
 714 378 l 2,5,6
 691.292 221.049 691.292 221.049 691.292 172.353 c 0,7,8
 691.292 149.874 691.292 149.874 697.846 134.519 c 0
 704.399 119.164 704.399 119.164 716.021 111.496 c 0
 727.643 103.828 727.643 103.828 743.591 99.7548 c 0
 759.538 95.6812 759.538 95.6812 778.326 95.7658 c 0
 797.114 95.8504 797.114 95.8504 818 96 c 1,9,-1
 810 15 l 1,10,11
 748 -17 748 -17 669 -17 c 0,12,13
 573 -17 573 -17 544 31.5 c 0
 515 80 515 80 531 194 c 2,14,-1
 602 689 l 2,15,16
 607 722 607 722 598 741.5 c 0
 589 761 589 761 570 766.5 c 0
 551 772 551 772 525 773.5 c 0
 499 775 499 775 471 773 c 1,17,-1
 480 853 l 21,0,1
291.071 1291.6 m 0,18,19
 336.033 1291.6 336.033 1291.6 367.62 1259.17 c 0
 399.207 1226.75 399.207 1226.75 399.207 1178.71 c 0,20,21
 399.207 1131.47 399.207 1131.47 364.479 1100.29 c 0
 329.75 1069.11 329.75 1069.11 279.568 1069.11 c 0,22,23
 235.295 1069.11 235.295 1069.11 203.399 1100.56 c 0
 171.503 1132.02 171.503 1132.02 171.503 1177.01 c 0,24,25
 171.503 1223.05 171.503 1223.05 205.544 1257.33 c 0
 239.585 1291.6 239.585 1291.6 291.071 1291.6 c 0,18,19
EndSplineSet
Fore
SplineSet
656 689 m 2,0,1
 661 722 661 722 652 741.5 c 128,-1,2
 643 761 643 761 623.5 766.5 c 128,-1,3
 604 772 604 772 578.5 773.5 c 128,-1,4
 553 775 553 775 525 773 c 1,5,-1
 534 853 l 1,6,7
 602 886 602 886 687 886 c 0,8,9
 780 886 780 886 803.5 841 c 128,-1,10
 827 796 827 796 814 693 c 1,11,-1
 743 173 l 2,12,13
 737 135 737 135 751.5 117.5 c 128,-1,14
 766 100 766 100 798 95 c 2,15,-1
 864 83 l 1,16,-1
 846 14 l 1,17,18
 760 -18 760 -18 705 -18 c 1,19,20
 629 -20 629 -20 599.5 21 c 128,-1,21
 570 62 570 62 589 148 c 1,22,-1
 577 148 l 1,23,24
 526 80 526 80 450.5 28.5 c 128,-1,25
 375 -23 375 -23 293 -23 c 0,26,27
 191 -23 191 -23 151.5 44.5 c 128,-1,28
 112 112 112 112 134 257 c 1,29,-1
 196 689 l 2,30,31
 201 722 201 722 192 741.5 c 128,-1,32
 183 761 183 761 163.5 766.5 c 128,-1,33
 144 772 144 772 118.5 773.5 c 128,-1,34
 93 775 93 775 65 773 c 1,35,-1
 74 853 l 1,36,37
 142 886 142 886 227 886 c 0,38,39
 320 886 320 886 345 840 c 128,-1,40
 370 794 370 794 354 693 c 2,41,-1
 301 345 l 2,42,43
 284 235 284 235 305 180 c 128,-1,44
 326 125 326 125 400 125 c 0,45,46
 444 125 444 125 482.5 139.5 c 128,-1,47
 521 154 521 154 541.5 169 c 128,-1,48
 562 184 562 184 587 208 c 1,49,-1
 656 689 l 2,0,1
EndSplineSet
Colour: ffffff
EndChar

StartChar: v
Encoding: 86 118 74
Width: 790
VWidth: 0
Flags: MW
LayerCount: 3
Back
SplineSet
324 451 m 1,0,1
 424 511 424 511 508 599.5 c 0
 592 688 592 688 592 738 c 0,2,3
 592 770 592 770 562 779.5 c 0
 532 789 532 789 493 777 c 1,4,-1
 502 857 l 1,5,6
 555.813 890.066 555.813 890.066 625.045 890.066 c 0,7,8
 689.768 890.066 689.768 890.066 716.083 863.908 c 0
 742.398 837.75 742.398 837.75 742.398 770 c 0,9,10
 742.398 735.972 742.398 735.972 718.307 694.939 c 0
 694.216 653.906 694.216 653.906 661.719 620.142 c 0
 629.221 586.378 629.221 586.378 587.28 551.703 c 0
 545.339 517.027 545.339 517.027 518.825 498.291 c 0
 492.311 479.554 492.311 479.554 471 466 c 1,11,-1
 508 383 l 2,12,13
 575 233 575 233 633.5 168.5 c 0
 692 104 692 104 771 89 c 2,14,-1
 797 84 l 1,15,-1
 784 6 l 1,16,17
 712.956 -15.0635 712.956 -15.0635 662.111 -15.0635 c 0,18,19
 599.232 -15.0635 599.232 -15.0635 556.354 9.17974 c 0
 513.476 33.423 513.476 33.423 471.615 98.2306 c 0
 429.753 163.038 429.753 163.038 380 287 c 2,20,-1
 321 434 l 1,21,-1
 324 451 l 1,0,1
375.955 1062.93 m 10,22,-1
 219 0 l 1,23,-1
 56 0 l 1,24,-1
 217.955 1058.93 l 2,25,26
 222.972 1092.17 222.972 1092.17 213.803 1111.59 c 0
 204.635 1131.02 204.635 1131.02 185.434 1136.57 c 0
 166.232 1142.12 166.232 1142.12 140.575 1143.72 c 0
 114.917 1145.32 114.917 1145.32 86.9551 1142.93 c 1,27,-1
 95.9551 1222.93 l 1,28,29
 162.89 1256 162.89 1256 249 1256 c 0,30,31
 313.037 1256 313.037 1256 344.786 1233.5 c 0
 376.534 1211 376.534 1211 380.81 1168.1 c 0
 385.085 1125.19 385.085 1125.19 375.955 1062.93 c 10,22,-1
EndSplineSet
Fore
SplineSet
772 770 m 0,0,1
 772 681 772 681 659.5 453 c 128,-1,2
 547 225 547 225 407 -10 c 1,3,-1
 303 -28 l 1,4,-1
 177 689 l 2,5,6
 171 723 171 723 159.5 741.5 c 128,-1,7
 148 760 148 760 132 766.5 c 128,-1,8
 116 773 116 773 93.5 774 c 128,-1,9
 71 775 71 775 43 773 c 1,10,-1
 52 853 l 1,11,12
 116 886 116 886 195 886 c 0,13,14
 217 886 217 886 234 882.5 c 128,-1,15
 251 879 251 879 264.5 870.5 c 128,-1,16
 278 862 278 862 288 853.5 c 128,-1,17
 298 845 298 845 306 827.5 c 128,-1,18
 314 810 314 810 318.5 797.5 c 128,-1,19
 323 785 323 785 328 759.5 c 128,-1,20
 333 734 333 734 335.5 717.5 c 128,-1,21
 338 701 338 701 343 669 c 2,22,-1
 414 155 l 1,23,24
 469 251 469 251 499 308.5 c 128,-1,25
 529 366 529 366 561.5 443 c 128,-1,26
 594 520 594 520 608 591 c 128,-1,27
 622 662 622 662 622 738 c 0,28,29
 622 769 622 769 592 778.5 c 128,-1,30
 562 788 562 788 523 777 c 1,31,-1
 532 857 l 1,32,33
 587 890 587 890 655 890 c 0,34,35
 772 890 772 890 772 770 c 0,0,1
EndSplineSet
Colour: ffffff
EndChar

StartChar: w
Encoding: 87 119 75
Width: 1183
VWidth: 0
Flags: MW
LayerCount: 3
Back
SplineSet
275.602 -60 m 0,0,1
 275.602 1.71542 275.602 1.71542 339.804 149.11 c 0
 404.005 296.504 404.005 296.504 479.966 436.721 c 0
 555.926 576.938 555.926 576.938 641 720 c 1,2,-1
 745 738 l 1,3,-1
 871 21 l 2,4,5
 877 -13 877 -13 888.5 -31.5 c 0
 900 -50 900 -50 916 -56.5 c 0
 932 -63 932 -63 954.5 -64 c 0
 977 -65 977 -65 1005 -63 c 1,6,-1
 996 -143 l 1,7,8
 933.441 -176.067 933.441 -176.067 852.955 -176.067 c 0,9,10
 831.296 -176.067 831.296 -176.067 813.931 -172.779 c 0
 796.567 -169.49 796.567 -169.49 783.148 -160.633 c 0
 769.729 -151.776 769.729 -151.776 759.912 -143.483 c 0
 750.096 -135.191 750.096 -135.191 742.216 -117.657 c 0
 734.337 -100.123 734.337 -100.123 729.455 -87.5092 c 0
 724.574 -74.8953 724.574 -74.8953 719.621 -49.3682 c 0
 714.669 -23.841 714.669 -23.841 712.11 -7.58854 c 0
 709.551 8.66395 709.551 8.66395 705 41 c 2,11,-1
 634 555 l 1,12,13
 525 365 525 365 475.5 240 c 0
 426 115 426 115 426 -28 c 0,14,15
 426 -59 426 -59 456 -69 c 0
 486 -79 486 -79 525 -67 c 1,16,-1
 516 -147 l 1,17,18
 462.186 -180.066 462.186 -180.066 392.955 -180.066 c 0,19,20
 275.602 -180.066 275.602 -180.066 275.602 -60 c 0,0,1
EndSplineSet
Fore
SplineSet
598 777 m 1,0,-1
 708 799 l 1,1,-1
 835 155 l 1,2,3
 930 346 930 346 972.5 470.5 c 128,-1,4
 1015 595 1015 595 1015 738 c 0,5,6
 1015 769 1015 769 982 778.5 c 128,-1,7
 949 788 949 788 906 777 c 1,8,-1
 915 857 l 1,9,10
 975 890 975 890 1048 890 c 0,11,12
 1165 890 1165 890 1165 770 c 0,13,14
 1165 681 1165 681 1061 452.5 c 128,-1,15
 957 224 957 224 828 -10 c 1,16,-1
 724 -28 l 1,17,-1
 605 523 l 1,18,19
 521 271 521 271 407 -10 c 1,20,-1
 303 -28 l 1,21,-1
 177 689 l 2,22,23
 171 723 171 723 159.5 741.5 c 128,-1,24
 148 760 148 760 132 766.5 c 128,-1,25
 116 773 116 773 93.5 774 c 128,-1,26
 71 775 71 775 43 773 c 1,27,-1
 52 853 l 1,28,29
 116 886 116 886 195 886 c 0,30,31
 217 886 217 886 234 882.5 c 128,-1,32
 251 879 251 879 264.5 870.5 c 128,-1,33
 278 862 278 862 288 853.5 c 128,-1,34
 298 845 298 845 306 827.5 c 128,-1,35
 314 810 314 810 318.5 797.5 c 128,-1,36
 323 785 323 785 328 759.5 c 128,-1,37
 333 734 333 734 335.5 717.5 c 128,-1,38
 338 701 338 701 343 669 c 2,39,-1
 414 175 l 1,40,41
 468 319 468 319 494 392.5 c 128,-1,42
 520 466 520 466 551 574 c 128,-1,43
 582 682 582 682 598 777 c 1,0,-1
EndSplineSet
Colour: ffffff
EndChar

StartChar: x
Encoding: 88 120 76
Width: 883
VWidth: 0
Flags: MW
LayerCount: 3
Back
SplineSet
304.398 514 m 5,0,-1
 328.398 474 l 1,1,2
 288.463 437.228 288.463 437.228 265.518 414.772 c 0
 242.573 392.316 242.573 392.316 209.641 354.009 c 0
 176.709 315.701 176.709 315.701 158.99 284.179 c 0
 141.272 252.656 141.272 252.656 127.835 210.353 c 0
 114.398 168.05 114.398 168.05 114.398 125 c 0,3,4
 114.398 101.144 114.398 101.144 144.555 94.091 c 0
 174.713 87.0383 174.713 87.0383 213.398 96 c 1,5,-1
 204.398 16 l 1,6,7
 150.585 -17.0664 150.585 -17.0664 81.3535 -17.0664 c 0,8,9
 16.6301 -17.0664 16.6301 -17.0664 -9.68494 6.91304 c 0
 -36 30.8925 -36 30.8925 -36 93 c 0,10,11
 -36 140.124 -36 140.124 -5.78387 196.949 c 0
 24.4323 253.774 24.4323 253.774 65.1916 300.533 c 0
 105.951 347.292 105.951 347.292 158.556 395.313 c 0
 211.16 443.334 211.16 443.334 244.415 469.282 c 0
 277.669 495.229 277.669 495.229 304.398 514 c 5,0,-1
EndSplineSet
Fore
SplineSet
546 383 m 2,0,1
 615 232 615 232 673 168 c 128,-1,2
 731 104 731 104 809 89 c 2,3,-1
 835 84 l 1,4,-1
 822 6 l 1,5,6
 753 -15 753 -15 701 -15 c 0,7,8
 612 -15 612 -15 557.5 44 c 128,-1,9
 503 103 503 103 418 287 c 2,10,-1
 348 440 l 1,11,12
 308 403 308 403 280.5 372 c 128,-1,13
 253 341 253 341 225.5 301 c 128,-1,14
 198 261 198 261 184 216.5 c 128,-1,15
 170 172 170 172 170 125 c 0,16,17
 170 101 170 101 200 94 c 128,-1,18
 230 87 230 87 269 96 c 1,19,-1
 260 16 l 1,20,21
 205 -17 205 -17 137 -17 c 0,22,23
 72 -17 72 -17 46 7 c 128,-1,24
 20 31 20 31 20 93 c 0,25,26
 20 134 20 134 43 183 c 128,-1,27
 66 232 66 232 99 273.5 c 128,-1,28
 132 315 132 315 177 359.5 c 128,-1,29
 222 404 222 404 256 433 c 128,-1,30
 290 462 290 462 325 488 c 1,31,-1
 233 689 l 2,32,33
 218 722 218 722 204 739.5 c 128,-1,34
 190 757 190 757 173 765 c 128,-1,35
 156 773 156 773 134 773.5 c 128,-1,36
 112 774 112 774 79 773 c 1,37,-1
 88 853 l 1,38,39
 143 886 143 886 211 886 c 0,40,41
 276 886 276 886 311 854.5 c 128,-1,42
 346 823 346 823 396 713 c 2,43,-1
 517 447 l 1,44,45
 593 518 593 518 635.5 587 c 128,-1,46
 678 656 678 656 678 738 c 0,47,48
 678 770 678 770 648 779.5 c 128,-1,49
 618 789 618 789 579 777 c 1,50,-1
 588 857 l 1,51,52
 643 890 643 890 711 890 c 0,53,54
 776 890 776 890 802 864 c 128,-1,55
 828 838 828 838 828 770 c 0,56,57
 828 723 828 723 798.5 668 c 128,-1,58
 769 613 769 613 720.5 561 c 128,-1,59
 672 509 672 509 629 470.5 c 128,-1,60
 586 432 586 432 540 397 c 1,61,-1
 546 383 l 2,0,1
EndSplineSet
Colour: ffffff
EndChar

StartChar: y
Encoding: 89 121 77
Width: 778
VWidth: 0
Flags: MW
LayerCount: 3
Back
SplineSet
772 770 m 4,0,1
 772 681 772 681 659.5 453 c 0
 547 225 547 225 407 -10 c 1,2,-1
 303 -28 l 1,3,-1
 177 689 l 2,4,5
 171 723 171 723 159.5 741.5 c 0
 148 760 148 760 132 766.5 c 0
 116 773 116 773 93.5 774 c 0
 71 775 71 775 43 773 c 1,6,-1
 52 853 l 1,7,8
 116 886 116 886 195 886 c 0,9,10
 217 886 217 886 234 882.5 c 0
 251 879 251 879 264.5 870.5 c 0
 278 862 278 862 288 853.5 c 0
 298 845 298 845 306 827.5 c 0
 314 810 314 810 318.5 797.5 c 0
 323 785 323 785 328 759.5 c 0
 333 734 333 734 335.5 717.5 c 0
 338 701 338 701 343 669 c 2,11,-1
 414 155 l 1,12,13
 469 251 469 251 499 308.5 c 0
 529 366 529 366 561.5 443 c 0
 594 520 594 520 608 591 c 0
 622 662 622 662 622 738 c 0,14,15
 622 769 622 769 592 778.5 c 0
 562 788 562 788 523 777 c 1,16,-1
 532 857 l 1,17,18
 587 890 587 890 655 890 c 0,19,20
 772 890 772 890 772 770 c 4,0,1
EndSplineSet
Fore
SplineSet
435 -2 m 0,0,1
 406 -53 406 -53 387.5 -84 c 128,-1,2
 369 -115 369 -115 340 -160.5 c 128,-1,3
 311 -206 311 -206 289 -233 c 128,-1,4
 267 -260 267 -260 236.5 -292 c 128,-1,5
 206 -324 206 -324 177.5 -341 c 128,-1,6
 149 -358 149 -358 115 -370 c 128,-1,7
 81 -382 81 -382 45 -382 c 0,8,9
 -26 -382 -26 -382 -73 -349 c 128,-1,10
 -120 -316 -120 -316 -120 -257 c 0,11,12
 -120 -197 -120 -197 -73 -150 c 1,13,14
 10 -206 10 -206 88 -206 c 0,15,16
 172 -206 172 -206 231 -156 c 128,-1,17
 290 -106 290 -106 335 0 c 1,18,-1
 175 697 l 2,19,20
 167 731 167 731 155.5 749.5 c 128,-1,21
 144 768 144 768 128.5 774.5 c 128,-1,22
 113 781 113 781 91 782 c 128,-1,23
 69 783 69 783 41 781 c 1,24,-1
 50 861 l 1,25,26
 114 894 114 894 193 894 c 0,27,28
 226 894 226 894 249 884.5 c 128,-1,29
 272 875 272 875 286 860.5 c 128,-1,30
 300 846 300 846 310 818.5 c 128,-1,31
 320 791 320 791 325.5 764.5 c 128,-1,32
 331 738 331 738 338 696 c 0,33,34
 340 683 340 683 341 677 c 2,35,-1
 432 143 l 1,36,37
 456 185 456 185 481.5 240.5 c 128,-1,38
 507 296 507 296 539.5 379.5 c 128,-1,39
 572 463 572 463 592.5 560.5 c 128,-1,40
 613 658 613 658 613 746 c 0,41,42
 613 777 613 777 579 786.5 c 128,-1,43
 545 796 545 796 501 785 c 1,44,-1
 510 865 l 1,45,46
 569 898 569 898 643 898 c 0,47,48
 760 898 760 898 760 778 c 0,49,50
 760 684 760 684 653.5 436.5 c 128,-1,51
 547 189 547 189 435 -2 c 0,0,1
EndSplineSet
Colour: ffffff
EndChar

StartChar: z
Encoding: 90 122 78
Width: 778
VWidth: 0
Flags: MW
LayerCount: 3
Back
SplineSet
158 634 m 5,0,-1
 204 874 l 1,1,-1
 782 874 l 1,2,-1
 772 806 l 1,3,-1
 222 88 l 1,4,-1
 524 88 l 1,5,-1
 640 251 l 1,6,-1
 703 243 l 1,7,-1
 624 -2 l 1,8,-1
 46 -2 l 1,9,-1
 54 79 l 1,10,-1
 595 789 l 1,11,-1
 310 789 l 1,12,-1
 222 621 l 1,13,-1
 158 634 l 5,0,-1
EndSplineSet
Fore
SplineSet
101 -15 m 1,0,-1
 10 26 l 1,1,-1
 584 749 l 1,2,-1
 245 749 l 1,3,-1
 177 581 l 1,4,-1
 109 594 l 1,5,-1
 145 874 l 1,6,-1
 752 874 l 1,7,-1
 752 806 l 1,8,-1
 239 151 l 1,9,-1
 243 147 l 1,10,11
 245 147 245 147 257.5 150 c 128,-1,12
 270 153 270 153 276 154.5 c 128,-1,13
 282 156 282 156 295.5 158.5 c 128,-1,14
 309 161 309 161 317.5 162.5 c 128,-1,15
 326 164 326 164 339.5 165.5 c 128,-1,16
 353 167 353 167 363.5 166.5 c 128,-1,17
 374 166 374 166 386 165.5 c 128,-1,18
 398 165 398 165 408.5 162.5 c 128,-1,19
 419 160 419 160 429 156 c 2,20,-1
 526 116 l 1,21,22
 586 89 586 89 618.5 98 c 128,-1,23
 651 107 651 107 696 172 c 1,24,-1
 758 144 l 1,25,26
 728 78 728 78 694 36.5 c 128,-1,27
 660 -5 660 -5 629 -24 c 128,-1,28
 598 -43 598 -43 559 -45.5 c 128,-1,29
 520 -48 520 -48 488.5 -41 c 128,-1,30
 457 -34 457 -34 413 -18 c 2,31,-1
 280 30 l 2,32,33
 256 39 256 39 235 41.5 c 128,-1,34
 214 44 214 44 202.5 44 c 128,-1,35
 191 44 191 44 174.5 36.5 c 128,-1,36
 158 29 158 29 154.5 27 c 128,-1,37
 151 25 151 25 134 14 c 1,38,-1
 101 -15 l 1,0,-1
EndSplineSet
Colour: ffffff
EndChar

StartChar: braceleft
Encoding: 91 123 79
Width: 702
VWidth: 0
Flags: MW
LayerCount: 3
Back
SplineSet
4 389 m 1,0,-1
 4 488 l 1,1,-1
 53 497 l 2,2,3
 112 507 112 507 143.5 554.5 c 0
 175 602 175 602 183.5 669.5 c 0
 192 737 192 737 193 816 c 0
 194 895 194 895 200 972.5 c 0
 206 1050 206 1050 224 1113.5 c 0
 242 1177 242 1177 292.5 1216 c 0
 343 1255 343 1255 426 1255 c 2,4,-1
 527 1255 l 1,5,-1
 518 1155 l 1,6,-1
 436 1149 l 2,7,8
 390 1145 390 1145 377 1089.5 c 0
 364 1034 364 1034 364 921 c 2,9,-1
 364 862 l 2,10,11
 364 797 364 797 362 754.5 c 0
 360 712 360 712 350.5 654.5 c 0
 341 597 341 597 324 560 c 0
 307 523 307 523 274 490.5 c 0
 241 458 241 458 194 445 c 1,12,-1
 194 438 l 1,13,14
 254 421 254 421 291.5 372.5 c 0
 329 324 329 324 343 261.5 c 0
 357 199 357 199 361.5 127 c 0
 366 55 366 55 365.5 -14 c 0
 365 -83 365 -83 369.5 -140 c 0
 374 -197 374 -197 393 -233 c 0
 412 -269 412 -269 449 -271 c 2,15,-1
 523 -277 l 1,16,-1
 531 -378 l 1,17,-1
 429 -378 l 2,18,19
 345 -378 345 -378 293.5 -338.5 c 0
 242 -299 242 -299 223.5 -235.5 c 0
 205 -172 205 -172 199 -94 c 0
 193 -16 193 -16 192 63.5 c 0
 191 143 191 143 183.5 210.5 c 0
 176 278 176 278 145 325 c 0
 114 372 114 372 56 381 c 2,20,-1
 4 389 l 1,0,-1
EndSplineSet
Fore
SplineSet
382 -272 m 2,0,-1
 415 -277 l 1,1,-1
 406 -378 l 1,2,-1
 345 -378 l 2,3,4
 279 -378 279 -378 237 -353.5 c 128,-1,5
 195 -329 195 -329 178 -287.5 c 128,-1,6
 161 -246 161 -246 157.5 -191.5 c 128,-1,7
 154 -137 154 -137 160.5 -76.5 c 128,-1,8
 167 -16 167 -16 176 45.5 c 128,-1,9
 185 107 185 107 189.5 164 c 128,-1,10
 194 221 194 221 189 266.5 c 128,-1,11
 184 312 184 312 160 343 c 128,-1,12
 136 374 136 374 92 381 c 2,13,-1
 44 390 l 1,14,-1
 58 489 l 1,15,-1
 107 497 l 2,16,17
 155 505 155 505 189.5 536.5 c 128,-1,18
 224 568 224 568 244 613.5 c 128,-1,19
 264 659 264 659 278 716 c 128,-1,20
 292 773 292 773 302.5 834 c 128,-1,21
 313 895 313 895 325.5 955.5 c 128,-1,22
 338 1016 338 1016 358.5 1070 c 128,-1,23
 379 1124 379 1124 408.5 1165.5 c 128,-1,24
 438 1207 438 1207 487 1231 c 128,-1,25
 536 1255 536 1255 602 1255 c 2,26,-1
 661 1255 l 1,27,-1
 636 1156 l 1,28,-1
 596 1149 l 2,29,30
 561 1143 561 1143 538 1105.5 c 128,-1,31
 515 1068 515 1068 503 1011.5 c 128,-1,32
 491 955 491 955 481.5 887 c 128,-1,33
 472 819 472 819 456.5 748.5 c 128,-1,34
 441 678 441 678 418 616.5 c 128,-1,35
 395 555 395 555 349.5 508 c 128,-1,36
 304 461 304 461 241 444 c 1,37,-1
 240 438 l 1,38,39
 298 421 298 421 328 373.5 c 128,-1,40
 358 326 358 326 361.5 264.5 c 128,-1,41
 365 203 365 203 358.5 131.5 c 128,-1,42
 352 60 352 60 341 -8.5 c 128,-1,43
 330 -77 330 -77 325 -134 c 128,-1,44
 320 -191 320 -191 333 -228.5 c 128,-1,45
 346 -266 346 -266 382 -272 c 2,0,-1
EndSplineSet
Colour: ffffff
EndChar

StartChar: bar
Encoding: 92 124 80
Width: 452
VWidth: 0
Flags: MW
LayerCount: 3
Back
SplineSet
109 -366 m 1,0,-1
 109 1260 l 1,1,-1
 224 1248 l 1,2,-1
 224 -380 l 1,3,-1
 109 -366 l 1,0,-1
EndSplineSet
Fore
SplineSet
155 -363 m 1,0,-1
 41 -350 l 1,1,-1
 295 1255 l 1,2,-1
 409 1244 l 1,3,-1
 155 -363 l 1,0,-1
EndSplineSet
Colour: ffffff
EndChar

StartChar: braceright
Encoding: 93 125 81
Width: 709
VWidth: 0
Flags: MW
LayerCount: 3
Back
SplineSet
22 -378 m 1,0,-1
 31 -277 l 1,1,-1
 105 -271 l 2,2,3
 142 -269 142 -269 161 -233 c 0
 180 -197 180 -197 184.5 -140 c 0
 189 -83 189 -83 188.5 -14 c 0
 188 55 188 55 192.5 127 c 0
 197 199 197 199 211 261.5 c 0
 225 324 225 324 262.5 372.5 c 0
 300 421 300 421 360 438 c 1,4,-1
 360 445 l 1,5,6
 300 459 300 459 262.5 505 c 0
 225 551 225 551 212 613 c 0
 199 675 199 675 195 746.5 c 0
 191 818 191 818 192 887.5 c 0
 193 957 193 957 190 1014.5 c 0
 187 1072 187 1072 169.5 1109 c 0
 152 1146 152 1146 117 1149 c 2,7,-1
 35 1155 l 1,8,-1
 28 1255 l 1,9,-1
 129 1255 l 2,10,11
 194 1255 194 1255 239.5 1230.5 c 0
 285 1206 285 1206 307.5 1165 c 0
 330 1124 330 1124 342 1070 c 0
 354 1016 354 1016 356.5 955.5 c 0
 359 895 359 895 359.5 834 c 0
 360 773 360 773 365 716 c 0
 370 659 370 659 382.5 613 c 0
 395 567 395 567 424.5 536 c 0
 454 505 454 505 500 497 c 2,12,-1
 549 488 l 1,13,-1
 549 389 l 1,14,-1
 497 381 l 2,15,16
 439 372 439 372 408.5 325 c 0
 378 278 378 278 370 210.5 c 0
 362 143 362 143 361.5 63.5 c 0
 361 -16 361 -16 355.5 -94 c 0
 350 -172 350 -172 331.5 -235.5 c 0
 313 -299 313 -299 261.5 -338.5 c 0
 210 -378 210 -378 126 -378 c 2,17,-1
 22 -378 l 1,0,-1
EndSplineSet
Fore
SplineSet
98 -272 m 2,0,1
 136 -266 136 -266 161 -228.5 c 128,-1,2
 186 -191 186 -191 199 -134 c 128,-1,3
 212 -77 212 -77 222.5 -8.5 c 128,-1,4
 233 60 233 60 249 131.5 c 128,-1,5
 265 203 265 203 288.5 264.5 c 128,-1,6
 312 326 312 326 357 373.5 c 128,-1,7
 402 421 402 421 465 438 c 1,8,-1
 466 444 l 1,9,10
 408 461 408 461 377.5 508 c 128,-1,11
 347 555 347 555 343 616.5 c 128,-1,12
 339 678 339 678 346.5 748.5 c 128,-1,13
 354 819 354 819 365.5 887 c 128,-1,14
 377 955 377 955 383 1011.5 c 128,-1,15
 389 1068 389 1068 378.5 1105.5 c 128,-1,16
 368 1143 368 1143 334 1149 c 2,17,-1
 296 1156 l 1,18,-1
 303 1255 l 1,19,-1
 362 1255 l 2,20,21
 445 1255 445 1255 489.5 1216 c 128,-1,22
 534 1177 534 1177 542.5 1113.5 c 128,-1,23
 551 1050 551 1050 544.5 973 c 128,-1,24
 538 896 538 896 526.5 816.5 c 128,-1,25
 515 737 515 737 512.5 669.5 c 128,-1,26
 510 602 510 602 534.5 554.5 c 128,-1,27
 559 507 559 507 616 497 c 2,28,-1
 663 489 l 1,29,-1
 646 390 l 1,30,-1
 595 381 l 1,31,32
 536 372 536 372 497.5 325 c 128,-1,33
 459 278 459 278 440.5 210.5 c 128,-1,34
 422 143 422 143 408.5 63.5 c 128,-1,35
 395 -16 395 -16 376.5 -94 c 128,-1,36
 358 -172 358 -172 329.5 -235.5 c 128,-1,37
 301 -299 301 -299 243 -338.5 c 128,-1,38
 185 -378 185 -378 101 -378 c 2,39,-1
 40 -378 l 1,40,-1
 63 -277 l 1,41,-1
 98 -272 l 2,0,1
EndSplineSet
Colour: ffffff
EndChar

StartChar: asciitilde
Encoding: 94 126 82
Width: 896
VWidth: 0
Flags: MW
LayerCount: 3
Back
SplineSet
149 413 m 1,0,1
 152 422 152 422 158.5 436 c 0
 165 450 165 450 186.5 486 c 0
 208 522 208 522 232 548.5 c 0
 256 575 256 575 293.5 595 c 0
 331 615 331 615 370 611 c 2,2,-1
 808 566 l 2,3,4
 825 564 825 564 848.5 579.5 c 0
 872 595 872 595 887.5 611.5 c 2
 903 628 l 1,5,-1
 968 626 l 1,6,7
 964 617 964 617 957 602.5 c 0
 950 588 950 588 927 551 c 0
 904 514 904 514 879 487 c 0
 854 460 854 460 815.5 439.5 c 0
 777 419 777 419 738 424 c 2,8,-1
 299 469 l 2,9,10
 280 471 280 471 255 454 c 0
 230 437 230 437 215 418.5 c 2
 200 400 l 1,11,-1
 149 413 l 1,0,1
EndSplineSet
Fore
SplineSet
55 412 m 1,0,1
 57 421 57 421 62 435 c 128,-1,2
 67 449 67 449 84.5 485 c 128,-1,3
 102 521 102 521 122 547.5 c 128,-1,4
 142 574 142 574 175.5 594.5 c 128,-1,5
 209 615 209 615 246 611 c 2,6,-1
 696 566 l 2,7,8
 712 565 712 565 733 580.5 c 128,-1,9
 754 596 754 596 766 612 c 2,10,-1
 778 628 l 1,11,-1
 842 626 l 1,12,13
 839 617 839 617 834 602.5 c 128,-1,14
 829 588 829 588 811 551.5 c 128,-1,15
 793 515 793 515 772.5 488 c 128,-1,16
 752 461 752 461 717 440.5 c 128,-1,17
 682 420 682 420 644 424 c 2,18,-1
 194 469 l 2,19,20
 176 471 176 471 155 453.5 c 128,-1,21
 134 436 134 436 122 418 c 2,22,-1
 110 399 l 1,23,-1
 55 412 l 1,0,1
EndSplineSet
Colour: ffffff
EndChar

StartChar: exclamdown
Encoding: 96 161 83
Width: 496
VWidth: 0
Flags: MW
LayerCount: 3
Back
SplineSet
97 -378 m 0,0,1
 97 -110 97 -110 151 534 c 1,2,-1
 151 540 l 1,3,-1
 240 520 l 1,4,-1
 240 517 l 1,5,6
 294 -208 294 -208 294 -375 c 2,7,-1
 294 -378 l 1,8,9
 289 -397 289 -397 243.5 -407.5 c 0
 198 -418 198 -418 162 -418 c 0,10,11
 137 -418 137 -418 117 -408.5 c 0
 97 -399 97 -399 97 -378 c 0,0,1
70 784 m 0,12,13
 70 836 70 836 107 873 c 0
 144 910 144 910 196 910 c 0,14,15
 248 910 248 910 284 873 c 0
 320 836 320 836 320 783 c 0,16,17
 320 734 320 734 283 700 c 0
 246 666 246 666 196 666 c 0,18,19
 145 666 145 666 107.5 700 c 0
 70 734 70 734 70 784 c 0,12,13
EndSplineSet
Fore
SplineSet
239 -369 m 0,0,1
 235 -394 235 -394 198 -405 c 128,-1,2
 161 -416 161 -416 120 -416 c 0,3,4
 94 -416 94 -416 68 -408 c 128,-1,5
 42 -400 42 -400 42 -383 c 0,6,7
 42 -342 42 -342 116.5 7.5 c 128,-1,8
 191 357 191 357 239 519 c 1,9,-1
 323 500 l 1,10,11
 312 395 312 395 283 62 c 128,-1,12
 254 -271 254 -271 239 -369 c 0,0,1
306 666 m 0,13,14
 261 666 261 666 229.5 700 c 128,-1,15
 198 734 198 734 198 778 c 0,16,17
 198 837 198 837 243 874.5 c 128,-1,18
 288 912 288 912 345 912 c 0,19,20
 391 912 391 912 420 877 c 128,-1,21
 449 842 449 842 449 795 c 0,22,23
 449 737 449 737 406 701.5 c 128,-1,24
 363 666 363 666 306 666 c 0,13,14
EndSplineSet
Colour: ffffff
EndChar

StartChar: sterling
Encoding: 98 163 84
Width: 1167
VWidth: 0
Flags: MW
LayerCount: 3
Back
SplineSet
43 0 m 1,0,-1
 50 74 l 1,1,-1
 218 121 l 1,2,3
 240 191 240 191 247 264 c 0
 254 337 254 337 257 461 c 1,4,-1
 260 549 l 1,5,-1
 80 538 l 1,6,-1
 92 639 l 1,7,-1
 263 649 l 1,8,-1
 266 786 l 1,9,10
 273 1018 273 1018 383.5 1134 c 0
 494 1250 494 1250 673 1250 c 0,11,12
 813 1250 813 1250 906 1211 c 1,13,-1
 875 895 l 1,14,-1
 789 907 l 1,15,-1
 748 1121 l 1,16,17
 706 1143 706 1143 663 1143 c 0,18,19
 612 1143 612 1143 578 1128.5 c 0
 544 1114 544 1114 520.5 1085 c 0
 497 1056 497 1056 484.5 1001 c 0
 472 946 472 946 466 877.5 c 0
 460 809 460 809 458 703 c 1,20,-1
 458 655 l 1,21,-1
 676 669 l 1,22,-1
 666 568 l 1,23,-1
 455 555 l 1,24,-1
 454 515 l 1,25,26
 448 213 448 213 393 99 c 1,27,-1
 853 96 l 1,28,-1
 984 349 l 1,29,-1
 1070 331 l 1,30,-1
 1032 0 l 1,31,-1
 43 0 l 1,0,-1
EndSplineSet
Fore
SplineSet
43 0 m 1,0,-1
 62 74 l 1,1,-1
 237 121 l 1,2,3
 270 191 270 191 289 264.5 c 128,-1,4
 308 338 308 338 330 461 c 1,5,-1
 347 549 l 1,6,-1
 165 538 l 1,7,-1
 193 639 l 1,8,-1
 366 649 l 1,9,-1
 390 786 l 1,10,11
 434 1018 434 1018 563 1134 c 128,-1,12
 692 1250 692 1250 871 1250 c 0,13,14
 1011 1250 1011 1250 1098 1211 c 1,15,-1
 1017 895 l 1,16,-1
 933 907 l 1,17,-1
 926 1121 l 1,18,19
 888 1143 888 1143 844 1143 c 0,20,21
 793 1143 793 1143 756.5 1128.5 c 128,-1,22
 720 1114 720 1114 692.5 1085 c 128,-1,23
 665 1056 665 1056 643 1001 c 128,-1,24
 621 946 621 946 604.5 877.5 c 128,-1,25
 588 809 588 809 569 703 c 1,26,-1
 562 655 l 1,27,-1
 782 669 l 1,28,-1
 756 568 l 1,29,-1
 543 555 l 1,30,-1
 536 515 l 2,31,32
 483 215 483 215 409 99 c 1,33,-1
 868 96 l 1,34,-1
 1039 349 l 1,35,-1
 1122 331 l 1,36,-1
 1032 0 l 1,37,-1
 43 0 l 1,0,-1
EndSplineSet
Colour: ffffff
EndChar

StartChar: yen
Encoding: 100 165 85
Width: 1159
VWidth: 0
Flags: MW
LayerCount: 3
Back
SplineSet
42 1168 m 5,0,-1
 55 1244 l 1,1,-1
 515 1244 l 1,2,-1
 504 1168 l 1,3,-1
 371 1130 l 1,4,-1
 589 636 l 1,5,-1
 806 1126 l 1,6,-1
 649 1168 l 1,7,-1
 658 1244 l 1,8,-1
 1054 1244 l 1,9,-1
 1045 1168 l 1,10,-1
 921 1130 l 1,11,-1
 667 578 l 1,12,-1
 968 578 l 1,13,-1
 957 480 l 1,14,-1
 640 480 l 1,15,-1
 640 338 l 1,16,-1
 964 338 l 1,17,-1
 953 240 l 1,18,-1
 640 240 l 1,19,-1
 640 113 l 1,20,-1
 804 78 l 1,21,-1
 794 0 l 1,22,-1
 294 0 l 1,23,-1
 304 71 l 1,24,-1
 453 119 l 1,25,-1
 453 240 l 1,26,-1
 143 240 l 1,27,-1
 155 338 l 1,28,-1
 453 338 l 1,29,-1
 453 480 l 1,30,-1
 147 480 l 1,31,-1
 159 578 l 1,32,-1
 426 578 l 1,33,-1
 178 1126 l 1,34,-1
 42 1168 l 5,0,-1
EndSplineSet
Fore
SplineSet
390 472 m 1,0,-1
 83 472 l 1,1,-1
 111 578 l 1,2,-1
 375 578 l 1,3,-1
 222 1126 l 1,4,-1
 91 1168 l 1,5,-1
 116 1244 l 1,6,-1
 583 1244 l 1,7,-1
 560 1168 l 1,8,-1
 422 1130 l 1,9,-1
 554 641 l 1,10,-1
 849 1126 l 1,11,-1
 699 1168 l 1,12,-1
 720 1244 l 1,13,-1
 1117 1244 l 1,14,-1
 1095 1168 l 1,15,-1
 965 1130 l 1,16,-1
 623 578 l 1,17,-1
 927 578 l 1,18,-1
 899 472 l 1,19,-1
 583 472 l 1,20,-1
 564 345 l 1,21,-1
 887 345 l 1,22,-1
 859 239 l 1,23,-1
 547 239 l 1,24,-1
 527 114 l 1,25,-1
 686 81 l 1,26,-1
 663 0 l 1,27,-1
 156 0 l 1,28,-1
 177 74 l 1,29,-1
 336 121 l 1,30,-1
 354 239 l 1,31,-1
 43 239 l 1,32,-1
 71 345 l 1,33,-1
 370 345 l 1,34,-1
 390 472 l 1,0,-1
EndSplineSet
Colour: ffffff
EndChar

StartChar: brokenbar
Encoding: 101 166 86
Width: 447
VWidth: 0
Flags: MW
LayerCount: 3
Back
SplineSet
109 -366 m 1,0,-1
 109 423 l 1,1,-1
 228 411 l 1,2,-1
 228 -380 l 1,3,-1
 109 -366 l 1,0,-1
109 540 m 1,4,-1
 109 1260 l 1,5,-1
 227 1248 l 1,6,-1
 225 529 l 1,7,-1
 109 540 l 1,4,-1
EndSplineSet
Fore
SplineSet
183 540 m 1,0,-1
 295 1255 l 1,1,-1
 404 1244 l 1,2,-1
 287 528 l 1,3,-1
 183 540 l 1,0,-1
41 -350 m 1,4,-1
 165 431 l 1,5,-1
 274 419 l 1,6,-1
 150 -363 l 1,7,-1
 41 -350 l 1,4,-1
EndSplineSet
Colour: ffffff
EndChar

StartChar: dieresis
Encoding: 103 168 87
Width: 603
VWidth: 0
Flags: MW
LayerCount: 3
Back
SplineSet
92 1465 m 0,0,1
 92 1498 92 1498 118.5 1520 c 0
 145 1542 145 1542 177 1542 c 0,2,3
 211 1542 211 1542 237 1520 c 0
 263 1498 263 1498 263 1465 c 0,4,5
 263 1429 263 1429 237 1406 c 0
 211 1383 211 1383 177 1383 c 0,6,7
 143 1383 143 1383 117.5 1406.5 c 0
 92 1430 92 1430 92 1465 c 0,0,1
360 1465 m 0,8,9
 360 1498 360 1498 386.5 1520 c 0
 413 1542 413 1542 445 1542 c 0,10,11
 479 1542 479 1542 505.5 1520 c 0
 532 1498 532 1498 532 1465 c 0,12,13
 532 1430 532 1430 505.5 1406.5 c 0
 479 1383 479 1383 445 1383 c 0,14,15
 411 1383 411 1383 385.5 1406.5 c 0
 360 1430 360 1430 360 1465 c 0,8,9
EndSplineSet
Fore
SplineSet
180 1542 m 0,0,1
 215 1542 215 1542 236 1520.5 c 128,-1,2
 257 1499 257 1499 252 1465 c 0,3,4
 246 1429 246 1429 218 1406.5 c 128,-1,5
 190 1384 190 1384 155 1384 c 0,6,7
 121 1384 121 1384 98.5 1406.5 c 128,-1,8
 76 1429 76 1429 82 1465 c 0,9,10
 88 1499 88 1499 117.5 1520.5 c 128,-1,11
 147 1542 147 1542 180 1542 c 0,0,1
447 1542 m 0,12,13
 482 1542 482 1542 504 1520.5 c 128,-1,14
 526 1499 526 1499 521 1465 c 0,15,16
 515 1429 515 1429 486 1406.5 c 128,-1,17
 457 1384 457 1384 422 1384 c 0,18,19
 388 1384 388 1384 366 1406.5 c 128,-1,20
 344 1429 344 1429 350 1465 c 0,21,22
 356 1499 356 1499 385 1520.5 c 128,-1,23
 414 1542 414 1542 447 1542 c 0,12,13
EndSplineSet
Colour: ffffff
EndChar

StartChar: copyright
Encoding: 104 169 88
Width: 1380
VWidth: 0
Flags: MW
LayerCount: 3
Back
SplineSet
53 645 m 0,0,1
 53 831 53 831 140 987 c 0
 227 1143 227 1143 372 1231.5 c 0
 517 1320 517 1320 684 1320 c 0,2,3
 877 1320 877 1320 1024.5 1232.5 c 0
 1172 1145 1172 1145 1249.5 993 c 0
 1327 841 1327 841 1327 649 c 0,4,5
 1327 517 1327 517 1276 395 c 0
 1225 273 1225 273 1138.5 183 c 0
 1052 93 1052 93 930.5 39 c 0
 809 -15 809 -15 675 -15 c 0,6,7
 495 -15 495 -15 352.5 71.5 c 0
 210 158 210 158 131.5 308.5 c 0
 53 459 53 459 53 645 c 0,0,1
176 657 m 0,8,9
 176 411 176 411 318.5 251.5 c 0
 461 92 461 92 683 92 c 0,10,11
 790 92 790 92 886 133.5 c 0
 982 175 982 175 1052 247 c 0
 1122 319 1122 319 1163.5 421.5 c 0
 1205 524 1205 524 1205 639 c 0,12,13
 1205 803 1205 803 1145.5 932.5 c 0
 1086 1062 1086 1062 966.5 1139.5 c 0
 847 1217 847 1217 684 1217 c 0,14,15
 543 1217 543 1217 425.5 1140.5 c 0
 308 1064 308 1064 242 935.5 c 0
 176 807 176 807 176 657 c 0,8,9
344.5 643.75 m 0,16,17
 344.5 735.515 344.5 735.515 374.983 814.182 c 0
 405.466 892.85 405.466 892.85 455.98 945.028 c 0
 506.494 997.205 506.494 997.205 571.466 1026.6 c 0
 636.438 1056 636.438 1056 705.75 1056 c 0,18,19
 806.116 1056 806.116 1056 858.358 1018.35 c 0
 910.6 980.706 910.6 980.706 910.6 925.95 c 0,20,21
 910.6 887.766 910.6 887.766 882.713 864.119 c 0
 854.825 840.472 854.825 840.472 802.65 836.7 c 1,22,23
 791.283 863.897 791.283 863.897 780.958 883.48 c 0
 770.633 903.064 770.633 903.064 753.699 926.783 c 0
 736.765 950.502 736.765 950.502 714.366 963.301 c 0
 691.966 976.1 691.966 976.1 665.8 976.1 c 0,24,25
 589.899 976.1 589.899 976.1 544.124 906.689 c 0
 498.35 837.279 498.35 837.279 498.35 721.95 c 0,26,27
 498.35 677.715 498.35 677.715 507.368 630.514 c 0
 516.386 583.312 516.386 583.312 536.558 535.926 c 0
 556.729 488.539 556.729 488.539 585.296 451.32 c 0
 613.863 414.101 613.863 414.101 656.918 390.8 c 0
 699.973 367.5 699.973 367.5 750.8 367.5 c 0,28,29
 807.339 367.5 807.339 367.5 845.778 381.207 c 0
 884.216 394.914 884.216 394.914 922.5 419.35 c 1,30,-1
 943.75 370.05 l 1,31,32
 908.403 327.367 908.403 327.367 833.959 296.433 c 0
 759.515 265.5 759.515 265.5 680.25 265.5 c 0,33,34
 581.137 265.5 581.137 265.5 503.534 317.661 c 0
 425.932 369.823 425.932 369.823 385.216 455.589 c 0
 344.5 541.355 344.5 541.355 344.5 643.75 c 0,16,17
EndSplineSet
Fore
SplineSet
177 657 m 0,0,1
 177 411 177 411 319.5 251.5 c 128,-1,2
 462 92 462 92 684 92 c 0,3,4
 791 92 791 92 887 133.5 c 128,-1,5
 983 175 983 175 1053 247 c 128,-1,6
 1123 319 1123 319 1164.5 421.5 c 128,-1,7
 1206 524 1206 524 1206 639 c 0,8,9
 1206 803 1206 803 1146.5 932.5 c 128,-1,10
 1087 1062 1087 1062 967.5 1139.5 c 128,-1,11
 848 1217 848 1217 685 1217 c 0,12,13
 544 1217 544 1217 426.5 1140.5 c 128,-1,14
 309 1064 309 1064 243 935.5 c 128,-1,15
 177 807 177 807 177 657 c 0,0,1
54 645 m 128,-1,17
 54 831 54 831 141 987 c 128,-1,18
 228 1143 228 1143 373 1231.5 c 128,-1,19
 518 1320 518 1320 685 1320 c 0,20,21
 878 1320 878 1320 1025.5 1232.5 c 128,-1,22
 1173 1145 1173 1145 1250.5 993 c 128,-1,23
 1328 841 1328 841 1328 649 c 0,24,25
 1328 517 1328 517 1277 395 c 128,-1,26
 1226 273 1226 273 1139.5 183 c 128,-1,27
 1053 93 1053 93 931.5 39 c 128,-1,28
 810 -15 810 -15 676 -15 c 0,29,30
 496 -15 496 -15 353.5 71.5 c 128,-1,31
 211 158 211 158 132.5 308.5 c 128,-1,16
 54 459 54 459 54 645 c 128,-1,17
346 644 m 0,32,33
 346 736 346 736 376.5 814.5 c 128,-1,34
 407 893 407 893 457.5 945 c 128,-1,35
 508 997 508 997 573 1026.5 c 128,-1,36
 638 1056 638 1056 707 1056 c 0,37,38
 807 1056 807 1056 859.5 1018.5 c 128,-1,39
 912 981 912 981 912 926 c 0,40,41
 912 888 912 888 884 864.5 c 128,-1,42
 856 841 856 841 804 837 c 1,43,44
 793 864 793 864 782.5 883.5 c 128,-1,45
 772 903 772 903 755 927 c 128,-1,46
 738 951 738 951 715.5 963.5 c 128,-1,47
 693 976 693 976 667 976 c 0,48,49
 591 976 591 976 545 906.5 c 128,-1,50
 499 837 499 837 499 722 c 0,51,52
 499 666 499 666 514 606.5 c 128,-1,53
 529 547 529 547 558.5 492.5 c 128,-1,54
 588 438 588 438 638.5 403 c 128,-1,55
 689 368 689 368 752 368 c 0,56,57
 846 368 846 368 924 419 c 1,58,-1
 945 370 l 1,59,60
 910 328 910 328 835 297 c 128,-1,61
 760 266 760 266 681 266 c 0,62,63
 532 266 532 266 439 376 c 128,-1,64
 346 486 346 486 346 644 c 0,32,33
EndSplineSet
Colour: ffffff
EndChar

StartChar: guillemotleft
Encoding: 106 171 89
Width: 704
VWidth: 0
Flags: MW
LayerCount: 3
Back
SplineSet
23 469 m 1,0,-1
 292 820 l 1,1,-1
 335 761 l 1,2,-1
 171 461 l 1,3,-1
 338 141 l 1,4,-1
 286 77 l 1,5,-1
 24 449 l 1,6,-1
 23 469 l 1,0,-1
270 469 m 1,7,-1
 538 820 l 1,8,-1
 583 761 l 1,9,-1
 418 461 l 1,10,-1
 586 141 l 1,11,-1
 534 77 l 1,12,-1
 271 449 l 1,13,-1
 270 469 l 1,7,-1
EndSplineSet
Fore
SplineSet
51 469 m 1,0,-1
 374 821 l 1,1,-1
 409 761 l 1,2,-1
 196 461 l 1,3,-1
 313 140 l 1,4,-1
 250 78 l 1,5,-1
 49 449 l 1,6,-1
 51 469 l 1,0,-1
298 469 m 1,7,-1
 622 821 l 1,8,-1
 657 761 l 1,9,-1
 444 461 l 1,10,-1
 561 140 l 1,11,-1
 498 78 l 1,12,-1
 297 449 l 1,13,-1
 298 469 l 1,7,-1
EndSplineSet
Colour: ffffff
EndChar

StartChar: logicalnot
Encoding: 107 172 90
Width: 886
VWidth: 0
Flags: MW
LayerCount: 3
Back
SplineSet
74 559 m 1,0,-1
 86 663 l 1,1,-1
 830 663 l 1,2,-1
 832 351 l 1,3,-1
 726 332 l 1,4,-1
 726 559 l 1,5,-1
 74 559 l 1,0,-1
EndSplineSet
Fore
SplineSet
83 664 m 1,0,-1
 828 664 l 1,1,-1
 780 350 l 1,2,-1
 671 332 l 1,3,-1
 707 558 l 1,4,-1
 55 558 l 1,5,-1
 83 664 l 1,0,-1
EndSplineSet
Colour: ffffff
EndChar

StartChar: softhyphen
Encoding: 108 173 91
Width: 560
VWidth: 0
Flags: MW
LayerCount: 3
Back
SplineSet
85 406 m 1,0,-1
 92 521 l 1,1,-1
 500 581 l 1,2,-1
 492 465 l 1,3,-1
 85 406 l 1,0,-1
EndSplineSet
Fore
SplineSet
83 522 m 1,0,-1
 501 581 l 1,1,-1
 475 466 l 1,2,-1
 57 406 l 1,3,-1
 83 522 l 1,0,-1
EndSplineSet
Colour: ffffff
EndChar

StartChar: micro
Encoding: 116 181 92
Width: 945
VWidth: 0
Flags: MW
LayerCount: 3
Fore
SplineSet
213 37 m 1,0,-1
 206 37 l 1,1,2
 206 -38 206 -38 201 -86 c 2,3,-1
 171 -388 l 1,4,-1
 42 -362 l 1,5,6
 60 -300 60 -300 131 20 c 128,-1,7
 202 340 202 340 227 497 c 2,8,-1
 266 746 l 1,9,-1
 135 770 l 1,10,-1
 145 844 l 1,11,-1
 428 869 l 1,12,-1
 447 846 l 1,13,-1
 368 375 l 1,14,15
 342 242 342 242 355 179.5 c 128,-1,16
 368 117 368 117 433 117 c 0,17,18
 530 117 530 117 613 200 c 1,19,-1
 695 746 l 1,20,-1
 561 770 l 1,21,-1
 571 844 l 1,22,-1
 857 869 l 1,23,-1
 877 846 l 1,24,-1
 801 370 l 2,25,26
 783 255 783 255 782.5 195 c 128,-1,27
 782 135 782 135 793.5 118 c 128,-1,28
 805 101 805 101 831 96 c 2,29,-1
 897 84 l 1,30,-1
 879 15 l 1,31,32
 793 -17 793 -17 738 -17 c 0,33,34
 594 -17 594 -17 611 130 c 1,35,-1
 601 130 l 1,36,37
 574 80 574 80 500.5 30 c 128,-1,38
 427 -20 427 -20 338 -20 c 0,39,40
 250 -20 250 -20 213 38 c 1,41,-1
 213 37 l 1,0,-1
EndSplineSet
Colour: ffffff
EndChar

StartChar: periodcentered
Encoding: 118 183 93
Width: 362
VWidth: 0
Flags: MW
LayerCount: 3
Back
SplineSet
83 504 m 0,0,1
 83 551 83 551 118.5 584.5 c 0
 154 618 154 618 203 618 c 0,2,3
 253 618 253 618 289 585 c 0
 325 552 325 552 325 504 c 0,4,5
 325 454 325 454 289 417.5 c 0
 253 381 253 381 203 381 c 0,6,7
 154 381 154 381 118.5 417.5 c 0
 83 454 83 454 83 504 c 0,0,1
EndSplineSet
Fore
SplineSet
59 504 m 0,0,1
 59 551 59 551 94.5 584.5 c 128,-1,2
 130 618 130 618 179 618 c 0,3,4
 229 618 229 618 265 585 c 128,-1,5
 301 552 301 552 301 504 c 0,6,7
 301 454 301 454 265 417.5 c 128,-1,8
 229 381 229 381 179 381 c 0,9,10
 130 381 130 381 94.5 417.5 c 128,-1,11
 59 454 59 454 59 504 c 0,0,1
EndSplineSet
Colour: ffffff
EndChar

StartChar: macron
Encoding: 110 175 94
Width: 617
VWidth: 0
Flags: MW
LayerCount: 3
Back
SplineSet
372 1480 m 1,0,-1
 813 1480 l 1,1,-1
 783 1379 l 1,2,-1
 342 1379 l 1,3,-1
 372 1480 l 1,0,-1
545 1239 m 0
EndSplineSet
Fore
SplineSet
81 1379 m 1,0,-1
 94 1479 l 1,1,-1
 536 1479 l 1,2,-1
 523 1379 l 1,3,-1
 81 1379 l 1,0,-1
EndSplineSet
Colour: ffffff
EndChar

StartChar: degree
Encoding: 111 176 95
Width: 485
VWidth: 0
Flags: MW
LayerCount: 3
Back
SplineSet
390 1237 m 0,0,1
 348 1237 348 1237 320.5 1204 c 0
 293 1171 293 1171 286 1125 c 0,2,3
 278 1075 278 1075 297.5 1035.5 c 0
 317 996 317 996 362 996 c 0,4,5
 402 996 402 996 428.5 1025.5 c 0
 455 1055 455 1055 464 1110 c 0,6,7
 472 1161 472 1161 453.5 1199 c 0
 435 1237 435 1237 390 1237 c 0,0,1
408 1285 m 0,8,9
 479 1285 479 1285 514 1240 c 0
 549 1195 549 1195 538 1123 c 1,10,11
 526 1052 526 1052 471 1000 c 0
 416 948 416 948 342 948 c 0,12,13
 272 948 272 948 236 992.5 c 0
 200 1037 200 1037 213 1113 c 0,14,15
 224 1183 224 1183 281 1234 c 0
 338 1285 338 1285 408 1285 c 0,8,9
EndSplineSet
Fore
SplineSet
157 1129 m 0,0,1
 157 1078 157 1078 182.5 1036.5 c 128,-1,2
 208 995 208 995 253 995 c 0,3,4
 338 995 338 995 338 1105 c 0,5,6
 338 1156 338 1156 312.5 1196.5 c 128,-1,7
 287 1237 287 1237 243 1237 c 0,8,9
 201 1237 201 1237 179 1205.5 c 128,-1,10
 157 1174 157 1174 157 1129 c 0,0,1
66 1107 m 0,11,12
 66 1186 66 1186 122.5 1245 c 128,-1,13
 179 1304 179 1304 259 1304 c 0,14,15
 344 1304 344 1304 387 1258 c 128,-1,16
 430 1212 430 1212 430 1128 c 0,17,18
 430 1043 430 1043 373 985.5 c 128,-1,19
 316 928 316 928 235 928 c 0,20,21
 157 928 157 928 111.5 974.5 c 128,-1,22
 66 1021 66 1021 66 1107 c 0,11,12
EndSplineSet
Colour: ffffff
EndChar

StartChar: plusminus
Encoding: 112 177 96
Width: 729
VWidth: 0
Flags: MW
LayerCount: 3
Back
SplineSet
58 13 m 1,0,-1
 74 117 l 1,1,-1
 686 123 l 1,2,-1
 670 19 l 1,3,-1
 58 13 l 1,0,-1
83 475 m 1,4,-1
 95 575 l 1,5,-1
 304 575 l 1,6,-1
 304 807 l 1,7,-1
 412 795 l 1,8,-1
 414 575 l 1,9,-1
 633 575 l 1,10,-1
 621 475 l 1,11,-1
 414 475 l 1,12,-1
 415 240 l 1,13,-1
 304 251 l 1,14,-1
 304 475 l 1,15,-1
 83 475 l 1,4,-1
EndSplineSet
Fore
SplineSet
68 117 m 1,0,-1
 679 124 l 1,1,-1
 663 20 l 1,2,-1
 51 13 l 1,3,-1
 68 117 l 1,0,-1
58 490 m 1,4,-1
 70 591 l 1,5,-1
 279 591 l 1,6,-1
 279 822 l 1,7,-1
 388 810 l 1,8,-1
 389 591 l 1,9,-1
 609 591 l 1,10,-1
 597 490 l 1,11,-1
 389 490 l 1,12,-1
 391 255 l 1,13,-1
 279 266 l 1,14,-1
 279 490 l 1,15,-1
 58 490 l 1,4,-1
EndSplineSet
Colour: ffffff
EndChar

StartChar: acute
Encoding: 115 180 97
Width: 393
VWidth: 0
Flags: MW
LayerCount: 3
Back
SplineSet
727 1666 m 1,0,-1
 494 1349 l 1,1,-1
 448 1381 l 1,2,-1
 623 1706 l 1,3,-1
 727 1666 l 1,0,-1
505 1239 m 0
EndSplineSet
Fore
SplineSet
80 1380 m 1,0,-1
 203 1705 l 1,1,-1
 314 1666 l 1,2,-1
 131 1348 l 1,3,-1
 80 1380 l 1,0,-1
EndSplineSet
Colour: ffffff
EndChar

StartChar: cedilla
Encoding: 119 184 98
Width: 339
VWidth: 0
Flags: MW
LayerCount: 3
Back
SplineSet
201 -76 m 1,0,1
 277 -152 277 -152 266 -226 c 1,2,3
 249 -330 249 -330 41 -390 c 1,4,-1
 30 -330 l 1,5,6
 120 -300 120 -300 129 -248 c 1,7,8
 135 -206 135 -206 74 -137 c 1,9,-1
 193 3 l 1,10,-1
 268 3 l 1,11,-1
 201 -76 l 1,0,1
226 0 m 0
EndSplineSet
Fore
SplineSet
54 -331 m 1,0,1
 95 -317 95 -317 117.5 -294.5 c 128,-1,2
 140 -272 140 -272 140 -248 c 0,3,4
 140 -208 140 -208 66 -138 c 1,5,-1
 164 3 l 1,6,-1
 238 3 l 1,7,-1
 185 -76 l 1,8,9
 274 -155 274 -155 274 -227 c 0,10,11
 274 -330 274 -330 73 -389 c 1,12,-1
 54 -331 l 1,0,1
EndSplineSet
Colour: ffffff
EndChar

StartChar: guillemotright
Encoding: 122 187 99
Width: 703
VWidth: 0
Flags: MW
LayerCount: 3
Back
SplineSet
61 141 m 1,0,-1
 228 461 l 1,1,-1
 64 761 l 1,2,-1
 108 820 l 1,3,-1
 376 469 l 1,4,-1
 374 449 l 1,5,-1
 113 77 l 1,6,-1
 61 141 l 1,0,-1
308 141 m 1,7,-1
 476 461 l 1,8,-1
 311 761 l 1,9,-1
 355 820 l 1,10,-1
 623 469 l 1,11,-1
 621 449 l 1,12,-1
 360 77 l 1,13,-1
 308 141 l 1,7,-1
EndSplineSet
Fore
SplineSet
651 430 m 1,0,-1
 328 78 l 1,1,-1
 293 138 l 1,2,-1
 506 438 l 1,3,-1
 389 759 l 1,4,-1
 452 821 l 1,5,-1
 653 450 l 1,6,-1
 651 430 l 1,0,-1
404 430 m 1,7,-1
 80 78 l 1,8,-1
 45 138 l 1,9,-1
 258 438 l 1,10,-1
 141 759 l 1,11,-1
 204 821 l 1,12,-1
 405 450 l 1,13,-1
 404 430 l 1,7,-1
EndSplineSet
Colour: ffffff
EndChar

StartChar: questiondown
Encoding: 126 191 100
Width: 650
VWidth: 0
Flags: MW
LayerCount: 3
Back
SplineSet
53 40 m 0,0,1
 53 96 53 96 74.5 138 c 0
 96 180 96 180 128 203.5 c 0
 160 227 160 227 197 249 c 0
 234 271 234 271 266 287 c 0
 298 303 298 303 319.5 330 c 0
 341 357 341 357 341 391 c 0,2,3
 341 445 341 445 319 517 c 1,4,-1
 393 534 l 1,5,6
 420 495 420 495 445 431.5 c 0
 470 368 470 368 470 314 c 0,7,8
 470 269 470 269 453 235 c 0
 436 201 436 201 409 181 c 0
 382 161 382 161 349.5 145.5 c 0
 317 130 317 130 284.5 114.5 c 0
 252 99 252 99 225 81 c 0
 198 63 198 63 181 32 c 0
 164 1 164 1 164 -40 c 0,9,10
 164 -104 164 -104 221.5 -158.5 c 0
 279 -213 279 -213 328 -213 c 0,11,12
 453 -213 453 -213 519 -142 c 1,13,14
 547 -153 547 -153 570 -184 c 0
 593 -215 593 -215 593 -253 c 0,15,16
 593 -304 593 -304 547 -346 c 0
 501 -388 501 -388 396 -388 c 0,17,18
 338 -388 338 -388 277 -356 c 0
 216 -324 216 -324 166 -269.5 c 0
 116 -215 116 -215 84.5 -133.5 c 0
 53 -52 53 -52 53 40 c 0,0,1
233 810 m 0,19,20
 233 862 233 862 269.5 899 c 0
 306 936 306 936 359 936 c 0,21,22
 411 936 411 936 446.5 898 c 0
 482 860 482 860 482 807 c 0,23,24
 482 757 482 757 445.5 723.5 c 0
 409 690 409 690 359 690 c 0,25,26
 308 690 308 690 270.5 725 c 0
 233 760 233 760 233 810 c 0,19,20
EndSplineSet
Fore
SplineSet
497 937 m 0,0,1
 543 937 543 937 573 906.5 c 128,-1,2
 603 876 603 876 603 831 c 0,3,4
 603 771 603 771 559 731 c 128,-1,5
 515 691 515 691 459 691 c 0,6,7
 412 691 412 691 381.5 720 c 128,-1,8
 351 749 351 749 351 793 c 0,9,10
 351 853 351 853 396.5 895 c 128,-1,11
 442 937 442 937 497 937 c 0,0,1
326 -387 m 0,12,13
 216 -387 216 -387 130 -287.5 c 128,-1,14
 44 -188 44 -188 44 -36 c 0,15,16
 44 40 44 40 63.5 93.5 c 128,-1,17
 83 147 83 147 114 174 c 128,-1,18
 145 201 145 201 183 220 c 128,-1,19
 221 239 221 239 259 254 c 128,-1,20
 297 269 297 269 328 289.5 c 128,-1,21
 359 310 359 310 378.5 349 c 128,-1,22
 398 388 398 388 398 447 c 0,23,24
 398 477 398 477 392 518 c 1,25,-1
 469 534 l 1,26,27
 515 442 515 442 515 353 c 0,28,29
 515 288 515 288 487.5 242.5 c 128,-1,30
 460 197 460 197 419.5 176 c 128,-1,31
 379 155 379 155 331 134 c 128,-1,32
 283 113 283 113 242.5 94.5 c 128,-1,33
 202 76 202 76 174.5 37 c 128,-1,34
 147 -2 147 -2 147 -59 c 0,35,36
 147 -118 147 -118 193 -165 c 128,-1,37
 239 -212 239 -212 284 -212 c 0,38,39
 410 -212 410 -212 487 -141 c 1,40,41
 510 -151 510 -151 527.5 -177 c 128,-1,42
 545 -203 545 -203 545 -236 c 0,43,44
 545 -296 545 -296 491 -341.5 c 128,-1,45
 437 -387 437 -387 326 -387 c 0,12,13
EndSplineSet
Colour: ffffff
EndChar

StartChar: germandbls
Encoding: 158 223 101
Width: 1027
VWidth: 0
Flags: MW
LayerCount: 3
Back
SplineSet
755 194 m 2,0,-1
 904 1132 l 1,1,2
 884 1149 884 1149 822.5 1163.5 c 0
 761 1178 761 1178 713 1178 c 0,3,4
 514 1178 514 1178 476 956 c 2,5,-1
 459 858 l 1,6,-1
 750 858 l 1,7,-1
 726 768 l 1,8,-1
 450 768 l 1,9,-1
 385 135 l 2,10,11
 371 -9 371 -9 335 -60 c 1,12,-1
 179 -60 l 1,13,14
 191 -38 191 -38 196 -27.5 c 0
 201 -17 201 -17 209 17 c 0
 217 51 217 51 222 99 c 2,15,-1
 288 768 l 1,16,-1
 135 768 l 1,17,-1
 149 836 l 1,18,-1
 306 872 l 1,19,20
 323 960 323 960 373.5 1042.5 c 0
 424 1125 424 1125 488.5 1181.5 c 0
 553 1238 553 1238 624 1272 c 0
 695 1306 695 1306 754 1306 c 0,21,22
 888 1306 888 1306 977 1259.5 c 0
 1066 1213 1066 1213 1078 1172 c 1,23,-1
 938 378 l 2,24,25
 915 249 915 249 915 172 c 0,26,27
 915 150 915 150 921.5 134.5 c 0
 928 119 928 119 939.5 111.5 c 0
 951 104 951 104 967 100 c 0
 983 96 983 96 1002 96 c 0
 1021 96 1021 96 1042 96 c 1,28,-1
 1034 15 l 1,29,30
 972 -17 972 -17 893 -17 c 0,31,32
 797 -17 797 -17 767 32 c 0
 737 81 737 81 755 194 c 2,0,-1
EndSplineSet
Fore
SplineSet
424 839 m 2,0,-1
 350 135 l 2,1,2
 334 -11 334 -11 300 -60 c 1,3,-1
 144 -60 l 1,4,5
 156 -38 156 -38 161 -27.5 c 128,-1,6
 166 -17 166 -17 174 17 c 128,-1,7
 182 51 182 51 187 99 c 2,8,-1
 253 768 l 1,9,-1
 100 768 l 1,10,-1
 114 836 l 1,11,-1
 271 872 l 1,12,13
 294 989 294 989 360.5 1091 c 128,-1,14
 427 1193 427 1193 528 1256.5 c 128,-1,15
 629 1320 629 1320 738 1320 c 0,16,17
 856 1320 856 1320 914 1251.5 c 128,-1,18
 972 1183 972 1183 972 1071 c 0,19,20
 972 1026 972 1026 957 984.5 c 128,-1,21
 942 943 942 943 918 911 c 128,-1,22
 894 879 894 879 864.5 848.5 c 128,-1,23
 835 818 835 818 806 791 c 128,-1,24
 777 764 777 764 753 738.5 c 128,-1,25
 729 713 729 713 714 684.5 c 128,-1,26
 699 656 699 656 699 628 c 0,27,28
 699 598 699 598 719 566.5 c 128,-1,29
 739 535 739 535 769.5 508 c 128,-1,30
 800 481 800 481 835 448 c 128,-1,31
 870 415 870 415 899.5 383.5 c 128,-1,32
 929 352 929 352 948.5 310 c 128,-1,33
 968 268 968 268 967 224 c 0,34,35
 964 115 964 115 871 40 c 128,-1,36
 778 -35 778 -35 673 -35 c 0,37,38
 565 -35 565 -35 502 0 c 128,-1,39
 439 35 439 35 439 82 c 0,40,41
 439 131 439 131 471.5 166.5 c 128,-1,42
 504 202 504 202 561 208 c 1,43,44
 611 54 611 54 713 54 c 0,45,46
 761 54 761 54 791.5 81.5 c 128,-1,47
 822 109 822 109 822 162 c 0,48,49
 822 193 822 193 802.5 223.5 c 128,-1,50
 783 254 783 254 754 278.5 c 128,-1,51
 725 303 725 303 690.5 334 c 128,-1,52
 656 365 656 365 627 395 c 128,-1,53
 598 425 598 425 578.5 468.5 c 128,-1,54
 559 512 559 512 559 560 c 0,55,56
 559 599 559 599 573 634.5 c 128,-1,57
 587 670 587 670 609.5 698.5 c 128,-1,58
 632 727 632 727 659.5 754.5 c 128,-1,59
 687 782 687 782 714 810 c 128,-1,60
 741 838 741 838 763.5 867.5 c 128,-1,61
 786 897 786 897 800 935 c 128,-1,62
 814 973 814 973 814 1015 c 0,63,64
 814 1103 814 1103 775.5 1160 c 128,-1,65
 737 1217 737 1217 668 1217 c 0,66,67
 558 1217 558 1217 502 1127 c 128,-1,68
 446 1037 446 1037 424 839 c 2,0,-1
EndSplineSet
Colour: ffffff
EndChar

StartChar: Agrave
Encoding: 127 192 102
Width: 1379
VWidth: 0
Flags: MW
LayerCount: 3
Back
SplineSet
-37 0 m 1,0,-1
 -28 74 l 1,1,-1
 121 129 l 1,2,-1
 559 1237 l 1,3,-1
 710 1268 l 1,4,-1
 1100 124 l 1,5,-1
 1237 80 l 1,6,-1
 1228 0 l 1,7,-1
 713 0 l 1,8,-1
 725 74 l 1,9,-1
 896 129 l 1,10,-1
 787 432 l 1,11,-1
 368 432 l 1,12,-1
 256 124 l 1,13,-1
 442 80 l 1,14,-1
 431 0 l 1,15,-1
 -37 0 l 1,0,-1
406 534 m 1,16,-1
 758 534 l 1,17,-1
 592 1034 l 1,18,-1
 406 534 l 1,16,-1
436 1664 m 1,19,-1
 552 1702 l 1,20,-1
 684 1368 l 1,21,-1
 627 1334 l 1,22,-1
 436 1664 l 1,19,-1
EndSplineSet
Fore
SplineSet
728 1725 m 1,0,-1
 843 1763 l 1,1,-1
 975 1430 l 1,2,-1
 919 1395 l 1,3,-1
 728 1725 l 1,0,-1
570 533 m 1,4,-1
 922 533 l 1,5,-1
 836 1034 l 1,6,-1
 570 533 l 1,4,-1
984 1268 m 1,7,-1
 1203 124 l 1,8,-1
 1332 81 l 1,9,-1
 1310 0 l 1,10,-1
 795 0 l 1,11,-1
 818 74 l 1,12,-1
 1000 129 l 1,13,-1
 937 433 l 1,14,-1
 518 433 l 1,15,-1
 359 124 l 1,16,-1
 537 81 l 1,17,-1
 513 0 l 1,18,-1
 44 0 l 1,19,-1
 65 74 l 1,20,-1
 224 129 l 1,21,-1
 827 1237 l 1,22,-1
 984 1268 l 1,7,-1
EndSplineSet
Colour: ffffff
EndChar

StartChar: Aacute
Encoding: 128 193 103
Width: 1379
VWidth: 0
Flags: MW
LayerCount: 3
Back
SplineSet
-37 0 m 1,0,-1
 -28 74 l 1,1,-1
 121 129 l 1,2,-1
 559 1237 l 1,3,-1
 710 1268 l 1,4,-1
 1100 124 l 1,5,-1
 1237 80 l 1,6,-1
 1228 0 l 1,7,-1
 713 0 l 1,8,-1
 725 74 l 1,9,-1
 896 129 l 1,10,-1
 787 432 l 1,11,-1
 368 432 l 1,12,-1
 256 124 l 1,13,-1
 442 80 l 1,14,-1
 431 0 l 1,15,-1
 -37 0 l 1,0,-1
406 534 m 1,16,-1
 758 534 l 1,17,-1
 592 1034 l 1,18,-1
 406 534 l 1,16,-1
593 1385 m 1,19,-1
 716 1710 l 1,20,-1
 827 1670 l 1,21,-1
 643 1354 l 1,22,-1
 593 1385 l 1,19,-1
EndSplineSet
Fore
SplineSet
819 1427 m 1,0,-1
 942 1752 l 1,1,-1
 1053 1713 l 1,2,-1
 870 1395 l 1,3,-1
 819 1427 l 1,0,-1
570 533 m 1,4,-1
 922 533 l 1,5,-1
 836 1034 l 1,6,-1
 570 533 l 1,4,-1
984 1268 m 1,7,-1
 1203 124 l 1,8,-1
 1332 81 l 1,9,-1
 1310 0 l 1,10,-1
 795 0 l 1,11,-1
 818 74 l 1,12,-1
 1000 129 l 1,13,-1
 937 433 l 1,14,-1
 518 433 l 1,15,-1
 359 124 l 1,16,-1
 537 81 l 1,17,-1
 513 0 l 1,18,-1
 44 0 l 1,19,-1
 65 74 l 1,20,-1
 224 129 l 1,21,-1
 827 1237 l 1,22,-1
 984 1268 l 1,7,-1
EndSplineSet
Colour: ffffff
EndChar

StartChar: Acircumflex
Encoding: 129 194 104
Width: 1379
VWidth: 0
Flags: MW
LayerCount: 3
Back
SplineSet
-37 0 m 1,0,-1
 -28 74 l 1,1,-1
 121 129 l 1,2,-1
 559 1237 l 1,3,-1
 710 1268 l 1,4,-1
 1100 124 l 1,5,-1
 1237 80 l 1,6,-1
 1228 0 l 1,7,-1
 713 0 l 1,8,-1
 725 74 l 1,9,-1
 896 129 l 1,10,-1
 787 432 l 1,11,-1
 368 432 l 1,12,-1
 256 124 l 1,13,-1
 442 80 l 1,14,-1
 431 0 l 1,15,-1
 -37 0 l 1,0,-1
406 534 m 1,16,-1
 758 534 l 1,17,-1
 592 1034 l 1,18,-1
 406 534 l 1,16,-1
443 1392 m 1,19,-1
 611 1572 l 1,20,-1
 666 1585 l 1,21,-1
 844 1400 l 1,22,-1
 794 1364 l 1,23,-1
 632 1472 l 1,24,-1
 621 1472 l 1,25,-1
 480 1361 l 1,26,-1
 443 1392 l 1,19,-1
EndSplineSet
Fore
SplineSet
756 1425 m 1,0,-1
 924 1604 l 1,1,-1
 979 1619 l 1,2,-1
 1157 1433 l 1,3,-1
 1108 1396 l 1,4,-1
 945 1506 l 1,5,-1
 934 1506 l 1,6,-1
 795 1395 l 1,7,-1
 756 1425 l 1,0,-1
570 533 m 1,8,-1
 922 533 l 1,9,-1
 836 1034 l 1,10,-1
 570 533 l 1,8,-1
984 1268 m 1,11,-1
 1203 124 l 1,12,-1
 1332 81 l 1,13,-1
 1310 0 l 1,14,-1
 795 0 l 1,15,-1
 818 74 l 1,16,-1
 1000 129 l 1,17,-1
 937 433 l 1,18,-1
 518 433 l 1,19,-1
 359 124 l 1,20,-1
 537 81 l 1,21,-1
 513 0 l 1,22,-1
 44 0 l 1,23,-1
 65 74 l 1,24,-1
 224 129 l 1,25,-1
 827 1237 l 1,26,-1
 984 1268 l 1,11,-1
EndSplineSet
Colour: ffffff
EndChar

StartChar: Atilde
Encoding: 130 195 105
Width: 1379
VWidth: 0
Flags: MW
LayerCount: 3
Back
SplineSet
-37 0 m 1,0,-1
 -28 74 l 1,1,-1
 121 129 l 1,2,-1
 559 1237 l 1,3,-1
 710 1268 l 1,4,-1
 1100 124 l 1,5,-1
 1237 80 l 1,6,-1
 1228 0 l 1,7,-1
 713 0 l 1,8,-1
 725 74 l 1,9,-1
 896 129 l 1,10,-1
 787 432 l 1,11,-1
 368 432 l 1,12,-1
 256 124 l 1,13,-1
 442 80 l 1,14,-1
 431 0 l 1,15,-1
 -37 0 l 1,0,-1
406 534 m 1,16,-1
 758 534 l 1,17,-1
 592 1034 l 1,18,-1
 406 534 l 1,16,-1
406 1383 m 1,19,20
 407 1389 407 1389 410 1398.5 c 0
 413 1408 413 1408 423.5 1432.5 c 0
 434 1457 434 1457 447 1476 c 0
 460 1495 460 1495 482 1510.5 c 0
 504 1526 504 1526 529 1526 c 2,21,22
 543 1526 l 1,23,-1
 764 1496 l 1,24,-1
 768 1496 l 2,25,26
 779 1496 779 1496 793.5 1506 c 0
 808 1516 808 1516 816.5 1526 c 2
 825 1536 l 1,27,-1
 872 1535 l 1,28,29
 870 1529 870 1529 867 1519.5 c 0
 864 1510 864 1510 853 1485 c 0
 842 1460 842 1460 828.5 1441 c 0
 815 1422 815 1422 792 1406.5 c 0
 769 1391 769 1391 743 1391 c 0,30,31
 734 1391 734 1391 730 1392 c 2,32,-1
 507 1423 l 1,33,-1
 504 1423 l 2,34,35
 492 1423 492 1423 477 1411.5 c 0
 462 1400 462 1400 453.5 1388 c 2
 445 1376 l 1,36,-1
 406 1383 l 1,19,20
EndSplineSet
Fore
SplineSet
730 1404 m 1,0,1
 732 1410 732 1410 735 1420.5 c 128,-1,2
 738 1431 738 1431 750 1457 c 128,-1,3
 762 1483 762 1483 776.5 1502 c 128,-1,4
 791 1521 791 1521 815 1535 c 128,-1,5
 839 1549 839 1549 866 1546 c 2,6,-1
 1092 1517 l 2,7,8
 1103 1516 1103 1516 1117.5 1526 c 128,-1,9
 1132 1536 1132 1536 1140 1546 c 2,10,-1
 1148 1557 l 1,11,-1
 1197 1555 l 1,12,13
 1192.5 1541.5 l 130,-1,14
 1188 1528 1188 1528 1174.5 1501.5 c 128,-1,15
 1161 1475 1161 1475 1145.5 1456 c 128,-1,16
 1130 1437 1130 1437 1105 1422.5 c 128,-1,17
 1080 1408 1080 1408 1053 1412 c 2,18,-1
 828 1444 l 2,19,20
 816 1446 816 1446 801 1433.5 c 128,-1,21
 786 1421 786 1421 778 1408 c 2,22,-1
 769 1395 l 1,23,-1
 730 1404 l 1,0,1
570 533 m 1,24,-1
 922 533 l 1,25,-1
 836 1034 l 1,26,-1
 570 533 l 1,24,-1
984 1268 m 1,27,-1
 1203 124 l 1,28,-1
 1332 81 l 1,29,-1
 1310 0 l 1,30,-1
 795 0 l 1,31,-1
 818 74 l 1,32,-1
 1000 129 l 1,33,-1
 937 433 l 1,34,-1
 518 433 l 1,35,-1
 359 124 l 1,36,-1
 537 81 l 1,37,-1
 513 0 l 1,38,-1
 44 0 l 1,39,-1
 65 74 l 1,40,-1
 224 129 l 1,41,-1
 827 1237 l 1,42,-1
 984 1268 l 1,27,-1
EndSplineSet
Colour: ffffff
EndChar

StartChar: Adieresis
Encoding: 131 196 106
Width: 1379
VWidth: 0
Flags: MW
LayerCount: 3
Back
SplineSet
-37 0 m 1,0,-1
 -28 74 l 1,1,-1
 121 129 l 1,2,-1
 559 1237 l 1,3,-1
 710 1268 l 1,4,-1
 1100 124 l 1,5,-1
 1237 80 l 1,6,-1
 1228 0 l 1,7,-1
 713 0 l 1,8,-1
 725 74 l 1,9,-1
 896 129 l 1,10,-1
 787 432 l 1,11,-1
 368 432 l 1,12,-1
 256 124 l 1,13,-1
 442 80 l 1,14,-1
 431 0 l 1,15,-1
 -37 0 l 1,0,-1
406 534 m 1,16,-1
 758 534 l 1,17,-1
 592 1034 l 1,18,-1
 406 534 l 1,16,-1
423 1453 m 0,19,20
 423 1487 423 1487 448.5 1508.5 c 0
 474 1530 474 1530 506 1530 c 0,21,22
 540 1530 540 1530 566 1508 c 0
 592 1486 592 1486 592 1453 c 0,23,24
 592 1418 592 1418 566.5 1395.5 c 0
 541 1373 541 1373 506 1373 c 0,25,26
 472 1373 472 1373 447.5 1395.5 c 0
 423 1418 423 1418 423 1453 c 0,19,20
690 1453 m 0,27,28
 690 1487 690 1487 715.5 1508.5 c 0
 741 1530 741 1530 773 1530 c 0,29,30
 808 1530 808 1530 834.5 1508 c 0
 861 1486 861 1486 861 1453 c 0,31,32
 861 1418 861 1418 834.5 1395.5 c 0
 808 1373 808 1373 773 1373 c 0,33,34
 739 1373 739 1373 714.5 1395.5 c 0
 690 1418 690 1418 690 1453 c 0,27,28
EndSplineSet
Fore
SplineSet
581 1553 m 0,0,1
 616 1553 616 1553 637 1531.5 c 128,-1,2
 658 1510 658 1510 653 1476 c 0,3,4
 647 1440 647 1440 619 1417.5 c 128,-1,5
 591 1395 591 1395 556 1395 c 0,6,7
 522 1395 522 1395 499.5 1417.5 c 128,-1,8
 477 1440 477 1440 483 1476 c 0,9,10
 489 1510 489 1510 518.5 1531.5 c 128,-1,11
 548 1553 548 1553 581 1553 c 0,0,1
848 1553 m 0,12,13
 883 1553 883 1553 905 1531.5 c 128,-1,14
 927 1510 927 1510 922 1476 c 0,15,16
 916 1440 916 1440 887 1417.5 c 128,-1,17
 858 1395 858 1395 823 1395 c 0,18,19
 789 1395 789 1395 767 1417.5 c 128,-1,20
 745 1440 745 1440 751 1476 c 0,21,22
 757 1510 757 1510 786 1531.5 c 128,-1,23
 815 1553 815 1553 848 1553 c 0,12,13
570 533 m 1,24,-1
 922 533 l 1,25,-1
 836 1034 l 1,26,-1
 570 533 l 1,24,-1
984 1268 m 1,27,-1
 1203 124 l 1,28,-1
 1332 81 l 1,29,-1
 1310 0 l 1,30,-1
 795 0 l 1,31,-1
 818 74 l 1,32,-1
 1000 129 l 1,33,-1
 937 433 l 1,34,-1
 518 433 l 1,35,-1
 359 124 l 1,36,-1
 537 81 l 1,37,-1
 513 0 l 1,38,-1
 44 0 l 1,39,-1
 65 74 l 1,40,-1
 224 129 l 1,41,-1
 827 1237 l 1,42,-1
 984 1268 l 1,27,-1
EndSplineSet
Colour: ffffff
EndChar

StartChar: Aring
Encoding: 132 197 107
Width: 1379
VWidth: 0
Flags: MW
LayerCount: 3
Back
SplineSet
-37 0 m 1,0,-1
 -28 74 l 1,1,-1
 121 129 l 1,2,-1
 559 1237 l 1,3,-1
 710 1268 l 1,4,-1
 1100 124 l 1,5,-1
 1237 80 l 1,6,-1
 1228 0 l 1,7,-1
 713 0 l 1,8,-1
 725 74 l 1,9,-1
 896 129 l 1,10,-1
 787 432 l 1,11,-1
 368 432 l 1,12,-1
 256 124 l 1,13,-1
 442 80 l 1,14,-1
 431 0 l 1,15,-1
 -37 0 l 1,0,-1
406 534 m 1,16,-1
 758 534 l 1,17,-1
 592 1034 l 1,18,-1
 406 534 l 1,16,-1
480 1532 m 0,19,20
 480 1601 480 1601 530 1652.5 c 0
 580 1704 580 1704 649 1704 c 0,21,22
 720 1704 720 1704 762 1658.5 c 0
 804 1613 804 1613 804 1542 c 0,23,24
 804 1472 804 1472 757 1419.5 c 0
 710 1367 710 1367 636 1367 c 0,25,26
 566 1367 566 1367 523 1411.5 c 0
 480 1456 480 1456 480 1532 c 0,19,20
552 1543 m 0,27,28
 552 1492 552 1492 577 1453.5 c 0
 602 1415 602 1415 647 1415 c 0,29,30
 688 1415 688 1415 711 1445 c 0
 734 1475 734 1475 734 1529 c 0,31,32
 734 1579 734 1579 707 1617.5 c 0
 680 1656 680 1656 636 1656 c 0,33,34
 595 1656 595 1656 573.5 1623 c 0
 552 1590 552 1590 552 1543 c 0,27,28
EndSplineSet
Fore
SplineSet
890 1439 m 0,0,1
 890 1388 890 1388 912 1352.5 c 128,-1,2
 934 1317 934 1317 979 1317 c 0,3,4
 1059 1317 1059 1317 1059 1425 c 0,5,6
 1059 1476 1059 1476 1036 1511 c 128,-1,7
 1013 1546 1013 1546 969 1546 c 0,8,9
 928 1546 928 1546 909 1516 c 128,-1,10
 890 1486 890 1486 890 1439 c 0,0,1
800 1428 m 0,11,12
 800 1496 800 1496 855 1548 c 128,-1,13
 910 1600 910 1600 980 1600 c 0,14,15
 1052 1600 1052 1600 1100 1553.5 c 128,-1,16
 1148 1507 1148 1507 1148 1437 c 0,17,18
 1148 1373 1148 1373 1101 1321.5 c 128,-1,19
 1054 1270 1054 1270 985 1263 c 1,20,-1
 1203 124 l 1,21,-1
 1332 81 l 1,22,-1
 1310 0 l 1,23,-1
 795 0 l 1,24,-1
 818 74 l 1,25,-1
 1000 129 l 1,26,-1
 937 433 l 1,27,-1
 518 433 l 1,28,-1
 359 124 l 1,29,-1
 537 81 l 1,30,-1
 513 0 l 1,31,-1
 44 0 l 1,32,-1
 65 74 l 1,33,-1
 224 129 l 1,34,-1
 827 1237 l 1,35,-1
 955 1262 l 1,36,37
 888 1266 888 1266 844 1311.5 c 128,-1,38
 800 1357 800 1357 800 1428 c 0,11,12
570 533 m 1,39,-1
 922 533 l 1,40,-1
 836 1034 l 1,41,-1
 570 533 l 1,39,-1
EndSplineSet
Colour: ffffff
EndChar

StartChar: Ccedilla
Encoding: 134 199 108
Width: 1190
VWidth: 0
Flags: MW
LayerCount: 3
Back
SplineSet
61 589 m 0,0,1
 61 681 61 681 83.5 773.5 c 0
 106 866 106 866 156.5 956 c 0
 207 1046 207 1046 280 1115 c 0
 353 1184 353 1184 463 1226.5 c 0
 573 1269 573 1269 705 1269 c 0,2,3
 934 1269 934 1269 1066 1169 c 1,4,-1
 1035 837 l 1,5,-1
 947 850 l 1,6,-1
 906 1070 l 1,7,8
 825 1174 825 1174 647 1174 c 0,9,10
 487 1174 487 1174 381 1034 c 0
 275 894 275 894 275 658 c 0,11,12
 275 528 275 528 312.5 422 c 0
 350 316 350 316 413.5 249 c 0
 477 182 477 182 558 146.5 c 0
 639 111 639 111 729 111 c 0,13,14
 823 111 823 111 915 153.5 c 0
 1007 196 1007 196 1078 261 c 1,15,-1
 1114 185 l 1,16,17
 1058 117 1058 117 959 59 c 0
 860 1 860 1 743 -18 c 1,18,-1
 703 -76 l 1,19,20
 792 -155 792 -155 792 -227 c 0,21,22
 792 -330 792 -330 592 -389 c 1,23,-1
 572 -331 l 1,24,25
 613 -317 613 -317 635.5 -294.5 c 0
 658 -272 658 -272 658 -248 c 0,26,27
 658 -207 658 -207 585 -138 c 1,28,-1
 663 -24 l 1,29,-1
 652 -24 l 2,30,31
 535 -24 535 -24 429.5 16.5 c 0
 324 57 324 57 241.5 132 c 0
 159 207 159 207 110 325.5 c 0
 61 444 61 444 61 589 c 0,0,1
EndSplineSet
Fore
SplineSet
425 -346 m 1,0,1
 466 -332 466 -332 488.5 -309.5 c 128,-1,2
 511 -287 511 -287 511 -263 c 0,3,4
 511 -223 511 -223 437 -153 c 1,5,-1
 527 -24 l 1,6,7
 430 -18 430 -18 343.5 25 c 128,-1,8
 257 68 257 68 192.5 139.5 c 128,-1,9
 128 211 128 211 90.5 313.5 c 128,-1,10
 53 416 53 416 53 535 c 0,11,12
 53 634 53 634 82.5 735.5 c 128,-1,13
 112 837 112 837 174.5 933.5 c 128,-1,14
 237 1030 237 1030 325 1104.5 c 128,-1,15
 413 1179 413 1179 540 1224.5 c 128,-1,16
 667 1270 667 1270 814 1270 c 0,17,18
 1009 1270 1009 1270 1148 1149 c 1,19,-1
 1065 817 l 1,20,-1
 981 831 l 1,21,-1
 973 1050 l 1,22,23
 897 1174 897 1174 738 1174 c 0,24,25
 648 1174 648 1174 564.5 1132.5 c 128,-1,26
 481 1091 481 1091 417 1016 c 128,-1,27
 353 941 353 941 314.5 826 c 128,-1,28
 276 711 276 711 276 575 c 0,29,30
 276 463 276 463 306.5 372.5 c 128,-1,31
 337 282 337 282 390 224.5 c 128,-1,32
 443 167 443 167 512.5 136.5 c 128,-1,33
 582 106 582 106 662 106 c 0,34,35
 761 106 761 106 847 134 c 128,-1,36
 933 162 933 162 1021 240 c 1,37,-1
 1064 185 l 1,38,39
 889 -11 889 -11 601 -24 c 1,40,-1
 556 -91 l 1,41,42
 645 -170 645 -170 645 -242 c 0,43,44
 645 -345 645 -345 444 -404 c 1,45,-1
 425 -346 l 1,0,1
EndSplineSet
Colour: ffffff
EndChar

StartChar: Egrave
Encoding: 135 200 109
Width: 1259
VWidth: 0
Flags: MW
LayerCount: 3
Back
SplineSet
50 1168 m 1,0,-1
 61 1244 l 1,1,-1
 1056 1244 l 1,2,-1
 1025 924 l 1,3,-1
 938 937 l 1,4,-1
 897 1152 l 1,5,-1
 426 1152 l 1,6,-1
 426 676 l 1,7,-1
 716 676 l 1,8,-1
 758 796 l 1,9,-1
 853 810 l 1,10,-1
 819 421 l 1,11,-1
 734 408 l 1,12,-1
 700 583 l 1,13,-1
 426 583 l 1,14,-1
 426 96 l 1,15,-1
 921 96 l 1,16,-1
 1019 326 l 1,17,-1
 1102 313 l 1,18,-1
 1072 0 l 1,19,-1
 57 0 l 1,20,-1
 65 74 l 1,21,-1
 232 121 l 1,22,-1
 232 1126 l 1,23,-1
 50 1168 l 1,0,-1
443 1664 m 1,24,-1
 559 1702 l 1,25,-1
 691 1368 l 1,26,-1
 633 1334 l 1,27,-1
 443 1664 l 1,24,-1
EndSplineSet
Fore
SplineSet
518 1725 m 1,0,-1
 633 1763 l 1,1,-1
 765 1430 l 1,2,-1
 709 1395 l 1,3,-1
 518 1725 l 1,0,-1
242 1244 m 1,4,-1
 1217 1244 l 1,5,-1
 1148 925 l 1,6,-1
 1064 938 l 1,7,-1
 1044 1153 l 1,8,-1
 592 1153 l 1,9,-1
 519 677 l 1,10,-1
 810 677 l 1,11,-1
 861 796 l 1,12,-1
 957 809 l 1,13,-1
 874 421 l 1,14,-1
 787 408 l 1,15,-1
 780 583 l 1,16,-1
 504 583 l 1,17,-1
 427 96 l 1,18,-1
 934 96 l 1,19,-1
 1047 325 l 1,20,-1
 1130 314 l 1,21,-1
 1069 0 l 1,22,-1
 43 0 l 1,23,-1
 63 74 l 1,24,-1
 238 121 l 1,25,-1
 397 1126 l 1,26,-1
 220 1168 l 1,27,-1
 242 1244 l 1,4,-1
EndSplineSet
Colour: ffffff
EndChar

StartChar: Eacute
Encoding: 136 201 110
Width: 1259
VWidth: 0
Flags: MW
LayerCount: 3
Back
SplineSet
50 1168 m 1,0,-1
 61 1244 l 1,1,-1
 1056 1244 l 1,2,-1
 1025 924 l 1,3,-1
 938 937 l 1,4,-1
 897 1152 l 1,5,-1
 426 1152 l 1,6,-1
 426 676 l 1,7,-1
 716 676 l 1,8,-1
 758 796 l 1,9,-1
 853 810 l 1,10,-1
 819 421 l 1,11,-1
 734 408 l 1,12,-1
 700 583 l 1,13,-1
 426 583 l 1,14,-1
 426 96 l 1,15,-1
 921 96 l 1,16,-1
 1019 326 l 1,17,-1
 1102 313 l 1,18,-1
 1072 0 l 1,19,-1
 57 0 l 1,20,-1
 65 74 l 1,21,-1
 232 121 l 1,22,-1
 232 1126 l 1,23,-1
 50 1168 l 1,0,-1
517 1385 m 1,24,-1
 640 1710 l 1,25,-1
 751 1670 l 1,26,-1
 568 1354 l 1,27,-1
 517 1385 l 1,24,-1
EndSplineSet
Fore
SplineSet
609 1427 m 1,0,-1
 732 1752 l 1,1,-1
 843 1713 l 1,2,-1
 660 1395 l 1,3,-1
 609 1427 l 1,0,-1
242 1244 m 1,4,-1
 1217 1244 l 1,5,-1
 1148 925 l 1,6,-1
 1064 938 l 1,7,-1
 1044 1153 l 1,8,-1
 592 1153 l 1,9,-1
 519 677 l 1,10,-1
 810 677 l 1,11,-1
 861 796 l 1,12,-1
 957 809 l 1,13,-1
 874 421 l 1,14,-1
 787 408 l 1,15,-1
 780 583 l 1,16,-1
 504 583 l 1,17,-1
 427 96 l 1,18,-1
 934 96 l 1,19,-1
 1047 325 l 1,20,-1
 1130 314 l 1,21,-1
 1069 0 l 1,22,-1
 43 0 l 1,23,-1
 63 74 l 1,24,-1
 238 121 l 1,25,-1
 397 1126 l 1,26,-1
 220 1168 l 1,27,-1
 242 1244 l 1,4,-1
EndSplineSet
Colour: ffffff
EndChar

StartChar: Ecircumflex
Encoding: 137 202 111
Width: 1259
VWidth: 0
Flags: MW
LayerCount: 3
Back
SplineSet
406 1387 m 1,0,-1
 574 1566 l 1,1,-1
 629 1581 l 1,2,-1
 807 1395 l 1,3,-1
 758 1358 l 1,4,-1
 595 1468 l 1,5,-1
 584 1468 l 1,6,-1
 445 1357 l 1,7,-1
 406 1387 l 1,0,-1
75 1168 m 1,8,-1
 86 1244 l 1,9,-1
 1081 1244 l 1,10,-1
 1050 924 l 1,11,-1
 963 937 l 1,12,-1
 922 1152 l 1,13,-1
 451 1152 l 1,14,-1
 451 676 l 1,15,-1
 741 676 l 1,16,-1
 783 796 l 1,17,-1
 878 810 l 1,18,-1
 844 421 l 1,19,-1
 759 408 l 1,20,-1
 725 583 l 1,21,-1
 451 583 l 1,22,-1
 451 96 l 1,23,-1
 946 96 l 1,24,-1
 1044 326 l 1,25,-1
 1127 313 l 1,26,-1
 1097 0 l 1,27,-1
 82 0 l 1,28,-1
 90 74 l 1,29,-1
 257 121 l 1,30,-1
 257 1126 l 1,31,-1
 75 1168 l 1,8,-1
EndSplineSet
Fore
SplineSet
545 1425 m 1,0,-1
 713 1604 l 1,1,-1
 768 1619 l 1,2,-1
 946 1433 l 1,3,-1
 897 1396 l 1,4,-1
 734 1506 l 1,5,-1
 723 1506 l 1,6,-1
 584 1395 l 1,7,-1
 545 1425 l 1,0,-1
242 1244 m 1,8,-1
 1217 1244 l 1,9,-1
 1148 925 l 1,10,-1
 1064 938 l 1,11,-1
 1044 1153 l 1,12,-1
 592 1153 l 1,13,-1
 519 677 l 1,14,-1
 810 677 l 1,15,-1
 861 796 l 1,16,-1
 957 809 l 1,17,-1
 874 421 l 1,18,-1
 787 408 l 1,19,-1
 780 583 l 1,20,-1
 504 583 l 1,21,-1
 427 96 l 1,22,-1
 934 96 l 1,23,-1
 1047 325 l 1,24,-1
 1130 314 l 1,25,-1
 1069 0 l 1,26,-1
 43 0 l 1,27,-1
 63 74 l 1,28,-1
 238 121 l 1,29,-1
 397 1126 l 1,30,-1
 220 1168 l 1,31,-1
 242 1244 l 1,8,-1
EndSplineSet
Colour: ffffff
EndChar

StartChar: Edieresis
Encoding: 138 203 112
Width: 1259
VWidth: 0
Flags: MW
LayerCount: 3
Back
SplineSet
50 1168 m 1,0,-1
 61 1244 l 1,1,-1
 1056 1244 l 1,2,-1
 1025 924 l 1,3,-1
 938 937 l 1,4,-1
 897 1152 l 1,5,-1
 426 1152 l 1,6,-1
 426 676 l 1,7,-1
 716 676 l 1,8,-1
 758 796 l 1,9,-1
 853 810 l 1,10,-1
 819 421 l 1,11,-1
 734 408 l 1,12,-1
 700 583 l 1,13,-1
 426 583 l 1,14,-1
 426 96 l 1,15,-1
 921 96 l 1,16,-1
 1019 326 l 1,17,-1
 1102 313 l 1,18,-1
 1072 0 l 1,19,-1
 57 0 l 1,20,-1
 65 74 l 1,21,-1
 232 121 l 1,22,-1
 232 1126 l 1,23,-1
 50 1168 l 1,0,-1
380 1453 m 0,24,25
 380 1487 380 1487 405.5 1508.5 c 0
 431 1530 431 1530 463 1530 c 0,26,27
 497 1530 497 1530 523 1508 c 0
 549 1486 549 1486 549 1453 c 0,28,29
 549 1418 549 1418 523.5 1395.5 c 0
 498 1373 498 1373 463 1373 c 0,30,31
 429 1373 429 1373 404.5 1395.5 c 0
 380 1418 380 1418 380 1453 c 0,24,25
647 1453 m 0,32,33
 647 1487 647 1487 672.5 1508.5 c 0
 698 1530 698 1530 730 1530 c 0,34,35
 765 1530 765 1530 791.5 1508 c 0
 818 1486 818 1486 818 1453 c 0,36,37
 818 1418 818 1418 791.5 1395.5 c 0
 765 1373 765 1373 730 1373 c 0,38,39
 696 1373 696 1373 671.5 1395.5 c 0
 647 1418 647 1418 647 1453 c 0,32,33
EndSplineSet
Fore
SplineSet
370 1553 m 0,0,1
 405 1553 405 1553 426 1531.5 c 128,-1,2
 447 1510 447 1510 442 1476 c 0,3,4
 436 1440 436 1440 408 1417.5 c 128,-1,5
 380 1395 380 1395 345 1395 c 0,6,7
 311 1395 311 1395 288.5 1417.5 c 128,-1,8
 266 1440 266 1440 272 1476 c 0,9,10
 278 1510 278 1510 307.5 1531.5 c 128,-1,11
 337 1553 337 1553 370 1553 c 0,0,1
637 1553 m 0,12,13
 672 1553 672 1553 694 1531.5 c 128,-1,14
 716 1510 716 1510 711 1476 c 0,15,16
 705 1440 705 1440 676 1417.5 c 128,-1,17
 647 1395 647 1395 612 1395 c 0,18,19
 578 1395 578 1395 556 1417.5 c 128,-1,20
 534 1440 534 1440 540 1476 c 0,21,22
 546 1510 546 1510 575 1531.5 c 128,-1,23
 604 1553 604 1553 637 1553 c 0,12,13
242 1244 m 1,24,-1
 1217 1244 l 1,25,-1
 1148 925 l 1,26,-1
 1064 938 l 1,27,-1
 1044 1153 l 1,28,-1
 592 1153 l 1,29,-1
 519 677 l 1,30,-1
 810 677 l 1,31,-1
 861 796 l 1,32,-1
 957 809 l 1,33,-1
 874 421 l 1,34,-1
 787 408 l 1,35,-1
 780 583 l 1,36,-1
 504 583 l 1,37,-1
 427 96 l 1,38,-1
 934 96 l 1,39,-1
 1047 325 l 1,40,-1
 1130 314 l 1,41,-1
 1069 0 l 1,42,-1
 43 0 l 1,43,-1
 63 74 l 1,44,-1
 238 121 l 1,45,-1
 397 1126 l 1,46,-1
 220 1168 l 1,47,-1
 242 1244 l 1,24,-1
EndSplineSet
Colour: ffffff
EndChar

StartChar: Igrave
Encoding: 139 204 113
Width: 828
VWidth: 0
Flags: MW
LayerCount: 3
Back
SplineSet
50 1168 m 1,0,-1
 61 1244 l 1,1,-1
 605 1244 l 1,2,-1
 595 1168 l 1,3,-1
 426 1130 l 1,4,-1
 426 114 l 1,5,-1
 607 80 l 1,6,-1
 597 0 l 1,7,-1
 57 0 l 1,8,-1
 65 74 l 1,9,-1
 232 121 l 1,10,-1
 232 1126 l 1,11,-1
 50 1168 l 1,0,-1
133 1664 m 1,12,-1
 249 1702 l 1,13,-1
 381 1368 l 1,14,-1
 323 1334 l 1,15,-1
 133 1664 l 1,12,-1
EndSplineSet
Fore
SplineSet
293 1725 m 1,0,-1
 408 1763 l 1,1,-1
 540 1430 l 1,2,-1
 484 1395 l 1,3,-1
 293 1725 l 1,0,-1
583 0 m 1,4,-1
 43 0 l 1,5,-1
 63 74 l 1,6,-1
 238 121 l 1,7,-1
 397 1126 l 1,8,-1
 220 1168 l 1,9,-1
 242 1244 l 1,10,-1
 787 1244 l 1,11,-1
 765 1168 l 1,12,-1
 590 1130 l 1,13,-1
 430 114 l 1,14,-1
 607 81 l 1,15,-1
 583 0 l 1,4,-1
EndSplineSet
Colour: ffffff
EndChar

StartChar: Iacute
Encoding: 140 205 114
Width: 828
VWidth: 0
Flags: MW
LayerCount: 3
Back
SplineSet
50 1168 m 1,0,-1
 61 1244 l 1,1,-1
 605 1244 l 1,2,-1
 595 1168 l 1,3,-1
 426 1130 l 1,4,-1
 426 114 l 1,5,-1
 607 80 l 1,6,-1
 597 0 l 1,7,-1
 57 0 l 1,8,-1
 65 74 l 1,9,-1
 232 121 l 1,10,-1
 232 1126 l 1,11,-1
 50 1168 l 1,0,-1
289 1385 m 1,12,-1
 412 1710 l 1,13,-1
 523 1670 l 1,14,-1
 341 1354 l 1,15,-1
 289 1385 l 1,12,-1
EndSplineSet
Fore
SplineSet
384 1427 m 1,0,-1
 507 1752 l 1,1,-1
 618 1713 l 1,2,-1
 435 1395 l 1,3,-1
 384 1427 l 1,0,-1
583 0 m 1,4,-1
 43 0 l 1,5,-1
 63 74 l 1,6,-1
 238 121 l 1,7,-1
 397 1126 l 1,8,-1
 220 1168 l 1,9,-1
 242 1244 l 1,10,-1
 787 1244 l 1,11,-1
 765 1168 l 1,12,-1
 590 1130 l 1,13,-1
 430 114 l 1,14,-1
 607 81 l 1,15,-1
 583 0 l 1,4,-1
EndSplineSet
Colour: ffffff
EndChar

StartChar: Icircumflex
Encoding: 141 206 115
Width: 828
VWidth: 0
Flags: MW
LayerCount: 3
Back
SplineSet
50 1168 m 1,0,-1
 61 1244 l 1,1,-1
 605 1244 l 1,2,-1
 595 1168 l 1,3,-1
 426 1130 l 1,4,-1
 426 114 l 1,5,-1
 607 80 l 1,6,-1
 597 0 l 1,7,-1
 57 0 l 1,8,-1
 65 74 l 1,9,-1
 232 121 l 1,10,-1
 232 1126 l 1,11,-1
 50 1168 l 1,0,-1
132 1392 m 1,12,-1
 299 1572 l 1,13,-1
 354 1585 l 1,14,-1
 532 1400 l 1,15,-1
 483 1364 l 1,16,-1
 319 1472 l 1,17,-1
 309 1472 l 1,18,-1
 169 1361 l 1,19,-1
 132 1392 l 1,12,-1
EndSplineSet
Fore
SplineSet
320 1425 m 1,0,-1
 488 1604 l 1,1,-1
 543 1619 l 1,2,-1
 721 1433 l 1,3,-1
 672 1396 l 1,4,-1
 509 1506 l 1,5,-1
 498 1506 l 1,6,-1
 359 1395 l 1,7,-1
 320 1425 l 1,0,-1
583 0 m 1,8,-1
 43 0 l 1,9,-1
 63 74 l 1,10,-1
 238 121 l 1,11,-1
 397 1126 l 1,12,-1
 220 1168 l 1,13,-1
 242 1244 l 1,14,-1
 787 1244 l 1,15,-1
 765 1168 l 1,16,-1
 590 1130 l 1,17,-1
 430 114 l 1,18,-1
 607 81 l 1,19,-1
 583 0 l 1,8,-1
EndSplineSet
Colour: ffffff
EndChar

StartChar: Idieresis
Encoding: 142 207 116
Width: 828
VWidth: 0
Flags: MW
LayerCount: 3
Back
SplineSet
50 1168 m 1,0,-1
 61 1244 l 1,1,-1
 605 1244 l 1,2,-1
 595 1168 l 1,3,-1
 426 1130 l 1,4,-1
 426 114 l 1,5,-1
 607 80 l 1,6,-1
 597 0 l 1,7,-1
 57 0 l 1,8,-1
 65 74 l 1,9,-1
 232 121 l 1,10,-1
 232 1126 l 1,11,-1
 50 1168 l 1,0,-1
110 1453 m 0,12,13
 110 1487 110 1487 136 1508.5 c 0
 162 1530 162 1530 194 1530 c 0,14,15
 228 1530 228 1530 253.5 1508 c 0
 279 1486 279 1486 279 1453 c 0,16,17
 279 1418 279 1418 253.5 1395.5 c 0
 228 1373 228 1373 194 1373 c 0,18,19
 160 1373 160 1373 135 1395.5 c 0
 110 1418 110 1418 110 1453 c 0,12,13
377 1453 m 0,20,21
 377 1487 377 1487 403 1508.5 c 0
 429 1530 429 1530 461 1530 c 0,22,23
 496 1530 496 1530 522.5 1508 c 0
 549 1486 549 1486 549 1453 c 0,24,25
 549 1418 549 1418 522.5 1395.5 c 0
 496 1373 496 1373 461 1373 c 0,26,27
 427 1373 427 1373 402 1395.5 c 0
 377 1418 377 1418 377 1453 c 0,20,21
EndSplineSet
Fore
SplineSet
145 1553 m 0,0,1
 180 1553 180 1553 201 1531.5 c 128,-1,2
 222 1510 222 1510 217 1476 c 0,3,4
 211 1440 211 1440 183 1417.5 c 128,-1,5
 155 1395 155 1395 120 1395 c 0,6,7
 86 1395 86 1395 63.5 1417.5 c 128,-1,8
 41 1440 41 1440 47 1476 c 0,9,10
 53 1510 53 1510 82.5 1531.5 c 128,-1,11
 112 1553 112 1553 145 1553 c 0,0,1
412 1553 m 0,12,13
 447 1553 447 1553 469 1531.5 c 128,-1,14
 491 1510 491 1510 486 1476 c 0,15,16
 480 1440 480 1440 451 1417.5 c 128,-1,17
 422 1395 422 1395 387 1395 c 0,18,19
 353 1395 353 1395 331 1417.5 c 128,-1,20
 309 1440 309 1440 315 1476 c 0,21,22
 321 1510 321 1510 350 1531.5 c 128,-1,23
 379 1553 379 1553 412 1553 c 0,12,13
583 0 m 1,24,-1
 43 0 l 1,25,-1
 63 74 l 1,26,-1
 238 121 l 1,27,-1
 397 1126 l 1,28,-1
 220 1168 l 1,29,-1
 242 1244 l 1,30,-1
 787 1244 l 1,31,-1
 765 1168 l 1,32,-1
 590 1130 l 1,33,-1
 430 114 l 1,34,-1
 607 81 l 1,35,-1
 583 0 l 1,24,-1
EndSplineSet
Colour: ffffff
EndChar

